<mxfile host="app.diagrams.net" modified="2021-06-17T06:46:45.885Z" agent="5.0 (Macintosh; Intel Mac OS X 10_15_7) AppleWebKit/537.36 (KHTML, like Gecko) Chrome/91.0.4472.106 Safari/537.36" etag="WW-Ea5CR8M1gdZID4j8v" version="14.7.9" type="github">
  <diagram id="6a731a19-8d31-9384-78a2-239565b7b9f0" name="Page-1">
    <mxGraphModel dx="1854" dy="2018" grid="1" gridSize="10" guides="1" tooltips="1" connect="1" arrows="1" fold="1" page="1" pageScale="1" pageWidth="1169" pageHeight="827" background="none" math="0" shadow="0">
      <root>
        <mxCell id="0" />
        <mxCell id="1" parent="0" />
        <mxCell id="1771" value="总房款347" style="rounded=1;whiteSpace=wrap;html=1;shadow=0;labelBackgroundColor=none;strokeColor=none;strokeWidth=3;fillColor=#12aab5;fontFamily=Helvetica;fontSize=14;fontColor=#FFFFFF;align=center;spacing=5;fontStyle=1;arcSize=7;perimeterSpacing=2;" parent="1" vertex="1">
          <mxGeometry x="610" y="509.9999999999999" width="150" height="60" as="geometry" />
        </mxCell>
        <mxCell id="Yh9lpEzUiPftYrS5x7hQ-1819" value="" style="edgeStyle=orthogonalEdgeStyle;rounded=0;orthogonalLoop=1;jettySize=auto;html=1;" parent="1" source="1778" target="Yh9lpEzUiPftYrS5x7hQ-1785" edge="1">
          <mxGeometry relative="1" as="geometry">
            <Array as="points">
              <mxPoint x="835" y="413" />
            </Array>
          </mxGeometry>
        </mxCell>
        <mxCell id="Yh9lpEzUiPftYrS5x7hQ-1823" value="" style="edgeStyle=orthogonalEdgeStyle;rounded=0;orthogonalLoop=1;jettySize=auto;html=1;" parent="1" source="1778" edge="1">
          <mxGeometry relative="1" as="geometry">
            <mxPoint x="1015" y="230" as="targetPoint" />
          </mxGeometry>
        </mxCell>
        <mxCell id="1778" value="公积金" style="rounded=1;whiteSpace=wrap;html=1;shadow=0;labelBackgroundColor=none;strokeColor=none;strokeWidth=3;fillColor=#61c6ce;fontFamily=Helvetica;fontSize=14;fontColor=#FFFFFF;align=center;spacing=5;fontStyle=0;arcSize=7;perimeterSpacing=2;" parent="1" vertex="1">
          <mxGeometry x="880" y="393.5" width="110" height="40" as="geometry" />
        </mxCell>
        <mxCell id="Yh9lpEzUiPftYrS5x7hQ-1831" value="" style="edgeStyle=orthogonalEdgeStyle;rounded=0;orthogonalLoop=1;jettySize=auto;html=1;" parent="1" source="Yh9lpEzUiPftYrS5x7hQ-1782" target="Yh9lpEzUiPftYrS5x7hQ-1824" edge="1">
          <mxGeometry relative="1" as="geometry" />
        </mxCell>
        <mxCell id="Yh9lpEzUiPftYrS5x7hQ-1837" value="" style="edgeStyle=orthogonalEdgeStyle;rounded=0;orthogonalLoop=1;jettySize=auto;html=1;" parent="1" source="Yh9lpEzUiPftYrS5x7hQ-1782" target="Yh9lpEzUiPftYrS5x7hQ-1796" edge="1">
          <mxGeometry relative="1" as="geometry">
            <mxPoint x="1148" y="208.94" as="targetPoint" />
          </mxGeometry>
        </mxCell>
        <mxCell id="Yh9lpEzUiPftYrS5x7hQ-1782" value="个人余额 44161元" style="rounded=1;whiteSpace=wrap;html=1;shadow=0;labelBackgroundColor=none;strokeColor=none;strokeWidth=3;fillColor=#61c6ce;fontFamily=Helvetica;fontSize=14;fontColor=#FFFFFF;align=center;spacing=5;fontStyle=0;arcSize=7;perimeterSpacing=2;" parent="1" vertex="1">
          <mxGeometry x="960" y="188.94" width="110" height="40" as="geometry" />
        </mxCell>
        <mxCell id="Yh9lpEzUiPftYrS5x7hQ-1842" value="" style="edgeStyle=orthogonalEdgeStyle;rounded=0;orthogonalLoop=1;jettySize=auto;html=1;" parent="1" source="Yh9lpEzUiPftYrS5x7hQ-1784" target="Yh9lpEzUiPftYrS5x7hQ-1841" edge="1">
          <mxGeometry relative="1" as="geometry" />
        </mxCell>
        <mxCell id="Yh9lpEzUiPftYrS5x7hQ-1844" value="" style="edgeStyle=orthogonalEdgeStyle;rounded=0;orthogonalLoop=1;jettySize=auto;html=1;" parent="1" source="Yh9lpEzUiPftYrS5x7hQ-1784" target="Yh9lpEzUiPftYrS5x7hQ-1810" edge="1">
          <mxGeometry relative="1" as="geometry">
            <mxPoint x="1258" y="414" as="targetPoint" />
          </mxGeometry>
        </mxCell>
        <mxCell id="Yh9lpEzUiPftYrS5x7hQ-1784" value="可贷款30w" style="rounded=1;whiteSpace=wrap;html=1;shadow=0;labelBackgroundColor=none;strokeColor=none;strokeWidth=3;fillColor=#61c6ce;fontFamily=Helvetica;fontSize=14;fontColor=#FFFFFF;align=center;spacing=5;fontStyle=0;arcSize=7;perimeterSpacing=2;" parent="1" vertex="1">
          <mxGeometry x="1070" y="394" width="110" height="40" as="geometry" />
        </mxCell>
        <mxCell id="Yh9lpEzUiPftYrS5x7hQ-1826" value="" style="edgeStyle=orthogonalEdgeStyle;rounded=0;orthogonalLoop=1;jettySize=auto;html=1;" parent="1" source="Yh9lpEzUiPftYrS5x7hQ-1785" target="Yh9lpEzUiPftYrS5x7hQ-1824" edge="1">
          <mxGeometry relative="1" as="geometry" />
        </mxCell>
        <mxCell id="Yh9lpEzUiPftYrS5x7hQ-1835" value="" style="edgeStyle=orthogonalEdgeStyle;rounded=0;orthogonalLoop=1;jettySize=auto;html=1;" parent="1" source="Yh9lpEzUiPftYrS5x7hQ-1785" target="Yh9lpEzUiPftYrS5x7hQ-1798" edge="1">
          <mxGeometry relative="1" as="geometry">
            <mxPoint x="1290" y="129.94" as="targetPoint" />
            <Array as="points">
              <mxPoint x="770" y="208.94" />
              <mxPoint x="770" y="-30.060000000000002" />
              <mxPoint x="1295" y="-30.060000000000002" />
            </Array>
          </mxGeometry>
        </mxCell>
        <mxCell id="Yh9lpEzUiPftYrS5x7hQ-1785" value="老婆余额 64460元" style="rounded=1;whiteSpace=wrap;html=1;shadow=0;labelBackgroundColor=none;strokeColor=none;strokeWidth=3;fillColor=#61c6ce;fontFamily=Helvetica;fontSize=14;fontColor=#FFFFFF;align=center;spacing=5;fontStyle=0;arcSize=7;perimeterSpacing=2;" parent="1" vertex="1">
          <mxGeometry x="780" y="188.94" width="110" height="40" as="geometry" />
        </mxCell>
        <mxCell id="Yh9lpEzUiPftYrS5x7hQ-1788" value="商业贷款" style="rounded=1;whiteSpace=wrap;html=1;shadow=0;labelBackgroundColor=none;strokeColor=none;strokeWidth=3;fillColor=#61c6ce;fontFamily=Helvetica;fontSize=14;fontColor=#FFFFFF;align=center;spacing=5;fontStyle=0;arcSize=7;perimeterSpacing=2;" parent="1" vertex="1">
          <mxGeometry x="880" y="520" width="110" height="40" as="geometry" />
        </mxCell>
        <mxCell id="Yh9lpEzUiPftYrS5x7hQ-1813" value="" style="edgeStyle=orthogonalEdgeStyle;rounded=0;orthogonalLoop=1;jettySize=auto;html=1;" parent="1" source="Yh9lpEzUiPftYrS5x7hQ-1789" edge="1">
          <mxGeometry relative="1" as="geometry">
            <mxPoint x="1325" y="436" as="targetPoint" />
            <Array as="points">
              <mxPoint x="1205" y="490" />
              <mxPoint x="1400" y="490" />
            </Array>
          </mxGeometry>
        </mxCell>
        <mxCell id="Yh9lpEzUiPftYrS5x7hQ-1816" value="" style="edgeStyle=orthogonalEdgeStyle;rounded=0;orthogonalLoop=1;jettySize=auto;html=1;" parent="1" source="Yh9lpEzUiPftYrS5x7hQ-1789" target="Yh9lpEzUiPftYrS5x7hQ-1795" edge="1">
          <mxGeometry relative="1" as="geometry" />
        </mxCell>
        <mxCell id="Yh9lpEzUiPftYrS5x7hQ-1789" value="工商贷款150w" style="rounded=1;whiteSpace=wrap;html=1;shadow=0;labelBackgroundColor=none;strokeColor=none;strokeWidth=3;fillColor=#61c6ce;fontFamily=Helvetica;fontSize=14;fontColor=#FFFFFF;align=center;spacing=5;fontStyle=0;arcSize=7;perimeterSpacing=2;" parent="1" vertex="1">
          <mxGeometry x="1070" y="520" width="110" height="40" as="geometry" />
        </mxCell>
        <mxCell id="Yh9lpEzUiPftYrS5x7hQ-1828" value="" style="edgeStyle=orthogonalEdgeStyle;rounded=0;orthogonalLoop=1;jettySize=auto;html=1;" parent="1" source="Yh9lpEzUiPftYrS5x7hQ-1791" target="Yh9lpEzUiPftYrS5x7hQ-1795" edge="1">
          <mxGeometry relative="1" as="geometry">
            <mxPoint x="2030" y="570.4550000000002" as="targetPoint" />
            <Array as="points">
              <mxPoint x="1700" y="770" />
            </Array>
          </mxGeometry>
        </mxCell>
        <mxCell id="Yh9lpEzUiPftYrS5x7hQ-1791" value="" style="shape=image;verticalLabelPosition=bottom;labelBackgroundColor=#ffffff;verticalAlign=top;aspect=fixed;imageAspect=0;image=data:image/png,iVBORw0KGgoAAAANSUhEUgAAAv4AAAGeCAYAAADseQV+AAAgAElEQVR4Aey9d9AtRXrmeTdiY0YbK/6YiBX7h4iRhulBmlYHraUX6YYQHYgexBI0jVgCGiFoGBAIECDMYoX3HgRc/L0II0D4BgQi8E54Gg/CXLy3jWl818avLs+578mvqk6d8536vu9UPRlRJ+tUpX3yrawn33wza15mZwSMgBEwAkbACBgBI2AEjEDrEZjX+hq6gkbACBgBI2AEjIARMAJGwAhkJv4WAiNgBIyAETACRsAIGAEj0AEETPw70MiuohEwAkbACBgBI2AEjIARMPG3DBgBI2AEjIARMAJGwAgYgQ4gYOLfgUZ2FY2AETACRsAIGAEjYASMgIm/ZcAIGAEjYASMgBEwAkbACHQAARP/DjSyq2gEjIARMAJGwAgYASNgBEz8LQNGwAgYASNgBIyAETACRqADCJj4d6CRXUUjYASMgBEwAkbACBgBI2DibxkwAkbACBgBI2AEjIARMAIdQMDEvwON7CoaASNgBIyAETACRsAIGAETf8uAETACRsAIGAEjYASMgBHoAAIm/h1oZFfRCBgBI2AEjIARMAJGwAiY+FsGjIARMAJGwAgYASNgBIxABxAw8e9AI7uKRsAIGAEjYASMgBEwAkbAxN8yYASMgBEwAkbACBgBI2AEOoCAiX8HGtlVNAJGwAgYASNgBIyAETACJv6WASNgBIyAETACRsAIGAEj0AEETPw70MiuohEwAkbACBgBI2AEjIARMPG3DBgBI2AEjIARMAJGwAgYgQ4gYOLfgUZ2FY2AETACRsAIGAEjYASMgIm/ZcAIGAEjYASMgBEwAkbACHQAARP/DjSyq2gEjIARMAJGwAgYASNgBEz8LQNGwAgYASNgBIyAETACRqADCJj4d6CRXUUjYASMgBEwAkbACBgBI2DibxkwAkbACBgBI2AEjIARMAIdQMDEvwON7CoaASNgBIyAETACRsAIGAETf8uAETACRsAIGAEjYASMgBHoAAIm/h1oZFfRCBgBI2AEjIARMAJGwAjMe+CBBzIfxsAyYBmwDFgGLAOWAcuAZcAy0G4ZMPH3wMcDP8uAZcAyYBmwDFgGLAOWgQ7IwLwPP/ww82EMLAOWAcuAZcAyYBmwDFgGLAPtlgETfw98PPCzDFgGLAOWAcuAZcAyYBnogAyY+HegkT16b/fo3e3r9rUMWAYsA5YBy4BloI4MmPib+HuEbxmwDFgGLAOWAcuAZcAy0AEZMPHvQCPXGQE6jDUFlgHLgGXAMmAZsAxYBtotAyb+Jv4e4VsGLAOWAcuAZcAyYBmwDHRABkz8O9DIHr23e/Tu9nX7WgYsA5YBy4BlwDJQRwZM/E38PcK3DFgGLAOWAcuAZcAyYBnogAyY+HegkeuMAB3GmgLLgGXAMmAZsAxYBiwD7ZYBE38Tf4/wLQOWAcuAZcAyYBmwDFgGOiADJv4daGSP3ts9enf7un0tA5YBy4BlwDJgGagjAyb+Jv4e4VsGLAOWAcuAZcAyYBmwDHRABkz8O9DIdUaADmNNgWXAMmAZsAxYBiwDloF2y4CJv4m/R/iWAcuAZcAyYBmwDFgGLAMdkAET/w40skfv7R69u33dvpYBy4BlwDJgGbAM1JEBE38Tf4/wLQOWAcuAZcAyYBmwDFgGOiADrST+L730UvbUU09lzz///EAhfvPNN7Nbb701W7hwYfbqq68ODF80miLe/fffnz355JMjxS9Kc5hrDz30UPbaa6/18n7nnXfystxxxx3Z+++/37t+ww035OUcJu007H333ZfdeeedGXmk9/SfPF9//fXS+wo3Tv+xxx7Lbrnllgx/2HTffffd7Lzzzssefvjh7IMPPhgYH3mhvSO2w+Y50+FPP/307NBDD81uuummwvqBwc9//vNs8eLFhffT8l5zzTXZPffckxEvvVf3P3GR3csvv7wW7nXTHTXcv//7v+f9xnTqVDdv6nzjjTdmL7zwwsj41c2r6XA8C/QJL774YmVdRu1fq8pPv4csXn311Rl9eRrWcv1hNpNyneI/yf+bkmveU/TFCxYsmCKvk4yXyz45sw2tJP5bbrllNm/evOxP//RPBz5Yd911Vx6W8JD/UYR31113zdNYe+21p8TnZfhv//ZvQx0vv/zylHTKynXbbbfleS+zzDLZhRdemMc766yzenWC7BOXFyN15DjyyCNHIq3PPfdcL40nnniitIz/+I//mIdbeeWVS8OU1eef//mfsx/+8IdDE/j58+fneW633XZD53nGGWf06nX77bdXxmdAA9bg+Ld/+7eVYYvqyKD00UcfrTziII4BbFX4qnZQ/tdff32vfv/6r/9aWGYGPpIPXniKW+RDVhX2H/7hHyrDFsXXNciv0rn22msL03nvvffyQSYDzTrHqKSdAa3KQp+gMjbhP/7447289t1332nlRVvQ3/3iF7+YVjrTqed3vvOdvD6LFi0qLQNyDL6/9Vu/NVYFycEHH5ynyzNZpIywXM+cXCNDBx10UE+2jznmmFJ5GCRvbZZrlC/qa8oUMYPw8f3JIdlzsa06T/xplJVWWil/ENdcc82ROqqddtopj19E/E877bTeQ66HfZB/0UUX1SoHBE0k9Ld/+7ezZ599No8HuVQeO+64Y+/a1ltv3bvOoKjOjEgU2meeeaYXv2p2Y+edd87DQeBj/EHnaH9VbupVRlKL0mGQQdxhiT/EUsSF+Aw8ig5mA8j3xBNP7JURwnXKKaeUHkVEJL4YVdfUjwTq93//93v5peH0v4qoU7/vf//7eRpF8iksNXACd9qh6JB2+thjj+2VibKiuS46GPAq/SKf2RWVbf311y8M+3d/93e9vFTfQf7bb79dmFZRGXQtKgDGRfzRtELy02O33Xbr1Qnc0vvxv55plTP1v/e97+Vp0W7M2MT7yPF666038oF8x/TKzvX8RLlNw15yySW9Oo/SPml6/Ed+fvd3fzdPlz6nKIzleqlia1xyXYQzA+6//uu/7rWxnlFmGovCD7rWdrn+kz/5kxyrUTnHIPx83wODKhnoFPHnRYF5Rnow5aaOCnKb3ud/lQlIHeLPi3mttdaqPFSGOsQfTS9kX3GYao8NvcEGG+T30LBRft1D809ZIP7MFqARO/DAA/tMcyCLDBI23njjvgPiqPz+4i/+ou8eYe+99948nz/7sz/Lw22zzTa9fJX/IB8irTzwzznnnFppjEr8meWJ+ZWd77777jlGIhpl4eL1opmbSPxph3gobiRQkfjHsJwr/N13312KUZz9KQsH+VRaVT7tygs+lqkqPPfic/PII49kaLjjoXYj7N///d/33aPsu+yyS62yxXK88cYbpXiUyV8TxF8KhVi2Uc7feuut0vpA7mOacQbmgAMO6LsXw9U9j3gdddRRU555nnvJImQm7TP+6Z/+KS/7fvvtl5eFQUJMczrn1113Xa9+6ntiepbrD7Mm5DpizDkmXLzbJFOQdg3ouYbyK40z6H/b5ToOhK31N0kf9DyM+36niD/EQp3TsH6V9roO8a9j9iJSOYj4n3vuub2XLfWQiU8Ujtix8PKF8PPi3myzzfLp9rT+rAdQfIhTer/Of2xtGWSICBx33HG9NJV2HR/zJAYsypP6DoonAjmMxh8tvsrKIOrHP/5xb/aHvBkccY0Dc6AtttiiVyYIDhpRxcfnfzyKCKiIP/HTOqkORcS/SCaETxmhJ32RzzL5hchLK0p6EXf+I5M6fvrTn+ZmYsqXF7xklmuQOtKKRyT+V111VQ8/pVHlgwemVQwY4vE3f/M3eToMQOJ1ncc8U4zL/jdBkIR9VR3r3CuyXY/1YNAf2+3oo4/OZevKK6/MZ8B4JtKDQbnyppzpff5vv/32fTIa5URxB/l77713nsZPfvKTPD9mIGLZp3O+6aab5mlSrjQdy/USMtWEXEesmdWKJJ9+BoUHs85RXpCnohnQmFZ63ma55j2pmTJr/U38U9lv+r+J/7d274NeYLwcY2NASHRg6038NdZYo3cNrTnhZeoDsTz88MMrD5WhiOSRFp0smnaFw4/lQvPCwiG05tGsJ4ZPzykX2hpeEKofL00GCekRB0577bXXlPvMQmBrrDwghZSv6Nhzzz17+Snf6JNOJDODFu2KNPOCiemUndN2mk6mvJi2EBYMNZOyySab9NJi8KR6bbvttr3rcYZi0PoA0p9J4o8sqMwMXIqwQPuuMNSFNSkazKSDE9pXYX/0ox/l6WGKovCDZnhE/GlXZlDKDs1W0aZFZd58883zcsT2KQrHAEDP6CA/tbsdFJ77RQO7WA7kHrx47uP1OucMfoX1IOJPetjQx0EYsyVV+USNal2NI2t30j6B/yrnRhttNOW+1hjpWUZWivoDrtF/VpU53ovmjMhtvMe55XrJ+6kJuRbWzBirr0QGeDdFWX3llVcymbRwH0XKoH5cactvs1yLG4BN3WdQuNj3YGE6MtAa4s9LA80Dh4gID5SusZBQxBXSQgdU51AcXkwR6JgH+aQHxJjw8eFOw5T9LyL+559/fl+9FJdyQVrjS1/3Up+OF9J60kknZSz4HLQLR6wv53Vs/Clnmm/Rf0hCmn76n3pBGFiMnN5L/w9L/GkflQtCE9NDU0r7YrPKIIh7//Iv/5K/5NAyR8IHuUSe0N7IrCGmlZ6L+FN/0omHNGdFGn9mPWJYzlX+Mo1/1OpCVNOyaGE46VAHacrjYIbnRvEefPDB3mCJc12P4UX0dC/6Iv4i9Dwb1BmcYzhs1SmTwqEdYyCtQ5pEdsbQNfkxHWYAhFFTftU6GZ5N8t1///1zDShkte6BDKrMkUzF+qXn9GcQMWTx6aef7sM0hqWdVba0X4vh6p5LcxnlNsZlcKi6VPk86zFe1fnJJ5/cSxOCGcNarqe+j6pwL7pXJdeQcc22KC4meeorY1uwUQEKBIXDP+SQQ4bS/rdVrjHhE49gNjXi5nMT+yZloDXEXxql2MHE81NPPbVH/DHdEKh0KmjH0oVxuo+5CumkL0g9sDGPeI75D2mI+EPMIZhVh+IXEf9I4jB1kHkR5YraL9JAk01nCzGSPTb40GGrXvIxzyE8g4HYcTMty8KseGBCoDJCZuI9BhKkCaElDOWCCKeHBij77LPPlLKoTNGPO9zE6+n5sMQfMkUZwBHCQrniAYGK/zlXm6fXY9h0rUVaThF/4VjkRwKl9isKp2tlxJ9yEqZsKlkDHMKwc5DKCtEWuZYcM0jETIO00nUXhEezBz4yM1Fa0Y/EH/z1zCLPMVxK/FUP1bfKj/bw1Kkq7DjuFT1TqgvPwDjyqEv8yZeFwey+pTIU+fRBKheEjTDIQtHgMI3PTEF87jlXO0Je4j2UAMSPJJ1raZ9Af0x5yszR0jLwX9hCQNP7luvpE/8iuaYvxnRLsoNP34dSJG2D9D99hvpP4tGvXXrppT1lQxo+/d9WudagCGzoR9N6+78HAE3IQGuI/wUXXJCxsI1DJhwQBl1j5xNp7yPx164haK2KAC4j/uxYgl08hx5eNOq6po5TxF/ay6I8dE0Ep4j4Q5qoFwvWCA/xpgPlBch/Xsjsq57aUWIyow6XFzREX/nhS/NNmLjbBlq02MEPOsf+PRItdr+J+ehcdaTT17Vx+MMS/5hnHNAMqueg+2UDSOWn7Qer0mF9hsJLlqvC0+4KL59dlxTnsMMOm3Jf4diph0WS+i8fjXHc05/nR+kV7SLEwGAQQSUMWEM8I+bIHnKsg//MQGgGRTKj/Kv8SPypS3xO9WxGX4tOY5p6XhgYxrBF5+nzJvzwRU5JjzoMc8TyDMI15jnoHLlQ/cgD4o/JFOeYWGnWpywd1SmWr+yc+jIToxkB0i9KV2tnNAgpChOv0abKUwqHeJ9zy/WSxdTCCV/tPqxc04YozjTAi2li6oUZYZ2j6Fljxo/ZTPJI23CY/5Mq13G2tEyBMwwODuuBQh0ZaA3xj5VlgSWdE0Q8Xj/++OPzzi+ameilxAAghtU5JAXyVfbSIpy070XbJYr4Ux60I1WHOtQi4s8LOXaOKfFXeYv8aDZAHthIUy8GE+rMIyakgSkJA5q6B+mxdajqwFQxgwzagPUGpAnx033MhlRWBhmYe1Cu9JAmmrJC7ssOpUt9ysKQtvKMvkgo7cysxyiH8h9E/GO+ReesEwAz5E2DR4UDP9qDF3gR2Vc4/LhbER8ci/eKzsGAdKsO1bEqDPcYhBbloWuYfkjulGbqxz3ARfzLzIggeYqfEn/lWeRHkxfWGygNPVuQkkFEuChdXRNJngkbf+VZ5aNR1I5bqitkO24vyk5AVWmwNqdun4BSgb5MeXHOc08ZkHG1lUzc2GGsKm/di8qaQe1juZ6+XMfd3GhL+slou6/2reuj7U9nMqMyTu1c159kucacVbiNuhlGXZwczoMCyUCniL8qLT/aAEOOdX1Yv4r4Q4j1YNf1i4h/WiaRE8hFeq/oP1OlrIMoKwO7/hTFq3stknp14ieccEKeH9pb0tEHmyB9Md24IDgtH/a6hEWjlN4b9n/R7h+kLeJPenFXnmHOVZbpEn8IEWkVkU5ecJhDcJ8Xb9XUsGZyCBtNuCLu8TwuhlRdRvXRDsa04zmkP770mT2AuHNg+0ueDB6ijXpK/JndY2CkD+6NSvy18xWDcQZcqi/mWppp0axDrEPdcxF/iCo7SA1zoAVVeco0/qyzALP0oM8pKqP6KaWLD/FHoRD7hkEDt6K0y67JZIw2hegzYFX+kPZopqhvZZSlxXXSIC3SoN5VYblnuZ6+XDM7C948h5gh0u/w7DGASw+1N+F5ztP7/Ec+SQOzL/UFcVDfNbmWPMdNIwbJte+bxE9HBjpN/EVM6aTq2LeWAa0XatT4S5vFyw0iQR4caK7Z7qzqqEPU0CLSYYhUl5UtXqcsdNho7NThQsLLNJLYdGIqxQebqg7IUSTPmrIUkdMWfpoR0H+VDZvkSLLZclR4ifhjZoG2seyQBpmXU1mYMvOjWHblO6pfRvzBHTJedWimirwh/kVhIbwqGyYaMUw0zdGuTukgS5inPgM3bYdZ5MdZIwhzURhdSxdbKi+0vZI71QH7fq5HUyLsxBUHPyX+1Jn4aKq5Pwrxx0RH5J72T7c9pL3Ig7yLvscQy1d2LuKvuo7qlxH/Mrkt6hNk5kgZkCERNL46Tvlpf+FMGL5kXFYvyF9Vf6B7cTClZ0+7zNB3kb5mBPg/SHtP+Lh5QBwclpXVct3/Aa9R5Ro7/mgKWoZ3NPeMO8WVhWcAkH7or2tyLauDso8YlmHn6yb/o8pAJ4g/ZJsXDCQoHvFFHK+XnZdtFRmJPwSGBZAQZhqFjk1aWl5uaPLqHKktftrAdJa8WKdzsF6gykaZhc8Ro7Jz6gfpZK/uuEMLBJw4WoCnDm6Qpg6io7xE/NP6p//HYeMPKWXLylEOlbeM+KPpUpim/PilY237CrlNsRrlfyTmnI+SRjQP0IJOYcGzwTlby6Zpi5BKKzgO4i/THp51tnBNiT9acJHj1AwuLV/ZfxF/ZhTKzM/KrlMuYVNG/BmAMYjWoYFMSvzjuhLqhBmf2kLEnzpEBQVpSXmR1o/6qGxVPuWmrXiupMygLyYOaZCuvslQtgA9zZtwxI9KljTMMP8t1+MlT8MS/6K26ppcix/gF+Hha+OVUeP5YdZq4s/LU4RQ5LzqRTXonkxYUsEpSlvEH+3XoHSL7mPykeYT/9d9+RalHa/FdQMxfc7R+KOFRgNfdUAsFFcveP7r+wb4/GchEyRFBE5xUn+2iD+4sNBwlEOYlhF/7Df5IFJ6MJhUXHwIVxpGMsx9ztP7+h9NJWQyVPUyufnmm/OZGjRsg45YTjTtg8LrfhzAsrMHddDCbkiCyLUwYHepVB7GTfyvvfbaHuYya0mJP2Xga7AqF2t10nIN+i/iXzajVhWfZ0R5lxH/ND7rIogj4g9xZ12L0qHPwNSKeEXEn+to5hW+bLEt5jNV/YHuofQgzdgnYKZF+hqQIh88b6y/SuuT/o/fkSj6aKHCW67n9dbZNCHXwrnIHwfxT9Ntu1zzTuSZYICc1t3/TfqbkIFWEX9eNGiI9VLTCwwf0oHWX1vJRcKRbjG3YMGC3suPnQgURzvqqCF4oUH0IjEjL/6jScJkQWWgTEyxDzrKtHbKU/5MEH/lNarP1CX1T7drHJTebBJ/tdeofhnxL6ozMhJlFcJWZCaDhjYusNtjjz1KtbHKRzbbyLmupX40LRq1voPipbNkcVE3z4c0/TEdiCO23yrvOIk/i8717PAsKo8igsS9aCOePv+KW+aL+EOgaethjrgpwCjEn4XhsV/CdIydT1RWyV3U+HMPcxvkUO0RZ5EUdzq+zCuZ/Rs2Ha1rQqFTNVNpuR6/XNMHsRtQmRmlrsdtpxnQ6XqVH00Ui2QiEv82yjWznDxv9BdF9fc1k/9xy0AriD8LxjAxidPjenFBPlNzEV6kClu0mw82rIpfZPsPeUHLqjQUlv8MMBgQ8ELVdUhb1HqhZech5+WH9jE2KrtqEG/Q1LfIS5E2kZc3HWQRiSQvvlugspVp/EmXOgxzpPs5i7BB7nhxxHpWnc8W8ac9hlmAGcMKzzrEny8wR5tr4rLuoorMID/adpHwaIfQepbZ3ZIe4WiDMqwh3qPMbsQ4GtyRF+ZF8R7n8ZsElAN5Q8srkw3VBdM1md9wjWeJKX/iSI40U6RdaIa18cfeWzvIIJPSfpNHGfEHXxFo4mBaV4Znel3En/pM5xiF+LPAWnnS/2DOFMtXRvwJE038wEvxWJw/TH9AWGb5FB8/knK+LB3vVZ2j1JEc7LzzzpXxLNdLZnXAc1xyHTX5kqtx+fFjgEUyEIl/2+Sa+qqfKDJzLMLD1zwQmK4MtIL4Q4CKOqEyc5m4dy4dWgqipt40ZZ7eR3NXlJ/sTtEkxvuYAkWtRtTmpeRc9stlZkUqSxXxj1uEpQuniF+H+EMsYx3qnDMYUvlYEBnj8DLWvUH+bBF/yCYayVEO1bWM+EPcMStJbdshM6z5qLOwEdyYnRIBIk/IKLtBYN4QcdVCasLE6+M+Z/CjumtRd1EetCmELR0ss94jDnjYlz3Wj4Gw/ov4a1CjLzrXWdyLPOoFS3mxNY/lLCNIhGGgr+cNvIueqZiWzlkbQLzpHmW29spHfiRIXGNQhpld0eC+ivgTl1lPzMRi/xjNvdTmg3yZ9KiMsQ209kf3qnwGi8qrauFxVRrD3LNc95MrZsp47gYdcbaIwf2g8NwftEi7zXKNTKpvGeZ5GEaWHbZflo1HS2z8IdW8kNH684LAVICXRBHxR3OkRaZF5BptrF4wRdp0hAaSBoHhxc7Hj2TjL+KvHVUiyZNmHxIRyU9KiDELIH9e2lUCqs6iqIxx54uiL9/WIf6Ui0FIPOKLn5mSeI9z2W5TbgiccMTnhV9Vn3hvtoh/LO+o50XEH6IY21xpY4ZDW6HZjge25eDBYCFe1zn7nUcCpfSiPPPVZl2Pmu2Is855JkY94iCTxaExHaWPzzMjbTvlglQyYCdOevCsMHiG8GOekhJ/rV/Qvu+DiD+kJZr2pc8c5asi/txnVpE+hrLjp7Nbsa51zmkTNOKRWNeJVxUmJUhVYQcR/6K4yF/6zPNfcobCJL0f9yZngKew8mmborzSaxBE4lSZrqVxoiwOe265Ho0sxZkBnqm0TcpmKNNw8X+b5RqLAj0LmHDGevt8NBk0boNxa4XGP21oTScXEX+ml/Wg4aMtjRoHafu5x2KyNG39j1rKlPgzEOGLhrxsRPggMxA6EfZYBqb49LEmkWtedMqryFc6RcSfDoT0ybsobh3ir3isi2AwhdaRbwGo3GzByf772ECn2lPiRrMNxWErP6Vb5ZcR/yrNp8wxUpvyqnx0j61CtRgVXwSPgVy8Hs/Rzqhe8TpmEkpXPgReg035ilvkI0/EjXucF4XTNckCWlrlGQdeDC50vchXOuP2U4LNh8TYFlTPS1V+J598cm8mICX+qq9s7quIPzKn8OSHvDIzASmJR9w3n/N4j3PixC1NSSuS2ogr5IdF/ZqhwDzopz/9ab7QFlkgrAZBGtzE+Dpnv3OeYUxsdK3Kb5ogKW9ml5i9AneuqX1YC4U5FRsbFGGT4geGg3b4In3SlKykpkMqU5GvOOP2uyrXwpgZb2aSkGldkz+I+LP2iFkgTGIVZ5DfVrmm3nw/R/KpjQYG4eH7g4mtMarGqHPEH4GAMEjjpYcOTTs7iug/C5nqCo+IjDT+MZ6IP+YjIpSQVF6a8eNe0iJiF00ZGLzEdNJzkZki4o82lTTKtiGsS/wZjAgPiH5K/LVPfzqdT1jF23vvvXsfBxo0mFEdi4g/9ayKPx3ir3zlq520M5OuRx9ts+oYr5ed87JEi4imV/EYZMZDslJE/LGfj2G1XSdpQYzQmseBEefKhwV3ZeXiusKN2y97uWtQSH1pt3ioDNr3nfKJWEKk4047WqxaRvzTHbXQsE+nvuSt7ShVTp5XBvgRX83aUT+u80JXeK0Zwq5ZcsZgUCQ6piOZJpwUA/F+ej5TBEmDV+2so/aB+GuffuobF3Iz46P6oJA56KCDckzoxzQYSuuj/1oQTJqpaaTCFPnCfNx+V+VaGDPwEaapMqeK+EcT2WEGcG2Va/CMM2b048LYfjVxNT7Tw6eTxF9Cw9ZyeompI8PnZTTMYtQ6xB9tF4MNNB7R/AYyqJ186DQh65RBW2CqrKlfRvyjVq3sC6p1ib9ezlp0lBJ/ZjaEWzR9EB7cozODsClcHfvcSPzRLoIF8UWkUiz4L1JRV+M/E/vqYxqRljUS//SeCHER8RdhVBzkU5iWvTC0sw8yrnhFPvHjwXOBljpeKzsnnMrBLEMMlxJi5a16FrWVZtwi8YckMPCD/LI7CPmhMQcTZtKQFzTMHLJnZzGriDXhI9FQeYf1tYaBmQulDcZxfQbneja1cUAR8QcLZppUBuSRWUTWIqCAoK58EE350HcMIlTkKisAACAASURBVMjMPJFe2dok4Y8vxYcGQ/Fe1bmeZcqlgWYk/sSVGRoL2JVWxAAtJwRedYtto/DR1+wIJpzx+qDzKIucW66LF5nXkeuINe0uJUU0LyRMFfFndh35pN2Heb+2Va7BSyaIw5jCxrbw+fQIcFfx6zTxp9F5AaXkn44JbXx8oVcJiIjuII0/JBbNLJqPeED+ZRagdQFoAqry5GNZdBpx1xQIkF7CdLCYipAeL06085jmkCZl0PZqZXUEF3XumD4QLyX+XNMMhV4AcZaAPFQHLfqifEXaTYXDj8RfZaA+DEDKyOSwxF9kgnSbOmab+LM3uupWd0Gq1qdAXqtM3dRedRdBKjz+sMRfcRk0SR4YCMjWn20eFSb6DB54ljFVi9cZFCDf8RChBS+2sIz3dK5BBWnx/CLTqSzHdGSKFElvOoDTzBHlZB1BHEgxoxF3GGNr4ViPeI45EGmovQeZB4n4MzsR0xl0Th9HHnGLXvU5aPyJr6/DUh6eZZ5ZKTeijf6BBx7YK2+6OF3loK9SnRhY6vqwvuV6enKd4q3d52ibOBtVRvyj2WIcEKbppv/bKtfUM86AxG/hpBj4v8n9uGWgs8Sfl/gZZ5zR087p5RJ9Xo68eAaBXof4x3TT8zhgkAbgsMMOG5hvLBekXBpe0od0R/tB5QnhZeGnzCRiGvFcWnYIIC9v7hURfwil0kZDqfJzLZKiSIjQblZpL+PgQWkzECoj/ZRtWOIPiQSDeGDKIfKEBibeS88xA1LZ0nv6X6TVmkmNf9xZSdrn2MZF5yxOVr0YEGO2VRRO12aK+EMc4mCNckmDSHkhdqlM8YxHUqIyF/nY8avenBeFqXNNA1yeG8lrFfEnTUwnVE4NBCiLBhpa2Mq1oq0P4xaHqgM+64zKyszMCoR9GMKhj2+RtrTEpJ8SfxZwaoAGcdPXeYkXF78zoNLzRnhhEMusNU/IYpmSIoYvO7dcz8vXrZThM+z1ONsb31VlxF9ae2SAPrBOfm2Wa+qvtYg8AzwLdTBxGA8CxiEDrST+0pqni3t5cbCnPxqHVMvPy4spfKbfRSLppDjYpjKa56TAa3/1SOAVBltstF1Vh0weoqYbrZnSKPPRyKJli3upU17IhxYfM5uARrRoe052TtFMQ8wjdt7MfOhevB4JIQMoBkjS6lGGItLBdo7CFKKmdFM/hiM8hCMNk/5XmwnL9P6g/2gcRWDIU7swlcWLBK0sTNH1SPzTbUM1cCsy9eHlGsPHFylmDEV5cU0f1OHlItOMsrC6HrfHZb1ISqgVDj9qrSIZjGHSc2n8wZnnMB6Sj2jqg2ypfbkfZSvayPKV2lHJ4TiIfzSzi4tbI/EvWvwtfCDM6rsY5Og6z5oIctqnxXIzWKV/Y2ZMONL/kD+7lVW1o/JK/RhHz0f67Mq0SRp/0gALZi/ioEWzgjEPZsVUVsofZ0ToD1XvOouAY7pF55br0Qe0vEeYkYqHZtx4t+g6Az21J/Kg65IdlD66Fn29r9RubZZr6hh3D8SkVvW2b2I/EzLQGuLPiwEtll6cdD7aFxdCwstKWih1TPhcg1RFYo+mTWYCCkvHFU0GIF6Y28T8Btnlpw2KyQEvdRbBMeCQfT95prbwaMPQnFFHZiL0QlT55LOjT9qJKl9w4H4alxduuvMLZJuBAeWD/LNVJxgqH7TJShcyo46d+9pfXfflg2v8cBNEVveiL1ILIUxxiOHiuYjhMMQfosU3FWT2oLoxjR3TLjofB/FXfqlfRPzTMPF/FfGPGnkWyRXVpeiaFtSRj3YLggSinWZQyksdQhllloFhUVrptUj8Yz3iOc8fMh93T+J+0cebMPtRXGGX5jnofyQanA8KX3RfhBsiHAdZmNipfPQ3DKaKjvhcpjM02MGTRrTJp8+SAoN0pUmlnWSCp3zlkwdhOSgnB88uvq7HcvBcqa7M7vH8Qlow/4O0R3OyaF4EaY99I8qJsq0co8kPfY4GbyyiVbnjzmsqzyi+5Xp4YhVJqtpj3D6zxWrPtss19dRaJZ41a/uHl0nJiv3RsGsN8U+1xHRMehGx8DTtqHhJM5UYNUypEEE8IlGNNuvRxlFpD2uDGom00sAvmjngZc7LOYbTOeHRMFYRwFg3OlbIdUyvjDCl25+SJzMKMT11YtwbtFAPkw2RFUw1Yjo6Z1DBLAphdW2QPwrxp+0jBpQrmiJU5TkO4s9Ubzw0Y6K2iHaxEOAYVt+qAPNB7a7tXYd9yTCIglTLZAUZlMylftRQV+HGPRF/iCEDu3ho1gPiH7WHlL1qFgzMVKZRSOI4iD/tRRuxeD7FYJjF5NQVc7GYBm2QDkjilq1o2GN4ztmBiP6L9ITNsH6q3SfdMjmIfWk0rUFWiZOWT/8h+hB+yoYcKazMpor6Q8UdxbdcD0cWeA8OKzfDho/Ev+1yHTcesLZ/OFkc5Xl3nKkYt4b4M8UNoeBAgx9tYXmxoGGDTKKp5MGrKwzEZU/xdNs+0sc+lgN7bzrHumkqHMQG4gnhhLjygkMjFV+gCovPVDX1Y5tC4qLN1Usyhqt7zswAJIWZi7I80VxCxjggEZgNpZpdNHncj2ZBVWXAPAQTgOmUPU0fjSI4MqBJ71X9h6BAqlnQKU1jVXjdA3/yQ650rY7PugfITRFRZvaB65Bt0kJOFTZdL0C76F6cfSkqA+mgzeVlPIxNd1FafCQPWdXBmg5kkvURReGLrjG7xPPEjEF6n1kg7mmXKAaHyNygOkKMIalFpmtpHkX/MWWgTtRnlGe5KM30GqYNDF7KDhbyMqtY9iym6fEfrfug7VqRa2yymXmgnwQj5B2MWQeEWRsDh6KjzDSJ2U31C5hCpts6UjYGnNyr81xRZ55hYY8WlLagTYoGNUVYTOea5XoqORCePFsMaps8pFxQnm2Va+rH809fPKwiRtjYL5dVY1MPm9YQfzd4vQY3TsbJMmAZsAxYBiwDlgHLQDdlwMT/w242vB94t7tlwDJgGbAMWAYsA5aBbsmAib+J/xRzC3cC3eoE3N5ub8uAZcAyYBmwDHRDBkz8TfxN/C0DlgHLgGXAMmAZsAxYBjogAyb+HWhkj+K7MYp3O7udLQOWAcuAZcAyYBmokgETfxN/j/AtA5YBy4BlwDJgGbAMWAY6IAMm/h1o5KqRn+9ZM2AZsAxYBiwDlgHLgGWgGzJg4m/i7xG+ZcAyYBmwDFgGLAOWActAB2TAxL8DjexRfDdG8W5nt7NlwDJgGbAMWAYsA1UyYOJv4u8RvmXAMmAZsAxYBiwDlgHLQAdkwMS/A41cNfLzPWsGLAOWAcuAZcAyYBmwDHRDBkz8Tfw9wrcMWAYsA5YBy4BlwDJgGeiADJj4d6CRPYrvxije7ex2tgxYBiwDlgHLgGWgSgZM/E38PcK3DFgGLAOWAcuAZcAyYBnogAyY+HegkatGfr5nzYBlwDJgGbAMWAYsA5aBbsiAib+Jv0f4lgHLgGXAMmAZsAxYBiwDHZABE/8ONLJH8d0Yxbud3c6WAcuAZcAyYBmwDFTJwLwHHngg82EMLAOWAcuAZcAyYBmwDFgGLAPtlgETfw98PPCzDFgGLAOWAcuAZcAyYBnogAzMy+yMQAcQkAajA1V1FY2AETACRsAIGAEjUIiAiX8hLL7YNgRM/NvWoq6PETACRsAIGAEjMCwCJv7DIubwE4mAif9ENpsLbQSMgBEwAkbACIwRARP/MYLppOYuAib+c7dtXDIjYASMgBEwAkZgZhAw8Z8ZnJ3LLCNg4j/LDeDsjYARMAJGwAgYgVlHwMR/1pvABZgJBEz8ZwJl52EEjIARMAJGwAjMZQRM/Ody67hsY0PAxH9sUDohI2AEjIARMAJGYEIRMPGf0IZzsYdDwMR/OLwc2ggYASNgBIyAEWgfAib+7WtT16gAgaaIv9K13+4vHbp93b6WgfbIQMErwpeMQGcQMPHvTFN3u6J6aY8bBaVrvz2kwG3ptrQMtFsGxv0ecHpGYJIQMPGfpNZyWUdGQC/ykRMoidhUuiXZ+bIRMAJGwAiMiID76xGBc7RWIWDi36rmdGXKEGiqw28q3bJ6+LoRMAJGwAiMhoD769Fwc6x2IWDi3672dG1KEGiqw28q3ZJq+LIRMAJGwAiMiID76xGBc7RWIWDi36rmdGXKEGiqw28q3bJ6+LoRMAJGwAiMhoD769Fwc6x2IWDi3672dG1KEGiqw28q3ZJq+LIRMAJGwAiMiID76xGBc7RWIWDi36rmdGXKEGiqw28q3bJ6+LoRMAJGwAiMhoD769Fwc6x2IWDi3672dG1KEGiqw28q3ZJq+LIRMAJGwAiMiID76xGBc7RWIWDi31BzfvbZZw2l7GRHQaCpDr+pdEepo+MYASNgBIxAOQJF/fVdd92V7b///tM6nn766fJMfccIzDEETPyHbJBf/vKX2SqrrJJtueWW2TvvvJN99dVX2WqrrZYtv/zy2SOPPJKndvbZZ2fz5s3LFixYkH3zzTdD5bD22mtnyy23XPb5558XxjvvvPOy9ddfP7v77rsL7w978dlnn8023njjbKONNspefPHFYaP3wr/++uvZiiuumC2zzDLZJ5980rs+V06KOvxxlK2pdMdRNqdhBIyAETACSxEo6q8h/byvp3Ncc801SzPxmRGY4wiY+A/RQGjxV1999byDmD9/fiat/gYbbJBf22+//fLUrr322pwA05GsscYa2dtvv107FwYQxFPaaUQIOvevu+669NbQ/xk8QNTV4ZE3BH5Ut9Zaa+VpMfBJHZ0r6dc5GIyM2xV1+OPIo6l0x1E2p2EEjIARMAJLESjqr7m2aNGiaR0vvfTS0kx8ZgTmOAIm/jUb6Isvvsg17ZDkZZddNnvjjTd6Ma+88sqc8EJq5d56661s3XXXzbX3l19+eXbCCSdkZ511lm7n/lZbbZUxaIiHSPh6663Xd53BBI48CPP888/3pTXsH8qkvCDsq666av7/u9/9bvbCCy/USo7Bx6677to7NCiijPH6qaeemm2zzTa9/JRvmV83/1qF/DZQUYc/TPyysKOky8DooIMOKp3VIa9HH300U9pFvmaXisp1//3357J21FFHZTfccEP2wQcfFAXru7Z48eLs/PPPzw4//PDssssuy1599dW++0V/mO26/vrrs5NPPjk76aSTsnvuuaeyTkpjpsqn/OwbASNgBEBAfanRMAJdRsDEv0brQ1QgxCKqDz/8cF8stPPSnB922GHZbrvtlmv6dU3xVlhhhb54ul7Hx2zo/fff75UBDcNrr7025ejLoOQPgxDluffee2dff/119umnn+Zl5jrlvvHGG0tiL7184IEH9tJRekX+SiuttDTSt2cQUsJuuummU+41caGpDn/YdDHVEka0Z5GDUCtMlZ/GJT1MxYripINOxf31r3+d7bHHHoVxMGejLEWOgQfynOaF7Nx3331FUXL5nanyFRbAF42AEeg0AsP2150Gy5VvLQIm/hVN+6tf/Srba6+9+sgN2v6PPvoou+KKK7KDDz4418pLC5+SIP6vvPLK2dZbb51rRW+77ba+3Jg1wLQmHtj3Ew+td7wOMSd+UR7xWpUmmIECRFvhL7nkkr7yUN9IzBgUVNnri/hDZhkcMaBgZuKJJ57oHeRVRPzREnMPrfRMuKY6/GHSZRGZsMcvI/5PPfVUX7gYJ55H3LTWRPdpxx122KGPnJ9yyikxSn4e7Vtpp5133rk3+0NazEaljtkAngPlhUwxSIgDXbT/0c1k+WK+PjcCRsAICIFh+mvFsW8E2oaAiX9Fi2677bY9coOtPkQHwvPYY4/1rov8RO0ni2WxU0eTLocWFFIcr6FthVjHQ4OId999t3cd0o9jNoH8mH3AjCgeKsdzzz2nLHs+6WNaojAMLsoGCJTvmGOO6Qt71VVX9dKKJyL+d955Z3bcccflcTbffPMYJL8GoYT4RfMfrlEezIzidQYNTbimOvw66bJQ+4ADDuhhqnYoI/4XX3xxLywmY5jqpAeDz+hinIULF/ZuMZhbZ5118vQg5pIlArz88su9fGi3qN0/5JBDevfSheTbb799L72HHnqolxeLwyW/a665Zu86JzNZvr6M/ccIGAEj8C0Cdfprg2UE2o6AiX9FC19wwQW5jT627JA0CBvEHyLHTACaboiPyBQr+0XqWCwUncjSEUcc0buM5lThq3zyZI2BtKxo16ODrEPqOOIuQlw/55xzevHIgzC33HJL9vjjj1ce0SSFeMxcMACI6VNfBjlod0mXcOxwtO+++/YOrqFVxhyK80GH1jLE+o3jvKkOf1C6DLCimVisfxnxZ6aFcEUzJWVYsNMUcVJzMsJjFqZ8o1zGwQizQdExKBWJj+ZYH3/8cS8tZDp1PDPK65lnnundnqny9TL0iREwAkYgQSD212zBiZJrnEcTG1MkVfBfIzBtBEz8KyCErIrUR+JfESU78sgje8Rnww03zBdKohEXMY4mEGj1WcQ76Nhxxx3zQQaECjIGKUPbvtlmm2Vffvllrr3nXtSyQtAh6yJhDBpEvnStjg9pVdkJT5qpYzejsrQ22WSTPLiIP1t+QkTTQ3bmbSP+caaFBc6XXnppD6sy4q/dkZhxquOELW1QZjqlxdtRRrQYm/yKnGZ0SFezAbfffnuv/OlMAGkwEyFZ4FnAzWT5iurha0bACBgBEIjEn80M1FeNyy/a0c7IG4G5hoCJf80WqUv8SQ5yJG1p7FAgvVFjXjPrnOhLaywypfQZBJx++ul5B4ZmPTpmF8gfEyE0tbfeemtui409djxURsw94nXOqQumQpjyMAA47bTTYhb52gXFp1PFJIXtS1Xem2++OQ8v8gcBxTHjgAkKayVwGjC1kfhjby+SzC44wquM+GughU0+A4U999wzYwco1lCAceqYdVKawjsNo4EVA0A5xYHgF7k4gyXt/YknntjLq+xbEzLj0kzBTJavqB6+ZgSMgBEAgUj8n3zyybxPpV+Nx+677573cZjExuusf6LPTK/HMJgB2xmBuY6AiX/NFoLksEiXh7+OgyyzeBazDbSsu+yyS67lTuM++OCD+YJbSFLRgVb/3nvvzTscSBvp4iCHHDi06nRIqS0+Wto6WzmKADJ7UOUg7ww05LRAV/EZ2LBbj0xVosYa/Agn4g/B5//xxx+fJ9dW4i9NuTAbRPzrmH8xA6SZKNLVDkngme44pXw1CCQMJmDE55yDdixycTHyHXfckQeJsztFcbiGvJMuMwq4mSxfWZl83QgYASMQiX8ZGihP6L/SjQ0wDeI6M+d2RmCSETDxr9l6kCBsmkc5sKUuc1dffXXemdChlB0s2NXiYKVDWDQPOGlYWaw5ilO+g4h/TBtCS/7EZZ/+SAi5xiCFrxzLpRr/rhB/1V/+IOLPehK1Bz5ty+JnzIQ0E8B1/svFbzKUycAZZ5zRS5fZHxYNK58LL7xQSfX5aMQUhnLjdtppp/waM05ljnUfxJNZ2EyWr6xMvm4EjIARqEP8WRdH/4XmPzoT/4iGzycZARP/mq2H7Z5I0LC+NPNFWbHrStF+/PFaqjUmDmXAnAaH+VDZFCNmN3RYVYfqw0ejqsJBFqOjE2WhMA4N8vrrr9+HEVp8lb2rGv+IF+eDiD+mVGoPyHp077zzTt86DQajOGaWFKfsK9HRnhUTI7aKVRw+2FXk2KVHYRig4rRIvWgRsdLALIl4zADhZrJ8KoN9I2AEjECKQB3ir3VZ6fbHJv4pmv4/qQiY+NdsORF/FuJir13nEOEpI/6kgXlOnSMuCsacQ4Qs3Y0lrQ477CjsdH3sxFOH2QimHNrOFE0/X3HFJz+0vtjzpxp/2Y+33dQnxWsQ8Sc8g6UyAq+XD9jKNj+a0pR99ZiXmNqfQVg09WEHpyLHQFBxtHZAMzuabSqKxxQ58WTWNZPlKyqPrxkBI2AEQKAO8ZepIu+o6NT32tQnouLzSUTAxL9mq4n4b7fddlNisHgTogtRig5SDgEqI/7D7LLDnv1ycatNtBNVDk3voF2DRO7Ioyps3LEArTFbmorgkwa251pTwI5FIoDc0/SpyKDwVJpttfFP26YO8U/jpP+1sJsZFlz8rkTcVz/Gi/vy67pMhxioFbm4gw8vTBxmXZKXojhc025BLN7GzWT5ysrk60bACBiBQcR/8eLFvf6NGdboqog/s/DEtTMCk4CAiX/NVhJRTYk/i11FoLCdjm4Q8WdGgIWV8VBa7J4Sr9900029pLH5FvmCeLPHf11XtKuQ0kpt/On4ytJGY0zelBefrxhjtx8PNCZ8PZa9/V955ZW8zCL+mk5FG4wz8a/bgllvm1YRa9pJbXjjjTcWJqQdKaJtvnZeKluDwo5LSpf2w1155ZW9a8ziFDmlq3UIM1m+ovL4mhEwAkYABAYRf33bhB3tUldF/PleC31lyg/SNPzfCMwFBEz8a7ZCGfF//vnn8wde9vYxuUHEn7DvvfderimHMOOkQYegsyc7e6xHQg7Z0qJaDRL4KuogR6eFJjbu4644IncxH+5BLMlDZh4KL5+PlWibU6WR+ltssUUePDX1YQcjwrKAFGfivwRVFsbSvsy8FDlMq4SxTK+QFV1jR6UiJ1MsbbFJGGZ4iKdFuGk82fMjk3LsQqW8tOBX9/Al84TRx8JmsnyxLD43AkbACEQEqoh/NElMP5JJGlXEn7Vu9Hn0mXZGYK4jYOJfs4XKiD9aeR74Ig2BSBDkuczJ9povnuIi8UdjStqR2Cs8WnTWCHBfWvSyPLgeCXraqZEGRyT+kHpdZ3BS5mQrjib53HPP7R0i8iL+pA0Oa6yxRp99OfFx2Ppzn4+dNeGqOvzp5DdsuoNMfdgCVbgjP6lbuHBh774W3BIGMyviIT8MDqKLZB2TKzkW9Sov7dOve6wDoD24z/cd5JjhkkY/DiJ0nz2tlWb8iuVMlU/lsG8EjIARSBEo668j6Y9mtTF+FfHn3Ue/V/YBxZiOz43AbCNg4l+zBUT8ITByb7zxRo8cQaIgYhdddFH+9VLCQLYhxNrdRPHkQ9AgUZA1ke5I/GUbLY2szGvoYLSbjhYiLViwQMmW+jL30Nd0FVBETWXgusyJMNWpciL+6YInDRxE/GMaDGTIk28U8Ll0CCQ2kk26sg5/unkOm+4g4i/NEfgwoIvkn20xRcbnz5/f900F4U082lcmWiz21ZoAZCua58QtWZFDdvrB0aaaDSA9prGj00uOe1Hu4stT6w8UbybLpzztGwEjYAQiAml/Tf+q9yL9Gdsnpya7iq8+jH5Uu9Vxj/6S2XHiRyWd4tk3AnMNARP/mi0CMX3zzTd7BJVdVzDD4WGHoL300kv5Of85WNhKJ1DWiZCtFkpizy8XiT/X0JCTHvv4Q8KVn8JL68/1MvtuhZVZEmG1CJd7/OcQ8f/oo496BDPVBCst+cMSfwYzIq+QYAY15M3AoWpmQfmN6qcd/qjppPGGTXcQ8Sd9fWVX7QJGMu/iGkS+qF2kVVc8Bpw6x+cbAanTIEzh0jjsCpU6ZgP07QjiIbMaXOg/z0PqZqp8ab7+bwSMgBEAAfXXvM/5qKb6PXxm7ave1yjq9H7mHUYfyKH3GWmg7LMzAnMdARP/IVqITgFTFDqM+LCzvSYaAGzhMdWI9+gM0J7zEa7oSItwHBBtOXUsWoTLV3svvfTS3NxCnZT2b1cc2WKTFloJOdLlfzy0k9Cxxx7bu650n3jiifyavvIKCYxxOYf0RSfiTxrsbqSDwRDXosafBcqqHxoS6kgZNbghv6Y6TnX4sezjOB823agVj4OvWBZwwfRLWKl98FkDUBaPNDA9S+UP+34GHGXutttu6yPu5EMamO3ELzXH+LS79uuP5WMGiinxMjdT5SvL39eNgBHoLgLqryHxzJrSd6FYSbfuLEOIjx1GpYf6Pt5hbMttZwQmAQET/4pWwkwCswkWxUaNph52rqdbeJIcZhZoV6O5BHH4j9ZdDg39mWeemUG88EW4CSvCRVobbrhhTzMRd/dROmjqsfknHiRPA4n40SaVebp+tBEn/0j8i9KG+LPNGQMC3aeTjOQV8xPdZ2BCmuN26vAnJV3KiQwwFc1gEzKd2u6X1YV4yBnbcSLDdePxgTbisOA6mgSV5cN1ZA9TIAajmL7VcTNZvjrlcRgjYAS6gUB8D6DIksnssLWnT0XZx1G3fx02D4c3Ak0hYOJfgSwPdST8mFtA3tGEoh2v4wjHFCKkFw1ukUb78MMP75FiwsWdATB/IR4aWMx6yhxbJlI+tBcizmiXGRCM89DuQyqHiL9sziF1HFoIBfHHLEWkn/3kwTV1zIBo2rSJ/ZBjh5/mPZ3/TaU7nTI5rhEwAkbACExFwP31VEx8pXsImPgPaHM0pmgGRKYHBC+9zT7omAQVOe6xOJgDG/jUMauQLrBMw/Afso3WdiYdZiloe9PyYUPJddmiM6sxyIafNRRg3YRrqsNvKt0mMHCaRsAIGIEuI+D+usut77oLARN/IWG/1Qg01eE3lW6rG8OVMwJGwAjMAgLur2cBdGc55xAw8Z9zTeICNYFAUx1+U+k2gYHTNAJGwAh0GQH3111ufdddCJj4Cwn7rUagqQ6/qXRb3RiunBEwAkZgFhBwfz0LoDvLOYeAif+caxIXqAkEmurwm0q3CQycphEwAkagywi4v+5y67vuQsDEX0jYbzUCTXX4TaXb6sZw5YyAETACs4CA++tZAN1ZzjkETPznXJO4QE0g0FSH31S6TWDgNI2AETACXUbA/XWXW991FwIm/kLCfqsRaKrDbyrdVjeGK2cEjIARmAUE3F/PAujOcs4hYOI/55rEBWoCgaY6/KbSbQIDp2kEjIAR6DIC7q+73PquuxAw8RcS9luNQFMdflPptroxXDkjYASMwCwg4P56FkB3lnMOARP/OdckLlATCDTV4Std+w9kxsAYWAYsA5MgA028Y5ymEZgUBEz8J6WlXM5pllA+fAAAIABJREFUIaCX0bQSKYisdO2b8FgGLAOWgcmQgYKu3JeMQGcQMPHvTFN3u6J6IXcbBdfeCBgBI2AEjIAR6DICJv5dbv0O1d3Ev0ON7aoaASNgBIyAETAChQiY+BfC4ottQ8DEv20t6voYASNgBIyAETACwyJg4j8sYg4/kQiY+E9ks7nQRsAIGAEjYASMwBgRMPEfI5hOau4iYOI/d9vGJTMCRsAIGAEjYARmBgET/5nB2bnMMgIm/rPcAM7eCBgBI2AEjIARmHUETPxnvQlcgJlAwMR/JlB2HkbACBgBI2AEjMBcRsDEfy63jss2NgRM/McGpRMyAkbACBgBI2AEJhSBeSJE9ifjwyNuJ7eTZcAyYBmwDFgGLAOWAcvAKDJg4v+ABWcUwXEcy41lwDJgGbAMWAYsA5aByZIBm/pM6FSNiz0cAuqYhovl0EbACBgBI2AEjIARaA8CJv7taUvXpAIBE/8KcHzLCBgBI2AEjIAR6AQCJv6daGZX0sTfMmAEjIARMAJGwAh0HQET/65LQEfqb+LfkYZ2NY2AETACRsAIGIFSBEz8S6HxjTYhYOLfptZ0XYyAETACRsAIGIFREDDxHwU1x5k4BEz8J67JXGAjYASMgBEwAkZgzAiY+I8ZUCc3NxEw8Z+b7eJSGQEjYASMgBEwAjOHgIn/zGHtnGYRARP/WQTfWRsBI2AEjIARMAJzAgET/znRDC5E0wg0Rfw/+eSTvqLf9+xH2S6Lns1+cuij2fe3uyf7zuZ3+TAGlgHLgGVgBmWAvpc+eNdFz2YPPPdRXx+d9tl9N/3HCHQAARP/DjSyq5hlTRF/YfvFV7/O9r9wcfbf/qeJvgc7lgHLgGVgrsgAffLBF7+Q0UfbGQEjkGUm/paCTiDQNPH/8/0ftkZvBjV6c4VUuBwmuJaByZCBtQ54uBPvOlfSCAxCwMR/EEK+3woEmiT+Oy181qTfpN8yYBmwDMxxGfj/zn6uFe8zV8IITAcBE//poOe4E4NAU8T/qVc/nfKy3/i4J7Kr7n83e+vDLyYGHxfUCBgBI9AWBOh7r7r/nWyjYx6f0j8/8/qnbamm62EERkLAxH8k2Bxp0hBoivjv+0+L+14sf3XcE5MGjctrBIyAEWgtAn957BN9ffQBFy1ubV1dMSNQBwET/zooOczEI9AU8f/RPr/oe6ncn+wgMfHAuQJGwAgYgQlGgD45rsP4f2zrP8Gt6aKPAwET/3Gg6DTmPAJNEf/vbdO/Zecnn30957FwAY2AETACXUHg/U++6iP+K257z8RV/f33389eeeWV7IsvbD5a1nhvv/12jlHZfV9fioCJ/1IsfNZiBJoi/lGTxPmkuHnz5mUcdkbACBiBtiMwqf007fLOO+/kfTX99Xvvvdf2phq5fqusskqO0/XXXz9yGl2J6Dd/Qy392WefNZSykx0FARP/ftRM/Pvx8D8jYATai0Ad4n/55ZdnyyyzzNDHnnvu2Shw++yzT05od9ppp0bzmfTEaT/ea/Pnz5/0qjRefhP/ISH+5S9/mTGy3HLLLfOR+FdffZWtttpq2fLLL5898sgjeWpnn312LoALFizIvvnmm6FyWHvttbPlllsu+/zzzwvjnXfeedn666+f3X333YX304tMf6288srZpptumt7Kdt5552yNNdbI3nzzzSn32nbBxL+/RU38+/HwPyNgBNqLQB3if+GFF+bvbfWNdf0tttiiMeCitv/5558vzefXv/51dtVVV2WLFi3KMAsat+Nrx2eeeWbG4GO99dbL+c9hhx2WPf300wOzeu655/JygdOGG26Y7bXXXlkdrTy85JJLLsm23377bOONN85OPvnk7OGHH86oa5GDi8HDaLc66Rel0ZVrJv5DtDRa/NVXX703qpRWf4MNNsiv7bfffnlq1157ba41QAAh1pDvuk6Cq7TTeBtttFGe13XXXZfeKvz/4osv5uFXWmmlKfdXXXXV/N5TTz2V33v88cfz/1Ud3qefLt0K7bXXXqvUjpxyyikZ2pBll1124MFgp4kOS5U28RcSS3y1cf9V/zMCRsAItA+BYYj/5ptvnivsUNpVHRdccEH+vmyS+EvbD/EtcygJN9tss967+9FHHy0LOtL1G2+8MVdG6p2R+jvuuGOpghNFZRpe/+FSH3/8cWGZ7rvvvtJ4u+++e2EcLp5xxhl5PGv9SyHKb5j4V+PTu8uiGjTtCC1E9o033ujdu/LKK/PrkHa5t956K1t33XXzB4YpqBNOOCE766yzdDv3t9pqq4xBQzz0UDCqjtcZTOA0MKga/SsTRul33HFHXrbvfve7+cIXFgjpWHHFFfN7N998c0666TCUfzrlqeukKffqq6/2wut+9NEIbLPNNpVhYngGEk252Sb+999/f8ZM0JFHHplrIz744IOBVX355Zezn//859lxxx2XnXjiiRmDPTRAw7gnnngi15SQTnTCPV7zuREwAkagjQgMQ/zrEnnNENQNPyyu7777bu/dyfsrdQxKeCdActWf44+T+D/zzDO9tOEeEOsbbrghu/jii7N11lmnd++oo45Ki5cJH8q09dZbZ1dccUV2zjnn5DMGKm/RgOaxxx7rKU6xVoA7kR8DMsU78MADp+THBRSTcBfCUU67YgRM/Itx6bsKaYM4S+iYbooO7byEDbK722675Zp+XVO8FVZYIUbrpaf7VT5mQ2jEFeall17KIMrpETNgikzhB/nbbbddxgNHOEyZUqf4RcSfAUTUjGiRDaN2EX+m7GKYeC5s20j8qdNaa61V2A577LFHoaaEzmuXXXYpjEM7nHTSSYXx0jajrTRQZOYpOrVnvOZzI2AEjEAbEZhE4q8ZBd6PqYt9O3053EJ9+jiJP+8N0sVioMgKQe8puE40wUGxpfIcccQRafEziLvuL17c/10FTKe5B69I8zz++ON78WSpkCaOCTPxGWzYFSNg4l+MS371V7/6VW6PJgHFR9v/0Ucf5aPXgw8+ONfKi1zFcDpnxIoAYp9222239eXGrMHrr7/ed2DyQtwXXnih7zpkkPhKt8zXOgMyQlNM/grLQxwPXUdjwKhaGv9RiL8qxsNIuuqsRPwvu+wyBZnit5X4Iz8Rf+SEWR5kSNgXaYtYP6L7YENHxsAsxqO9Brltt922l46J/yC0fN8IGIG2IjAM8d9kk00yiOug47TTTsv716I+fBw46j0AuU4du/voHYECKf5HgTcOhxmO8rjzzjsLk5QpMeGiFQJmvlzDnKfIsVZSilHCyj377LO9PJmtTh0KQw0M9t577/R2/l8WGHApu2IETPyLccmvpsQJQYZ8STOuhwI/jriZvkKAv/566Z7uaL8x14nXGCEzco+HBhFM8+m67OqZTSAvyCBmRPFQWVhIE50ezDo2/uMg/nRClAWtNE7En2lByl90qANom8b/1FNP7XViDMLotHAsQoqyFTUedLBqS2ZsCCv34YcfZlqXQZiqtSNXX311Lx3CmvgLRftGwAh0DYFhiL/637p+U8RfSkAW7aYObnDsscf23gH8V3nHRfyxbEBxhSKw7PsB0RwpLvQVH2Kmv8xhwYDiE0WqHMpU6kG+ZU6bp8DF4iyDwvNeFBbwH7upCJj4T8Wkd4WpNh4+7OhkZoOwsZiGleksXHnooYdyuzIiXXPNNT2BY3V9dDK7idNeg2zkJbzkyYOHzzVMj6JjMAF55hC51H0Rfx7E1CxI2mhNmYn4M7BgxiEeKgsdjJzKz5QcjjKKxIuUivgrfpXfNuIvzQTtlk5Z0kkKC3ZLkNMUKDhqwKd7+Mib4pXtXMBuCGoHhTXxjyj63AgYgS4hMCzx59046BAxb4L4R207a/IGuUj8x2nqMyjf888/v/c+kpIqzj7ovUd9UHxisnzTTTf1Bixp+ihNeWeVafMJj6JM77WyDUHUNrbzTxFe8t/EvxiX/CpCK/IViX9FlHzxpoSSraswcUGLKyJ2zz1LvxrIaJlFvIMOVs1rdTwzAoxyIYis5P/yyy/zbUTJc80115xSNBF/lanIT4l/URhdqyL+2keXRclyIv677rprjgV4pIcGNG0j/iysxsSLqcfUIVvCVLMjhKHDY+DFQvIiFzvVhQsXTgmCbLAlLGmztgDTIs5N/KdA5QtGwAh0BIFhiH9dIq/Fq3XDDwN1fG+LPFfFn0nizzsGM2UW+orXYHsvp90Bea/DTzCd0rsu+sxYRAsI4mtG+/TTT1dyU3wGGEpH3CUNpHWGtJHdVARM/KdiUnilLvEn8u23395bVCkBxdci2MIMKi7yoEEGSYNdYXAyCeIeDwn39t9//ympqAPhAeUBjIceWj080vhzPZoRca56VBF/LWKNW42K+EP2y5zq1jbiX1ZfrsdFSnGKtCoO99CaqC2KvuUgu1PaEDyFv4n/IGR93wgYgbYiMGnEP87s1mmTmSL+mAzr/SOfd060NEDLzj3Caice3j9sd45iCx6kuKxfi068hl18qpy4y6233loYDGUqebAbnt1UBEz8p2JSeAXzHhbppoJaGDjLcvt87NsQdDTxLNBhJ57UPfjgg/nHtfjAVtGBVv/ee+/NhZgRtIg3gs+B04i6yBZQxL9pG38W6+hhjot8RDzZ7ovOrOhoq8Y/bWvqzsBN2gjwwgSsrsOUSp0mba/ZKMWP5kOyrRT+Jv5Cyb4RMAJdQ2DSiP9dd92Vv0/1jh/UXjNF/JmJlv2+3ves64vvIlkn6D7mQNGhsWfnQ92HA8lRX66n20/rvnxxBsyri5xMhqJpdVG4rl4z8a/Z8jyIkLRRjgMOOKA0l3QRph6G6LNgV4uDlRD3sWPDaRTOvu+pE/FnJE0a8dDoOtX4j7qrDwMjyoWJk5yIZ6xP2XnbNf4i7ao/A0JmbOo4NCoa4BE/7UwZFEgO4leahb+Jfx2UHcYIGIE2IjAM8cdUNa5vKztHm0xf3ISpT1TiRG16WduUEX/e/8zA1z3Kdu8pyhezZb1zmLXnHYSTyS/YlCm2IP96H/KRTzldY/BQ5fQORSla5HjfESb9dlJR2C5eM/Gv2epaSS6BG8avGrWz5SOEt+rQohkVlTjkz8OGo2MoW8kv4l9V3nERf7Y/00hcU3Ainix0ZXsyBgUqC//jUbZQR/Wejj/bH/Ci7JhCoTHRompwYLszPpJS5Wh/4UicuIZC8fSFR/CnHeQUz8RfiNg3AkagawjUIf7svKZ30zB+E8SfDzWqDKzrGuTKiL9MP5VWHX9QXvE+C4+V5kUXXZTfwgRV11jnVuZQiBKOHf/ktD6tykQn1hV+U+RkPjxo5qAobheumfjXbGURf2zHEOw6B+YWCHYZ8ScNzHPqHHFRMNts6cEapCUX8YcQshNRPETSRfyZDSBdHhpW3sdD+fHQyaW7+nAdW37Cav9eEU/Z+KPhVr7x68dsVcl+vnU14CpDXX8uEP9YVtlBghVTp+kiJ4UF7/iFRDrGdLGXvs5MWrfccoui5r7wN/Hvg8V/jIAR6BACdYg/30qhD+X9hJJm0CFy2QTxR9lDWTjSXfyKmi2S4birD++GnXbaqfax++6795KHNLMpRzq73Avw7Qnvesq577775leYIVHZq5RabHxBOBRhctqMAhPnMiczKOKiBE1dxA5OYzcVARP/qZgUXhHxp3NIHWSMziI+cISBlCOcZcQ/2nrrQSnzWWArF23oDjroIF0u9EX869j4s6CmLH9dH0T8sfVTWM5FPEX8KaRMgjSqZx9fYVHnw1SFFR1wca4Rf4p7zDHH9LAqmrJkW844O4AJD2tNouO/ti7jRYTNYzw05RnvxY4xpuVzI2AEjEAbEahD/NVXDjIzET5N7upDHioPMxGDXBnxHxSv6j7vYt7lmN9UOb27ZdIct/Wu2k6TAQnpswBYTpjCp8qUgNrrnx2AipwUmKSdvi+Lwnfxmol/zVYvI/4IpxaksFdtdIOIPzMCjHrjobQgxfE62nc5RuEi1zwgsq3TffkQQD28hIPYx4NrpEPHwleBDz/88N6Dzsg/HspvEPEnb23JdfPNNxcSf31Zjw6F2QbZCfKfKc4m3GwRf7TzbGlW5OLODekuBth4itCDPYvEizrCuL2n2miQrx2qCGdnBIyAEWg7AnWIv96HRV+MLcJHJLUJjT/5sREEfTSKxUGuCeLPTIPeJbw/ixwafYWJ35XRhzyZNSlyvOfFdeJ21igLdR3+kzo4le6XDdDYJpQyFW1vnqbX1f9+89ds+TLizw42CBka1dQNIv6Eh7ixTz/bNOLU+WC3z044PDiROEIkRQj1AKSkUeVQOD2YVT756BPhRQ+c4tYh/lqgw1ShNP6XXnqpipXXRwuLlS5rAPiuQVNupok/HZjwj58kj/Vj21fVn0GSHF99lhxwP/0YnMLhYyJFPmWH0sdXGGZYdD2m5XMjYASMQBsRGET8ZbZKv1hmdpni0jTx552lfpp+vso1QfyZGdaMM+8OFFXRYeGgdz3vc955cuJFlB8FYuQwfK1X5kGkG7/cS/y44w8KSTn4geLxfkwVrQonxWP8toDu2V+CgIl/TUkoI/6QZIQb0py6OsQfUkh8vhKME+GD+Is0R2Kv8BBlLaIpm/LClIS9cznYTlTn+Nj6syBU18hDD0yR2Yk6oDLizwwFGKijIHyZqQ/1ZCCgNJlpqLNzQYrvMP9nmvhTNtmAgknRywRNkTDQoIfOVp0p9zQgHKauMaxkyDb+ERWfGwEj0CUEBhF/3o/0t2k/WYVR08SfvPX190HmPk0Qf/LHVFgKRvCZP39+ttFGG/W957ket+QUZvGrvvAaNqVAC094HTfeeKOC93wGCfHbQQwOxE2IR3nKNjORmQ9hmtwspFfYCT0x8a/ZcCL+aOflWJyqhwIbdrbmZGW7RrAIHiNhiFyRgwxCDnkoNCKOxB/hRtAhjjiItO5rEaceJD6FXeYg9aTDDAKOAQPlYmAgp7UAhCuyi+M6Rxnx17QkYcBEswYintHGnzwxT6ITITydW9EiHZVtHP5sEP+jjz46rx91ZG0IGOMg94ccckjvHmse5DSQJA6dH9OnZUfRdyGUjnzhn77QSJ/DzggYASPQdgSqiD9rqdQflpmPFOGjvropUx/yRONN2Xjvl5n0Ei4Sf23WUVTmUa4xA6198YWTfHbpK9pGXPlgoiwFmOLgQ+RJt8xh2cBCX/ErxWU9QdEgQ+lo10DWAdiVI+A3fzk2fXcgpnQQIqhvv/12boYjIYaESTjxGd1CuMumo0j81FNPzeNokSvXROylAdcCH0ayO+ywQx4+avil9SfPotEzD5fKpYU2MY4WJGuhDQ9WkVMaZcQfPCCoDFbilJ+IJ8Sfjgv7fnapgewzI6L6sltSjFdUhulcmw3iz8BO7Sf8GATGzoxOUTIS14sofJVfZyG08Dfxn470OK4RMAKTjEAV8WcfefpZ+uKimVnVm/cV716Ubdjdqx9vmmRK6z/MoERlHqePuRHmPsxCP/LII0O9r4nLIIYdeQaZLcUyw4PgFCg69Z6M9+M53zuiHWkXa/sjMlPPTfynYlJ6BcHjAxdMC+qhR9DYXhMtLnba2267bd897rMYF6GMjrRIg0MzBNwXERbxx+wGsxh9+pr0eHii4yMZEvg4imbUrIWz6ReHRfQhoozYic8hk6OYPmXV/TLiH8PHc2kKUsJLvelk6UCUNh3v448/HqOP7Xw2iD+Fpw0OPfTQXh1VV/wDDzywb2vOt956qzBcjBPP46KoMqCQR+KkC52UTlk8XzcCRsAItAWBKuKv/nmQWSXv+Pjepw9l5rxqy8px4CetP+9H8YJxpNu2NKQYbXog1gbcTPwrWpH9aPlaKgtKeMBFluRzXRrzmAyabb6UF+3UiMN/Fr3IoaE/88wz85EwPp+XVtrawYW0NH3Fvbi7j9LBTEhaAfaE10BCAwKuaaZCcQiD7Zzyw4ecS+PByJ400WzoE90MSmLHowVRxCtyRUQWjQl1jSNyBjca8FCOcU9VUrbZIv7ChTZipx4GhwwChbPuz7Svdp/pfJ2fETACRmCmEagi/pSF93Udt3jx4oxdfziikq1O3OmEwZSWnXLit2+mk14b42LKDEaRW7SxnuOok4l/BYqM8CPhhyhD3jGxqLvlF+G0Ww7ktkgotY2myFj8zDW7/hAPTQMmOmWO7bEoH+sBMJmBoOvDT8xIFDk0HJB2BjfkHTu/om0iUw3zIOJPnmgpMONZuHBhxlf+yhymQpijMDCIg4uy8MNen23iP2x5mw4vWWs6H6dvBIyAEZhtBAYR/9kun/M3AjOJgIn/ALTR+jOyn679OaS3jIBzDxt4jqLV6swqYBIzyKFRRssux6xB0YyE7uNrZiGSft1nCpOBy5NPPjllxoAwaLFZ9Jwu3FX8YX0GWgw4mnAm/v2omvj34+F/RsAItBcBE//2tq1rNjwCJv7DY+YYE4iAiX9/o5n49+Phf0bACLQXARP/9ratazY8Aib+w2PmGBOIgIl/f6OZ+Pfj4X9GwAi0FwET//a2rWs2PAIm/sNj5hgTiICJf3+jmfj34+F/RsAItBcBE//2tq1rNjwCJv7DY+YYE4hAU8R/pR3vzeJL5f1PvppAdFxkI2AEjEA7EaBPjn00fbadEegyAib+XW79DtW9KeK/0TGP971U7nv2ow6h6qoaASNgBOY2AvTJkfhvfNwTc7vALp0RaBgBE/+GAXbycwOBpoj/Qf/8Qt9L5a/8UpkbDe5SGAEjYASyLEuVM4de8qJxMQKdRsDEv9PN353KN0X8X3jrs+y/b/VvfeQfjdK9z3yU/fJTm/10R8JcUyNgBOYKAu99/GXeB//lsU/09c301S++/flcKabLYQRmBQET/1mB3ZnONAJNEX/qcfxVr/S9XOK0ss/vMjabGwM/B5aBuSADJ/3LqzP96nF+RmDOIWDiP+eaxAVqAoEmiT/lXevAR0xwTXAtA5YBy8AclYG1Dxr8Ecwm3j1O0wjMNQRM/Odai7g8jSDQNPH/4qtfZwdctDj7b//Tmr25oNlzGSyHlgHLADJAn8xaLPpoOyNgBLLMxN9S0AkEmiL+n3zySR9+7CCxy6Jns58c+mj2/e3usfZvjmr/TApNCi0D7ZUB+l764F0XPZs98Fz/Tmsff/xxX5/tP0agawiY+HetxTta36aIf0fhdLWNgBEwAkbACBiBCUTAxH8CG81FHh4BE//hMXMMI2AEjIARMAJGoF0ImPi3qz1dmxIETPxLgPFlI2AEjIARMAJGoDMImPh3pqm7XVET/263v2tvBIyAETACRsAIeHGvZaAjCJj4d6ShXU0jYASMgBEwAkagFAFr/Euh8Y02IWDi36bWdF2MgBEwAkbACBiBURAw8R8FNceZOARM/CeuyVxgI2AEjIARMAJGYMwImPiPGVAnNzcRMPGfm+3iUhkBI2AEjIARMAIzh8A8ESL7D2TGwBhYBiwDlgHLgGXAMmAZsAy0VQZM/B+wcLdVuF0vy7ZlwDJgGbAMWAYsA5aBpTJgU5+Zm11xTrOIgB76WSyCszYCRsAIGAEjYASMwKwiYOI/q/A785lCwMR/ppB2PkbACBgBI2AEjMBcRcDEf662jMs1VgRM/McKpxMzAkbACBgBI2AEJhABE/8JbDQXeXgETPyHx8wxjIARMAJGwAgYgXYhYOLfrvZ0bUoQMPEvAcaXjYARMAJGwAgYgc4gYOLfmabudkVN/Lvd/q69ETACRsAIGAEjkGUm/paCTiBg4t+JZnYljYARMAJGwAgYgQoETPwrwPGt9iBg4t+etnRNjIARMAJGwAgYgdEQMPEfDTfHmjAEmiL+Stf+0o+DGAtjYRmwDMxlGZiw15eLawTGioCJ/1jhdGJzFQG9hMZdPqVr30THMmAZsAxMhgyM+z3g9IzAJCFg4j9JreWyjoyAXsgjJ1ASsal0S7LzZSNgBIyAERgRAffXIwLnaK1CwMS/Vc3pypQh0FSH31S6ZfXwdSNgBIyAERgNAffXo+HmWO1CwMS/Xe3p2pQg0FSH31S6JdXwZSNgBIyAERgRAffXIwLnaK1CwMS/Vc3pypQh0FSH31S6ZfXwdSNgBIyAERgNAffXo+HmWO1CwMS/Xe3p2pQg0FSH31S6JdXwZSNgBIyAERgRAffXIwLnaK1CwMS/Vc3pypQh0FSH31S6ZfXwdSNgBIyAERgNAffXo+HmWO1CwMS/Xe3p2pQg0FSH31S6JdXwZSNgBIyAERgRAffXIwLnaK1CoLPE/7PPPptzDfnVV19lv/rVr+ZcuaZToF//+tfZ66+/Pp0kxhK3qQ6/qXTHUmknYgSMgBEwAj0E3F/3oPBJhxFoHfH/5S9/ma2yyirZlltumb3zzjsZZHq11VbLll9++eyRRx7Jm/rss8/O5s2bly1YsCD75ptvhmr+tddeO1tuueWyzz//vDDeeeedl62//vrZ3XffXXi/6uI555yTl2uNNdaoCjaWe59++ml27bXXZjvssEN29NFHV6b52muvZSuvvHK27rrrVoZLbzKIWXbZZfM63XfffentGf3fVIffVLozCo4zMwJGwAh0AIGi/pp3Oe+n888/P39vD1K+HX744dmaa66ZPfvssx1AzFVsIwKtIv5o8VdfffWcaM6fPz+TVn+DDTbIr+233355G0J4l1lmmR7Jfvvtt2u3LQMIBg1KO4240UYb5fevu+669FblfzTj3/3ud/O4u+yyS2XYYW9+8skn2eOPP55dc8012QknnJCts846eT7UQ8err75amuzixYvzcAx4hnV0kuTBYGg2XVGHP47yNJXuOMrmNIyAETACRmApAml//corr2Qrrrhi7z3Iu4p3/NNPP700UjiD7BMGRdiwSsOQjE+NwKwi0Bri/8UXX+TkkocSLfMbb7zRA/bKK6/MH1YeaLm33nor12BDZi+//PKcEJ911lm6nftbbbVVxqAhHqTPsd566/VdZzCB08Dg+edvbr9kAAAgAElEQVSf70tr0J8bb7yx1/mcccYZ2aOPPjr0keZ5xBFH9DTuKnf0GRyh7X/yySd7xTvuuOOybbbZJnvxxRd718qI/yWXXJLXlzqXHdL4k29ZmHj93HPP7eU7zpO0wx9X2oPSRS4VpsxP261O2e6///6Mmasjjzwyu/7667MPPvigMhryVJY/1zUbVpmIbxoBI2AEJhgB9YGqAtYBvJs23njjjHcwlgL8X2GFFbKvv/5awXq+FHs333xz75pPjMCkIdAK4g8Jkrach/bhhx/uawe089LwH3bYYdluu+2WYU6ja8TRwx4j6nodH7Oh999/v0feX3rppQwTmfSI6cdzTIjq5FMVhvpEd+mll/bSRKvBYEXxy6Yp1RE++OCDvaTKiP/JJ5/cS0/pTtcnzSZc2uGPK49B6d5zzz0DMRrGhAp5WmuttQrT3GOPPQq1UJi71WmXcWHidIyAETACcxGB2F/DE9QvyryHvlK8gIFAdPAMwtP/2hmBSUZgook/D+tee+3Ve3h5KNEwf/TRR9kVV1yRHXzwwblWHo2yHvDUZ8pu6623ziCct912W19bMmvAwtR4MENAGi+88ELfdWzmiZ+mn/4v0qxecMEFvXirrrpqPihhYBIPac7RRMTr8RxiHx2d2Lvvvhsv9fIBoyI3DPEnfQY7aJxpi/R44oknevkxdcr9hx56KLeNjGGZbr344ovz+6TZhIsd/jjTH5TumWee2cMglQX9r0v8wQx5VTzkmlkpyQbXt9hiiynVe+qpp3pxFLfInxLRF4yAETACLUIg9te8c+gHV1pppb4aYr/P9VNOOaXvusyIU8ViXyD/MQITgMBEE/9tt922R2ggwDyskKDHHnusd10EB8Ksc6b10HjHqTwW92CuE69hd499fDw0iIBQ6zqkH8dsAnkw+wCZi4fyfu655/rE4qqrruqVq4i0KTCDE9Jg8fB0nMoxDuKPjaO0zwceeGAGXnIQeLUJi5ZxaKtFUjXI4ppmaxioNeVihz/OPAalu9122+XtxoAOc5yiQ/IzqFynnnpqT1YwyZKNKVjHZ4EZmuj0gqPtMXErKkOZPMR0fG4EjIARmGQEYn+t/hRT3ui23377vJ/lnSaHcov+c9NNN9Ul+0ZgYhGYaOKPphwNPAtpZWYDsWSVPjMBkGQ0zCJWLG4V8V20aFFfo+lhxy5ejgWvCl/lkye23CK1TAlGx2CC6UMOkTXuR7t+BhQff/xxjNZ3Pgrxxw4RO/B4qB50evH6M888k+c3jMafCAsXLuxhRKeIWRU7K8l0iU6Va2j1Ib/kzxoCHLbtGkhhivTmm2/m15v4iR3+ONMflK409Lvvvvu0s2V3KvBDztLF5cyoqG2ZZYhu7733zu+lmq0YxudGwAgYgbYjEPtrrALoM1EKRifNPmvtcLy/tQA4VarEeD43ApOCwEQTf8iPSH0k/lXgsxhSBGnDDTfMLrvssuzOO+/s2fVhky2HVh/zmUHHjjvumA8ySBcii+YbbcFmm22Wffnll/nCSe4xhShHZ6KBAoMXEW/dT/1RiL+mLFXfKh9ccMMSf+LQmaouYLrzzjv3ME7zZBYATBgAifSzyJj2a9LFDn+c+VSliyZe9b/oooumne0dd9yRm6SxWD11PAvK66STTuq7rVkZZgXsjIARMAJdRSD219qhh35TO/uhfFM/qi25ZYo77t32utoGrvfsIzDRxD/CV5f4E+f222/vkU495PiM6qNGPqZfdR634hSBFqnl3umnn553Jvvvv39fMpgWYeairTQx38AMqegQsUaDXHSfa6m5BjMeDEB0aMcC6spCUF3Hh1TiRiH+xMOOHPwws7rwwgvzeqGhZiAgjNGs0E7CmN2UGJxUzXT0ATaNP7HDn0YyU6JWpctuSao7LxE0SAwS+XYCO0ixAHxc7vjjj+/llW5Fp8Vq2Kyy4HvPPffM1wawtSvltzMCRsAIdAGBtL/Whhe8V5kF16wq70EcChWt69PgAP+0007LZ655d8pstQv4uY7tQKA1xB/zHrTiaJvrOOzz2Y4SMwjIJ6P5IiLG7jaYsJQdaPXvvffenHRBzkkXJ9MezjfZZJP8Pvb8qRMJ5rqmGEUWh/X5YFmVi3bgt9xyS2HQUYk/MxgMXOLWoGSgnX/ABtMmtPtazIq9+THHHJN/ZK2wMGO8mHb440q6Kl20/IPakEHhqA4zNgaaajPywmQtujrmagxGNHMW4/rcCBgBI9AmBNL+GmUZ5qixn4YPaFOME088Mb/H+j0cswQaCMQ4ut8mrFyX9iLQGuJ/11135aQH4jPsccABB5S28NVXX93XKcSHXecs2NXiYCXEPToIHLbV/H/55Zd1u9AX8Ud7S33ioY9u7bvvvn3XYxhMaMpctAFXudPtyogrEllnO0/lxfoGZhxIlwEPJJKZDr4RIBzYBQnTF82EsOOPTFCYFSj7ErLymK6fdvjTTU/xq9JNd5zCzIlr2gta7cAMyShOdqdKhxcWuEfH+hfdx0cWd91111xbpZkArmvdRYzrcyNgBIxAmxAo669Zl8Y7L5qcsgkCfWRU6GmGgP6SXdZ4/6p/5Z1mZwQmAYHWEH8WquoBHNbn4S5zPNzpXvzpfwhtdMShDJjx4NDqYwIzyIn4y7Ywhh/Fxj/G58u5Rbiw4Dm6YYk/ZjoQTqXN7gcMhNRBcp2v9x500EH5rInIJmZHfCRMAwEGAU1qncs6/Fj3Uc6r0o2DIWaFomNbV2GB/+GHH8bbtc7BjHbVAmKwRobiehGmpNU2WqymxJkhUnsThpeYnREwAkagrQhU9ddpnVGy0S+q35Q5MdfQ/MvJnDU15dV9+0ZgriHQOuIP4YQ41zkw9eEhLiP+pIF5Tp0jLgqOHwZhkFDXNUX8VU/ZL1Jn1hfgc2D3LSciWEfjj0Ykkk62jcTFtQTKQ77ILv8xQ2EnH23nSd7pOgWVa7r+MB3+MHkNSpfBDDgVuThYne6XIG+44YZee7KWAtMrOQamsk/VNflxJgh7VTsjYASMQFsRGNRfq968t3lHoZjSTDrKGr3HoomuNgzxVp9Cz/5cR6B1xJ9901PH1pJM1z366KN9t/RwlxF/kWA97FW+7NbJgEW1Coumu65rgvjfdNNNvbLE7xtAsFlcq3KKtKvOdYg/2n5MR8CPfOTQ+rOA9dBDD80/gqI8tAZBsxfa3x8TKNqHQQRTrk24uh3+sHlPJ122OBU24/hiMesllF46w1BVL826MHtgZwSMgBFoKwJ1+2tMeehL2fVPTl9h510VnWZVUTraGYFJQKD1xB+bZ2mZ091jBhF/NOUQsngoLRb9xOuR+GJDLQJGJ4ENfB03buJPJ6dy7LbbbnkR9F+adbS8XKOuuGGIP+FZoBunPfNEwg/aEuUpzQmmQOwCFB2a5zLNeAw36nndDn/Y9KeTLoMcYcO6jjqOXSaEYxqexb5KTwO5NEzRf83asI7EzggYASPQVgTq9Nf60jn9YlwzFTdKiDOoGiTU3Vikrdi6XpODQOuJPx+JggzJ3j42zSDiT9j33nsv34IR0xgcRJ70mOo76qij8gWqkYjF7b80SCgjYWjFWaCpQ6QNDayuydc98te1Il97DaNNVv50YLKfVzoi/tQDkxO5YYj/rbfeOtAMCo2J8mRwMchsqmjBsco2Hb9Ohz9K+mXpgi/tQ3uxbWaRi0Rd8lUUjmu0n3aTSD8lrzhsUyusZTrEOgPilWmjMAlSHLZ4tTMCRsAItBWBsv461lfr03i/Rce7EjNK+ku9M1HeqF8u+r5KjO9zIzBXEGg98Ucrz4OK3Xnq6hB/SBbx+YgHLhJ/jfQjsVd47OlZI0Bcvlhb5LRTD2HGdejz45jVkCad0htvvNHLXvmI+PdufHsyDPHXbkVKcxw+g54mXJ0Of5R8q9KVCQ04pQvAyQubUGEW26isHFoLwUAu2vAr/BZbbNFLT9vRxS1ckffUxS8vs4OVnREwAkagrQhU9dfUWbv0YB5c5FgPpz4b00gNBMr65KI0fM0IzDYCrSP+7EkuB5mS1hvNM8SGvdVFelmlL+264kQfcgXZguxLqx+Jv2zmeehxaGV1X/vka8ebBQsWxKTzc8gZZKzOoR1iMDGqCs8MhRy29CxIik6dljCI9zj/+c9/nu/Hz6JbOT5TTjwGEdGxXedOO+1UebC1qvLkfFD4Y489NmYxtvNBHf6oGVWlKzMq6s/sDrs94RgEsIWscNlnn336ssfsh/aGyEen7VGJx1oWdkXCkd4hhxzSS492l0MOlQ8D0Ej+WeOh54PvK8RpbcW3bwSMgBFoCwJV/TV1lOIrfW/G+rMTnjbKgD/AOfT9nhjO50ZgriLQGuIPqYKsilxhg6d94iE8fJxLBAgfzTia+tTuPzYUX/IjLGRbTsReq/rZm50w7OMPueM8avil9ef6dMxYtCCWhcPTcZSDo4z4F6VdRvyLwqbXGDApTw2e0jAz8X9Qhz9qGarSpb56kYABJJv/IttcY9YnlUFNNXM/OgaikjdhijlRTI+BapoeJjwKj89AVdPT/OflFbcAjXn63AgYASPQFgSq+mvW4mGKKjPJttTZ9TACKQL9zCK9O2H/ITx33nln/hXeSIbYXhOtKA80pg/xHsSHxbgsOI2OtAjHEUlySvzZPYXpv80337xHrtL90KX1Jq2qhbAx//R8Nok/mIogpuUa9L/LxB9smAWKmn9w5ECOuF5kshO/JJniyxoSdktSOtEnPe6njkEqpmqS3RiHmYUmF1WnZfF/I2AEjMBsIVBF/GerTM7XCMw0AhNN/Pka7CabbJJ/tEj21JHUsEtOuoUnADOy54umbMEZw/OfxcByaOjPPPPM7Lbbbsv9I444ohdeZhGkpQ94kFbc3UfpQH41NYhNYBxIKMwgfyaJP1oPTJTQRmPHqIESJHFY13XiL7wYeDLoQ5aiuY3uD+uDKzshMZhl0Fo0gEjTRGbJm4EccevESdPwfyNgBIzApCJg4j+pLedyjxOBiSb+kKlI+DFfgLyzi0rdz2cTTh+cQiMaP9ktoPnybBwgoMGXw6aeeJBjzHrKHIttKR9mFtphpyxs0fWZJP7swx/ryzk4s2vMsM7Ef1jEHN4IGAEjYASaQMDEvwlUneakITDRxB+w0fqjSR2FTMfGYvtLTIKKHPdYHMzBgt7UMatQtRhI4dGysu/9KI4vsw4zoCnLgwWd5557bm+xclG4zz//PB84MSjiAF/NcBSFr7pGvJNOOinf+nQ2NcxNdfhNpVuFqe8ZASNgBIzA8Ai4vx4eM8doHwITT/zb1ySuURMINNXhN5VuExg4TSNgBIxAlxFwf93l1nfdhYCJv5Cw32oEmurwm0q31Y3hyhkBI2AEZgEB99ezALqznHMImPjPuSZxgZpAoKkOv6l0m8DAaRoBI2AEuoyA++sut77rLgRM/IWE/VYj0FSH31S6rW4MV84IGAEjMAsIuL+eBdCd5ZxDwMR/zjWJC9QEAk11+E2l2wQGTtMIGAEj0GUE3F93ufVddyFg4i8k7LcagaY6/KbSbXVjuHJGwAgYgVlAwP31LIDuLOccAib+c65JXKAmEGiqw28q3SYwcJpGwAgYgS4j4P66y63vugsBE38hYb/VCDTV4TeVbqsbw5UzAkbACMwCAu6vZwF0ZznnEDDxn3NN4gI1gUBTHX5T6TaBgdM0AkbACHQZAffXXW59110ImPgLCfutRqCpDl/p2n8gMwbGwDJgGZgEGWj1y86VMwIDEDDxHwCQb7cDAb2Mxl0bpWvfhMcyYBmwDEyGDIz7PeD0jMAkIWDiP0mt5bKOjIBeyCMn4IhGwAgYASNgBIyAEZhwBEz8J7wBXfx6CJj418PJoYyAETACRsAIGIH2ImDi3962dc0CAib+AQyfGgEjYASMgBEwAp1EwMS/k83evUqb+HevzV1jI2AEjIARMAJGoB8BE/9+PPyvpQiY+Le0YV0tI2AEjIARMAJGoDYCJv61oXLASUbAxH+SW89lNwJGwAgYASNgBMaBgIn/OFB0GnMeARP/Od9ELqARMAJGwAgYASPQMAIm/g0D7OTnBgIm/nOjHVwKI2AEjIARMAJGYPYQmCdCZH8yPjzidnI7WQYsA5YBy4BlwDJgGbAMjCIDJv4PWHBGERzHsdxYBiwDlgHLgGXAMmAZmCwZsKnP7M22OOcZREAd0wxm6ayMgBEwAkbACBgBIzCnEDDxn1PN4cI0hYCJf1PIOl0jYASMgBEwAkZgUhAw8Z+UlnI5p4WAif+04HNkI2AEjIARMAJGoAUImPi3oBFdhcEImPgPxsghjIARMAJGwAgYgXYjYOLf7vZ17b5FwMTfomAEjIARMAJGwAh0HQET/65LQEfqb+LfkYZ2NY2AETACRsAIGIFSBEz8S6HxjTYh0BTxV7r2J2s7M7eX28sy0H4ZaOId9m8vvJBtvGhR9sf77Tet44/22y/7o/32z/64dyTp7btf9sffHn+En4SbEj+Ez+N9W74l4WL8/bP5vbRi/kuu694mi87O7n7hxSYgdJqzjICJ/yw3gLOfGQT0kh93bkrXfvtJhNvYbWwZmCwZGHd/D+lf+OBD2V9ednm2xsJF2Z9/e3A+0v9FZ2d/zlGSTtn1Xn5JfIWXr3DydV1+0fUfHrsg+/6Oh2T/Y49js5MvvCK79dZbxw2j05tlBEz8Z7kBnP3MIKAX9rhzayrdcZfT6RkBI2AEuoJAU/0ymn5I/88eeDD76+eeb+WxzmV3Zv953ROz3/rv22f/1/yfZKuttlpXxKYz9TTx70xTd7uiTb0Imkq3263l2hsBI2AERkegqX4Z8x605JD+nT7+NNvm1dd65H/zx5/I/vLOu7INbrx5Rg/yJO9xDUTW+qc7sv80/x+yef/rJtm8/+U/Z/PmmSaOLolzM6ZbdG62i0s1ZgSaehE0le6Yq+/kjIARMAKdQaCpfhk7+z9feHZOsiH9611zbW6mw2DgTw49LPuvG26Y/Z8//OGMHuRJ3jLfwZcJj3zMidYMJkUKy7V4nfMf7LEg+9+/e7CJf4ufFhP/Fjeuq7YUgaZeBE2lu7TkPjMCRsAIGIFhEGiqX47EHw07BFqLfH/vZz/LfuN3fif7zd/8zew73/lO9od/+Iczcnxv9R9lf7jtdr2FwCzsZTHwH+27f35QZhbs5ot2+xYAT71OmN/fbN/sN5b/exP/YQRuwsKa+E9Yg7m4oyHQ1IugqXRHq6VjGQEjYASMQFP9MiRapj5lxB/Sv/3222cnnHDCjBy7Hn1M9j8OOngKse8R/32nEvwluwWFHX323T/74/zYL/u9n+2T/Yf/sreJf4sfIxP/Fjeuq7YUgaZeBE2lu7TkPjMCRsAIGIFhEGiqX2b7zanEfwmB/r2fbZb9xu/8bvaDH/wgO/PMM7Nf/OIXjR73339/dscdd2SnXnFl9pPjjl+y3Wei0V9C5iPBX7pFKIOY/OiRfsi/if8wcjapYU38J7XlXO6hEGjqRdBUukNVzoGNgBEwAkagh0BT/XIV8f/9b4n/Kquskl199dXZBx980OjxyiuvZJD/U664Mlungvij+V9K8ouI/9JrmAitYI1/T47aemLi39aWdb36EGjqRdBUun2F9x8jYASMgBGojUBT/XKxqc8SYg3x/99+53ezmSf+V2Q/Pu643lqDJWY8kcyXEH+tAfh2lmDJuoD9st/bbN/sP9jGv7asTWJAE/9JbDWXeWgEmnoRNJXu0BV0BCNgBIyAEcgRaKpfhvizoFdbZy5Z3NtP/Gfa1OeUK6qJf27u0zPr6R8QLFkHoMXAS3yI/3808W/1k2Ti3+rmdeWEQFMvgqbSVbm/+eYbndrPsuzrr782DkbACBiBSgSa6periP8fbLV19n/80R9nf7D6j7Jdjjo6O+XyK/Lj1MuvyDj0H6IeD93v86+4Mrfdx36/8Pq3aXJvr/POzf78qKPynXxSbb9s/It29dHi39zXwODbXX1M/CvFa+JvmvgPaMInn3wye+ihhwaEGt/ttddeO1tuueWyzz//vDDR8847L1t//fWzu+++u/D+sBf32WefbNlll82eeuqpYaMOHX6ttdbKVlxxxezNN9/M4951113ZTjvtlH366adDpzVshKZeBKOk++WXX+ZtPH/+/Oy1114rrQr48PGULbfcsjRM2Y3XX389x3qZZZbJPvnkk7JgY7/+1VdfZSuvvHJ+cD5ux/NBnXgORnFtf55HwcRxjEDbEBilX66DQRXx/8Fuu2eQf7bWXP3Ag7IfH3tctk7fcXz242OPz81yMM3hWIejLwz/j8/WPW7JwaJd/uvQ9RhnzaOOylY56KC+7Ty1a08R4dfgoIr4ezvPOtIwuWFM/CvabvHixTnJgHxdc801fSGPPvrobOeddx76ePbZZ/vSSf8sv/zyOdn77LPP0lv5/4022ii/f9111xXeH/biVlttladHuk07BhhgCa64VVddNf+/ww47NJ111tSLYJR0L7744rzeYPHCCy9kL730Ut/x/vvv53hA+Amz4YYbZo888kjh8dFHH5Vix0CL+GefffaUMPvvv3+GrNU5BslsTJxBDXlycD6qo14MXuLx8MMP99K+9957++7FcB9//HFhtl14ngsr7otGoGMIjNIv14GomPjvl9vXr3roYdlfLDgl+6uFi7KNFy7Kif8PdtgxHwwwKOD+ugtOye+V3Sf+JgsXZZsuOjsn/z/Y8e+yP9jqb7If7LZHtuqhh2f/7ymn5vcIA/kn/e9t/TfZD3bfI/thyJ8yMFj4v3f8uyX3d9u9d5+4S+4viZ+nv/sevR1+fu9n+2b/8b94H/868jCpYUz8K1oOs4I99tijRzYWLlzYC73CCiv0rovo1PFvv/32XhqQ7g022KDvUBrrrbde3/Vrr702j6eBwfPPP99LZzonb7zxRq8ekMsm3f/f3tmGWnKUeTyyGqMEdllcdlGYjCHE1w9hRmbCgm4IaPZDkklwI25I5oowd6JoAspMNJmZqDEZXzJ3gmZmlN2ZoEj8EE1Wv4gYNdEkKxJRfMEgMQkaFN8wggh+sZdfn/v01O3Tp0/3vbeyfc75NfTtc7u6qqt/9XT3v6qrnuJLBtf3+OOPl6dBiMX1xvXlOn+uF0HfdP/2t7+VreFx3U1bBoel5dJ0TOx74IEHKmRUBt/73vdW68UXX1zyxWbS/SdOnCiuu+66in2kNWlL5aTrslnC/6abbuqcv3q++SrQtCzC/dx03e6TwKIR6Ptc7soH4T/uznMk/BH1//XIo8WjTz5VPPLkU8Wx++4vdl6+a9T9Z89yWSkgnLCm8DT+/z75VNnF58Iq/t6y0vDfjz5aEMY56DpE+v+088JS3FMpIJywCL/w8ivWhJ+shaf5iy8BCP8zFf5dTWImj1P4dyg2BH+Iiw9+8IMF4g2hSsttfb3sssvKY+nGUQ/j/9/85jfVGSPNLttjx44VtATHsbQS002kvlaJF0XxxBNPFF/+8penrghN0r3kkkumHvvwww+np+j1OyotP/7xj6t4dNng3K9+9aurfTl+5HoR9E03tSVa8qM8l5eXC758sPI16eqrry7D6Bp18ODB6jj2f+ADH6jWtKsQthnptW23bds2hvhrX/taGffaa68dC+uzY7OFP92GuOYuK/bLdbNtW9IymKX7ue2aDJOABE4T6PtcPh2z/VezO8+R8KcVH0FPF0e+OuLSk3fri7ZsLfDxTys7grweftaWrcX5u5fKLwFN8ZkbgPgT0z9na/HKpaXySwCVgnr6eBqK8Kbzv2jLOQWzDiv828t+nkIV/h1LE9EeYuqHP/xhYyxuuPgSgOCettCqm3ZR4He0itPKmobRD/6hhx6q8hB5qW/TVvt9+/ZNPb4ef9r/F110UXVZdH/q092Jvtmkf80116yJx366tZAWnHMsuV4EfdKlIhZ8P/OZz5QVyKh0HT58uLpsxpTEcT/72c/K/R/60IfKfXTfmbSE8KcyhX9nZo6kgvqTn/ykWkm3SfjfddddZfof+9jHJiVf/OhHP5o6E+Udd9xR5Z0KzLTZKyd9TYgWfzh1XYLbNOFPerN4P3fl4HESWHQCfZ7LfVi1Cf8Q9oh+ukcyiRcefurCvx6O8E8rBmPhCPek4lAPr4T9yVPl14B6eFQcyB8Vi3q4wr+PBczHsQr/HuV4zz33lLX4SVE+97nPlaIHIUslgLVt4csBAy/TNVrFf//731f7Y/Dr7bffXqZP6/iuXbvWrCEUEZex3H///eXgWQbQ1tc4HsFdD2v7/5Of/GQkX+SoWNAFJceS60XQJ93os48wpexZqKhFWfAVh+Ub3/hG2cKNGI+FMR9RqayPN4ljQvjzVWZlZaVM921ve1sEl9sQ/thm2v2HygBhVCzS/VQaYmGsQOR1s7bcM01LCH/yhU10WekeR766CH/OOWv3cxMn90lAAuME+jyXx2NP3tPc1Qd3nofKPvd0v6GlH9H/rne9qzjvvPMq4U+f/HWFr7bY02e/Mf5q+OVHVsruQfXzh/C/dOVo2f2oKZyKBddGq/8rnMBrsgHMSYjCf5MKktb5aNFmECtTabM9derUxDM888wznYQU6fz1r38t00PY0JqbLvRd5tysXd0/Rl5jIGmaXtfftLDSctp1DXHJA3FSnO9+97tdT9/ruFwvgj7p4qmJFvWnn356Td6/8IUvrPEcFaJ6zUFFUfClCW9OUWmoh1MhoEvMd77zncoW+UJDV6FYSZuBvVQk4jxt23TsBV20qPhNWsOm6ulNOp79eNlpWkL419Pq8n9X4d903tg3a/dz5NutBGaFwDe/+c3eWe0ap89zuU8m8JLzplN3V378Lzl19+qsuIeKbe++vuxzz1dcWvoR/WeffXYl/BmIS5/93uGrwn77u28o6LM/Fr8Kb04/hP+2628oduwajx/hCv8+ljDbxyr8N6H8EGLhQQVhglD//Oc/XzWP9aMAABwtSURBVAmrSa43adWnlXLaev3115fuC0mbLwKcj9bdpaWl0nNKtBr3ETwhoDbieaUvOvqxc94jR470jbrh43O9CNaT7m9/+9uCMSDh9rK+jbKp70//j69ATWAOHTpU2V6kFVu6WbGE8GcMQd2rEP/HoPZU+DedK/ZRGeUc8VWD34xXYDvJ/iNu0zaEPy1nf/nLXzqtnIfz9bkPms49i/dz03W4TwJDJcC7i3u1yePYpDzHF8f6V8ym49fzXG5Kp74P4Y/Yjwm8+M0+Wvxfs7xcvGTnzuKsc84pZ/B98TlbC9bR4NvlJHzrWDhuQGMeAIR4ur5kdfAu3ntIK9Kliw/ddMq5A/YslwN8OZbzn163Fux7zfLecuV3Gp/jIlzhXy/t+f1f4d9Stl/60pcKBEi63nvvvWMxQqTwIGNF+LPQZz3+/+UvfzkWr+sOhAjde0jrox/9aBktugQR9ulPf7oMoyW3y0I3j8hrl+M36xgGpXJeKjLP9ZLrRbCedNO+/lEOfbf002xaoq8+6ZG3P/7xjwUVjbAfuhGxhPDHpSoLrfkMTKd7GAt2RhpdhT+edDg+KqH8pp8rW7wL9V3inqLbEWNbuqx8QeB8k4T/vN7Pfdl6vAT+PwmE6OdeZe0i/kP0R5xp4n89z+UuTJgQK525N4Q/4h+Xmoh/BsoymPZVq+vI3eb+Yvv+/avhS+Ph+/YXMQ8A/f3pesPKb0T76/bfWK6kFelyDs5FhWEb8fffWIr/V+7eXe4nLOITFuFj8ZeXy7BS+B+6xa4+XQxhxo9R+LcUIK2j8aCJLS2a6RL97gmPVv4Q/rSm09WCMFprmybl+t73vlfgSWXSykMSn+WkQboxGVN07SEvkc8uA4o5Hk8wcT10M5m2btacAZ/61KfK8yIwn+sl14sgR7pRNn0ZpaKfNGjNx1tPiOh3vOMdVZLYIseE8Efg8//Ro0fLY/oI/69+9atlXMad1L36xBeAvhNuRZ6DRZ/tJOEf90ma1jzcz1Wh+kMCAydAV530/ovfbeK/LvojTlu3nxzPZdDWhT/dfhD9rG+4/XBxxfGRH//ww1/50d9/2o8/g2zHwmt+/jmGMQF0Hwrh/2+3n/bjH/FjngCE/9g8AisrBd17iI/of/3ttxdXrs4DQHwmB9t+Pekr/Ad+22x69hT+LUhpvUTUsCKIeOCEUKAvfXhaYT8PJ1x18juEP0kzSy3/s//973//2NkYaENY20oLMX3f09ZXjscDEEv0nf/FL34xln7TjpgRtu2caRiDSpsWPM5EBWTalvEAVExIN7frzqa85noR5Eg32Dddx6R9fMUJj1D46a9398EG//SnP1XR6y3+6xX+fE0I+2YgcF34c09E3/8+E4GF8Od+++xnP9tpjftxkvCf1/u5KlR/SGAGCEwS8k3iv8+x6aXneC6T/kj4n+7qg/CPlvIrj4/8+OM5B7eZJ+67v7hwF370d5at8kzOFX780/Cyq82e5dJPfxoefvoJp6UfP/344cdl57if/9E8AeHHnzwwj8COXbtWu/KcTj/i19O3q09qQfP9W+HfsXyj/zBChFlF3/zmN1diPbrfNAl/kg9RhaCr+8Gn/3LdF3/9/7p3IOKkAppKCK4Wuy7hfQgBfuDAgYlrfJKl5bhpCfeJIVTbtlRcqCjEMQxIfi6XXC+CPumG685gsBnbtBsNeYlWMMYApDbKubDTsKXNaPGnmxmt/KSN6GapC3/2hb1RQW0bm5DaQwj/XO485+l+Trn5WwKzQKCLoO9yzKRr7fNcnpRG037E8ZtONgt/ZsRt8pN/1qqf/HD3yTOYrpo0+vFOmObHv3TXuXupuObk3Y3phzvOyemP/PRPmwegHKugV5+mYp+7fQr/jkWaCgXEf4g2vNPEMkn4Ex5xaJXFQw8LaXaZYItj8NQSyw9+8IPq/OkEThE+bRuDLqcNsqUFl+tEsHVdgkuTdyHEfoRTaXgul1wvgj7p0tUElutZgxv2k8bHQ1K6wJjuPeH6k9Z4+r5HqzxdzujPX2/xxyMQ5+jT1ed973tfGYcKZHRjaxL+5C8mtqM1nnNPW0L4kyeupcsa1zipxT895zzdz+l1+VsCs0KgTdi3hXW5vj7P5S7pxTEI/3TmXn4zsJf9dJ+hNb3uJz+Efwjv8fBpfvxHwh1h3+aHPyoe4+mfjk/FpB4e8wCULf708V86WJx57s3FGc+/pjjjeVvKZ3xcv9v5IKDw71iOqVDA6wlChH3p0ib8GWRJy3laUejTAkzLaiwx2y2iKFpaI2zaFmEYAomxA21LDNQkn12XEKhNwp804ppDYHZNd6PH5XoR5Eq3fr0xOHdSdxncstKVLMqWcmAQNXbHggepq666qqp40ZLOMdHHP160bFmm9fGPOQNII53QbpLwf/bZZ6sBxlQCovJbnqzhz0c+8pHyWrievisVrGnLvNzP067TcAkMmUA8d+K90baNZ1OX68n1XG4T/rtWjrb70T+y0uhHPyb4muTnH887DNS9dGVCfNx57l5a9zwCeBAKP/5MUHa+wr+Lic30MQr/jsWXCoVJUdqEf1McPAQxIDNdoz/0Jz7xiTX7v/71r1dJ4OkkHpCIomkiqopYFGVXI+JyHkRa20L3HI5tmy22Hj/yNUn479+/v0wTLzDP5ZLrRdA3XbqJ/fznP++9Rgv+Aw88UMVNv/bQhQZboFzZ3nrrrWUXM7qZxUqrPl97GHCOlynKKoR/9I/nawHLJOFPxTEdP5DaJfEmCX/CmL+AvHFeWuXXM4cE99h73vOe4vHHHy/z2fQnHcvQFM6+ebmfJ12f+yUwKwS6iP8+op/r7vtc7soK4Z969Un7+G+/Hj/74376Q1gzEHdnQ3gI/0l+/omPd56RH/7x9KMr0KT4afpN54/0Ef07Dh0qzl86UJx57k22+Hc1ihk8TuHfsdByCAVO/Yc//KFsmUWcsYQwQjgz2ROiOxXodJOIQZxRSUi/IrRdDn2yEVwIL4ThtOVb3/pWeSwtxV2XacI/OHJcel1d01/vcbleBH3TjZb24LSRbdq/Hy58DUBMt6X59re/vURY7+qDVynixYRaTcIfWw23nRzLlycGEqcV1zvvvLM6P1910jB+U7EIu8UlbTozcJQt3ZdwTYuAp3JMpSe+bEX63CdNXz+iS11bxYDzhB1y/KSlb0WedJ7L+3lSvt0vgVkj0Cb++4p+rr3vc7krrzbhH372EeKI6VhjcG4azjGxhh/+1I9/GbZl1U9/zQ8/YwIibbajeQL2NvrxJx3CX7Nnb7lyLsYEpGt5/uW9hcK/qxXM/nEK/45lmEsoHD9+vBRK99xzT5mTVPhfd911ZVgq7ON4Wm0jT9FqO+1SmEU4RCHehqYtMSiZfHRdIv16iz/do6h4sD+uEW9JsdBijRAMDrF/s7a5XgR908V96549e3qvIZaphEX8j3/842N44EgZwDL1hhNCPoQ/lS7SfOMb31gOuI1yi8G3iHbCYzA6XxeiwsmxuK5liXhdt4h1BqKHDRAPsRwLgp19nJtBcCdPniz/T8cyxPwY5Od3v/tdGRXbYokwutXFtUTa6Tbunc0W/nF/hh3HdWL3m30/p9fjbwnMOoEm8b8e0Q+Hvs/lruzahH/4yQ//++GPH8Gf+tHH/366vnbP3tKHf7Mf/5Gf/oiPgCfdWDkX6ePnn2Nw3Tny3z/y5c95qvB9N5behdJwflPh2L7vxmLHwVuKHQdt8e9qC7N8nMK/Q+khKqJPMyJ7Ukt13xZCuk3QdxtxEGmmQgGBhAhiQCYLQibCw3tLtOAfO3as9Uro2hHikcGeXZZ4ENO1o+sSApDByLTwvvWtb63yHK2w+/btK68r7e4TQiyutev5uh6X60WwkXS5Zq43RGLbtUzr4x9xQ/jXx2UguCmbEP5xPFsqloThxemOO+4o55TAc1S6YJ/kARsi37Ews+7Kykq10jc/bIAvVmkYv6N7z1NPPVVWTpjULV0OHz5cxg+h3yT8EdHhTSi+RjHg+S1veUvpPhfRTx7e+c53pklXv+fhfq4uxh8SmCMC8c7h/l2v6AfHRp7LbTjbhP8bbjtcXHnsROl9h4G4lx5ZKep+9gm/9uTd5Xr5kaPF6959Q9kSj+jHD/+uY6N5APDgQ3jEj3BcgpL21afuLi4t/fDfUAp7RP/rbztc7Dp2omAQMSvHMeC4XE/eXeaLAcDsZ2VMQZo+op/rY3DvCx3c22YGMx+m8J9ShIjzq6++uhIzPJBoJU1bKSOJvsKfbhKkR3/+WELYR4s55+IY+tuHN560hT8EM8fQ/7tp+fWvf112l+AYug5F2k3HpvtCXE1yqQgDBD7ClYpRdBfhPPWVFuiYvZi+3hEe3oo+/OEPl/vw5pJjyfUi2Ei6MaEZLO67777Wy84l/KlcRoWQLzBURMgPFYe6jTPY+8knn2zNJxWEKNuozE6KQFce7q9Ymiq2TcKf4xm0vLy8XDB3BfYc58S7UHw1YN+DDz4YyZfbebif11yQ/0hgzggg+Dci+sGxkedyG8424X/lseOln30854QfffrUR1ceRDt+9sOPfunn//IrqnBEf+rHfxR+On6Ej6W/2hUI0R/xOT8rx8b5+J2ulR//HaN5BsI70SuXDhZnKfzbzGDmwxT+U4qQvvAICMQRLaMXXnhh+X90S0HMhm90WhJpKW1zVxjH4lKLNFkZ8BlLXfjjeYeZdZmiPMQNE3ClC62jkcd6v2e6aMTAUNKmEtBloUtKnC8dRJrGZSbYOCbdcj4qS7T+MqD0V7/6VRqt/B15RtASDk/SiK4lYxE2uCPXi2Cj6d54440VwzYXp1GG9fKtY4kWf1jyRSVWKovsS1v8GZgb9oanHQQ0thiVTVrOo4W+fp5J//cR/vU04msB543KaQh/7GnSEl3SYBRLdG3CrtL7cdbv57g+txKQwGQCG30uT0q5TfiHO826n/7pfva3FufvXipb6RHr9fjh1SfcgY6Hjwb/1sNpHGlbq3kEVr0GKfwnlfr87Vf4t5TpQw89VImyENsI+9QtYgjeEPEIKVb6H8dvwuI4tiFqaKGnqwTnYRvCh2OizzIee+jCEPHrXlTIPmKLPv8cg/iJigStoSGoyctPf/rTiVdLtwzEFRUMvgrE+RCmkxbmF6CrEccw0BPhivDssvB1JPIW5yLvcd1d0uhzTK4XwUbTxRbii1J4T+LBzhwLdMnCLm677baqPKaNzUiFf3BNtwh/Wu3TQboI/XD7CVOEcoTT8t+1TIm7EeEflRsqi7Gks0xTIaDina7xJYRrxH1pLNw3hNGvPuYYmPX7Oa7NrQQk0E5go8/lSakzydWaCbxKP/63lDP6hvAf85Nfm8CrHs5gXfrs0/2GFvmx8FVhHsJ+PHyt8I/w73//+0Xbyrtl+/btRVQs8OiD+Lerz6TSn5/9Cv+WsqT7BYLi4MGDY0fRxx6hgWcVBAbCOsR/bFPBFb9D3KUJRr/mOCb6N3MM3S0i7bRvdRqf3wxypLJBV40QarSekyb7cSHZtjBQNM4fW9wm9m3xbTtHPeyJJ55YI/6//e1v1w/ZtP9zvQg2I12ENt5qotyo/NQri5QJAn3aEsIfcUw6sUb3F4R/OoMyXayoaNQXXh70mycf07r3pHE3IvypfDAOIK38UTEiz2GTTVvuDyqszzzzTJqV4s9//vOa/2f9fl5zMf4jAQlMJLAZz+WmxEct/snMvSdPrQ6KvaWDH/2jBd1raGlHdPOeP++888qZexH+lx2ZEL7qzvOylaON8wDg2aeMXwvnndK2nj7/aJ4A+viPBvc6gVdT2c/TPoX/lNKkxbE+0HFKlN7BdBf64he/WK70ua4vTJBE/+ppC+KOlvR0oatQ9K1P99d/c410I+FcPDS7+EKvp7Ge/xF55JHBnjmXXC+CXOl+5StfWeOVBztM+8NPYoVQ5ti6vVC+7Ef0s9D6Xe/DX0+TrwvTuhbV41CedInDo1B82aofs57/qZxwDU1rWlGYlvas38/Trs9wCUggbx//dOZefPqPvOHcUmyb5KefCbKWlorXlX7+ryjHT9HSjug/++yzS9ecCHf89O+8fDwcl5xV/F3dwy+44IKiba3Ov/pFQuG/OHeOwn9xynqhrzSXQM+V7kIXlhcvAQlIYAMEcj2XEfl14c9XAFZcaeKzP/Wxz+8mP/50rzlry2glnLgRP/z7xzb108/vF5+ztVzL8C1NfvzX+vmPdNjW88a+0eDjvVUFxpl7N2B4MxJV4T8jBWU2N0Yg14sgV7obu1pjS0ACElhcArmeywj/NTP3Rh//Q7ckfvSXCvzrhz9/BD1+9lnxqU/rfepLH9/8lZ9+wlfjxva1y8vF9v37y5X4r1paKtdROksjd6Br/Piv9fNfpsPcAYn/f74wsLKP82+r/PjfUij85/++UfjPfxl7hRndu+V6wVhoEpCABCSwPgK5nssI/4uPHS/+8+FHiqseeKTYcfCuAveXDIhFMLPyu75yTLq+YulAcf7uA8UryvVgcf7u03EiPdIY/T5QcDxrmkYZRrzdo/hx/thGHtI47EvDIyzd/9J/P1D83ctuLs54/jXFGc/bUo6vWl8pGGuoBBT+Qy0Z87WpBHK9CHKlu6kXb2ISkIAEFohArucywv9fbztcXHz8RLHj0LHiny+6tZzs6sxzby7SlQmwWGMfv/GNH+sLz72pOPPlsd5cvODlo2Mj3trtTcWZ595UECfix/ZM4r38dPw4X2wjHY7nd+yPbYTH/2xL0f/3Cv95vl0U/vNcul5bRSDXiyBXulXG/SEBCUhAAr0I5Houx4y5DMR92SW7i+e/9JpRyzit43O2/sM//kdxwQVvKl2F94LvwYMnoPAffBGZwc0gkOtFkCvdzbhm05CABCSwiARyPZcfferp4vj9/1Ps3HVF8YJ/Oad43llbRt1h6BIzZyui/847T4zNfr6I9jRv16zwn7cS9XoaCeR6EeRKt/Ei3CkBCUhAAlMJ5HwuP/jgg9WEmU3ziszLPiYF5Vpd5o+Awn/+ytQraiCQ60WQK92GS3CXBCQgAQl0IOBzuQMkD1lYAgr/hS36xbrwXC+CXOkuVul4tRKQgAQ2j4DP5c1jaUrzR0DhP39l6hU1EMj1IsiVbsMluEsCEpCABDoQ8LncAZKHLCwBhf/CFv1iXXiuF0GudBerdLxaCUhAAptHwOfy5rE0pfkjoPCfvzL1ihoI5HoRRLpuHytkIANtQBsYkg00vArcJYGFJ6DwX3gTWAwA8TLa7KuNdN0qeLQBbUAbGJYNbPbz3vQkMA8EFP7zUIpew1QC8UKeeqAHSEACEpCABCQggTkloPCf04L1stYSUPiv5eF/EpCABCQgAQksHgGF/+KV+UJescJ/IYvdi5aABCQgAQlIICGg8E9g+HN+CSj857dsvTIJSEACEpCABLoRUPh34+RRM05A4T/jBWj2JSABCUhAAhLYMAGF/4YRmsAsEFD4z0IpmUcJSEACEpCABHISOCMEkdthuSGzPCwPbUAb0Aa0AW1AG9AGtIHNtAGF/2Ma1GYalGlpT9qANqANaAPagDagDQzTBuzqk/N7imlLQAISkIAEJCABCUhgIAQU/gMpCLMhAQlIQAISkIAEJCCBnAQU/jnpmrYEJCABCUhAAhKQgAQGQkDhP5CCMBsSkIAEJCABCUhAAhLISUDhn5OuaUtAAhKQgAQkIAEJSGAgBBT+AykIsyEBCUhAAhKQgAQkIIGcBBT+OematgQkIAEJSEACEpCABAZCQOE/kIIwGxKQgAQkIAEJSEACEshJQOGfk65pS0ACEpCABCQgAQlIYCAEFP4DKQizIQEJSEACEpCABCQggZwEFP456Zq2BCQgAQlIQAISkIAEBkJA4T+QgjAbEpCABCQgAQlIQAISyElA4Z+TrmlLQAISkIAEJCABCUhgIAQU/gMpCLMhAQlIQAISkIAEJCCBnAQU/jnpmrYEJCABCUhAAhKQgAQGQkDhP5CCMBsSkIAEJCABCUhAAhLISUDhn5OuaUtAAhKQgAQkIAEJSGAgBBT+AykIsyEBCUhAAhKQgAQkIIGcBBT+OematgQkIAEJSEACEpCABAZCQOE/kIIwGxKQgAQkIAEJSEACEshJQOGfk65pS0ACEpCABCQgAQlIYCAEFP4DKQizIQEJSEACEpCABCQggZwEFP456Zq2BCQgAQlIQAISkIAEBkJA4T+QgjAbEpCABCQgAQlIQAISyElA4Z+TrmlLQAISkIAEJCABCUhgIAQU/gMpCLMhAQlIQAISkIAEJCCBnAQU/jnpmrYEJCABCUhAAhKQgAQGQkDhP5CCMBsSkIAEJCABCUhAAhLISUDhn5OuaUtAAhKQgAQkIAEJSGAgBBT+AykIsyEBCUhAAhKQgAQkIIGcBBT+OematgQkIAEJSEACEpCABAZCQOE/kIIwGxKQgAQkIAEJSEACEshJQOGfk65pS0ACEpCABCQgAQlIYCAEFP4DKQizIQEJSEACEpCABCQggZwEFP456Zq2BCQgAQlIQAISkIAEBkJA4T+QgjAbEpCABCQgAQlIQAISyElA4Z+TrmlLQAISkIAEJCABCUhgIAQU/gMpCLMhAQlIQAISkIAEJCCBnAQU/jnpmrYEJCABCUhAAhKQgAQGQkDhP5CCMBsSkIAEJCABCUhAAhLISUDhn5OuaUtAAhKQgAQkIAEJSGAgBBT+AykIsyEBCUhAAhKQgAQkIIGcBBT+OematgQkIAEJSEACEpCABAZCQOE/kIIwGxKQgAQkIAEJSEACEshJQOGfk65pS0ACEpCABCQgAQlIYCAEFP4DKQizIQEJSEACEpCABCQggZwEFP456Zq2BCQgAQlIQAISkIAEBkJA4T+QgjAbEpCABCQgAQlIQAISyElA4Z+TrmlLQAISkIAEJCABCUhgIAQU/gMpCLMhAQlIQAISkIAEJCCBnAQU/jnpmrYEJCABCUhAAhKQgAQGQkDhP5CCMBsSkIAEJCABCUhAAhLISUDhn5OuaUtAAhKQgAQkIAEJSGAgBBT+AykIsyEBCUhAAhKQgAQkIIGcBBT+OematgQkIAEJSEACEpCABAZCQOE/kIIwGxKQgAQkIAEJSEACEshJQOGfk65pS0ACEpCABCQgAQlIYCAEFP4DKQizIQEJSEACEpCABCQggZwEFP456Zq2BCQgAQlIQAISkIAEBkJA4T+QgjAbEpCABCQgAQlIQAISyEngjMcee6xwlYE2oA1oA9qANqANaAPagDYw3zag8LfiY8VPG9AGtAFtQBvQBrQBbWABbOCMZ599tnCVgTagDWgD2oA2oA1oA9qANjDfNqDwt+JjxU8b0Aa0AW1AG9AGtAFtYAFsQOG/AIVs7X2+a++Wr+WrDWgD2oA2oA1oA11sQOGv8LeGrw1oA9qANqANaAPagDawADag8F+AQu5SA/QYWwq0AW1AG9AGtAFtQBuYbxtQ+Cv8reFrA9qANqANaAPagDagDSyADSj8F6CQrb3Pd+3d8rV8tQFtQBvQBrQBbaCLDSj8Ff7W8LUBbUAb0Aa0AW1AG9AGFsAGFP4LUMhdaoAeY0uBNqANaAPagDagDWgD820DCn+FvzV8bUAb0Aa0AW1AG9AGtIEFsIH/A2bXjqaFEI9zAAAAAElFTkSuQmCC;" parent="1" vertex="1">
          <mxGeometry x="1348" y="660" width="472" height="255.1" as="geometry" />
        </mxCell>
        <mxCell id="Yh9lpEzUiPftYrS5x7hQ-1795" value="" style="shape=image;verticalLabelPosition=bottom;labelBackgroundColor=#ffffff;verticalAlign=top;aspect=fixed;imageAspect=0;image=data:image/png,iVBORw0KGgoAAAANSUhEUgAABEYAAADmCAYAAADY64DoAAAgAElEQVR4AeydZ8wFRfXG+W78ZGL8oB80xhj/CSEaooYYhVhiix1RFBEsgIACIkXARlMUDCBSRQUFpYiIAqEICFJFOkixKxZQ7N3957f43Pe8887u3du3PJPsnb270/bsOWfOPHNmdpNrr7+54Ljvvvt8mAaD5QHJQeFgCrSIAuJL62f3T13iAfFti0TJTTEFFk4B8X2XZNVtdd8ivl24gLgCU6CFFEj5fxNdsHK0chwyD0gOWiizbtKAKSC+HLJs+tm71zeJbwcsun70AVJAfG+d1T2dNeR3Jr4doMj6kU2B0jkEGVAwMGIvkcF6icSO0B2DVILjNlFAfBl51ec2utvOA+LbNsmS22IKLJoC4vu2y6fb5z4k8oD4dtHy4fJNgTZSIOV/AyMGRgyM3HffBsSwjcLrNg2PAlLY0YjxuY3atvOA+HZ4EusnHjIFxPdtl0+3z31I5AHx7ZBl188+XAqk/G9gxMCIgREDI8PViC1/cinsaMT43EZt23lAfNty8XLzTIG5UkB833b5dPvch0QeEN/OVRhcmCnQEQqk/G9gxMCIgREDIx1RX8NrphR2NGJ8bqO27Twgvh2exPqJh0wB8X3b5dPtcx8SeUB8O2TZ9bMPlwIp/xsYMTBiYMTAyHA1YsufXAo7GjE+t1Hbdh4Q37ZcvNw8U2CuFBDft10+3T73IZEHxLdzFQYXZgp0hAIp/xsYMTBiYMTASEfU1/CaKYUdjRif26htOw+Ib4cnsX7iIVNAfN92+XT73IdEHhDfDll2/ezDpUDK/wZGDIwYGDEwMlyN2PInl8KORozPbdS2nQfEty0XLzfPFJgrBcT3bZdPt899SOQB8e1chcGFmQIdoUDK/wZGDIwYGDEw0hH1NbxmSmFHI8bnNmrbzgPi2+FJrJ94yBQQ37ddPt0+9yGRB8S3Q5ZdP/twKZDyv4ERAyMGRgyMDFcjtvzJpbCjEeNzG7Vt5wHxbcvFy80zBeZKAfF92+XT7XMfEnlAfDtXYXBhpkBHKJDyv4ERAyMGRgyMdER9Da+ZUtjRiPG5jdq284D4dngS6yceMgXE922XT7fPfUjkAfHtkGXXzz5cCqT8b2DEwIiBEQMjw9WILX9yKexoxPjcRm3beUB823LxcvNMgblSQHzfdvl0+9yHRB4Q385VGFyYKdARCqT8b2DEwIiBEQMjHVFfw2umFHY0Ynxuo7btPCC+HZ7E+omHTAHxfdvl0+1zHxJ5QHw7ZNn1sw+XAin/GxgxMGJgxMDIcDViy59cCjsaMT63Udt2HhDftly83DxTYK4UEN+3XT7dPvchkQfEt3MVBhdmCnSEAin/GxgxMGJgxMBIR9TX8JophR2NGJ/bqG07D4hvhyexfuIhU0B833b5dPvch0QeEN8OWXb97MOlQMr/BkYMjBgYMTAyXI3Y8ieXwo5GjM9t1LadB8S3LRcvN88UmCsFxPdtl0+3z31I5AHx7VyFwYWZAh2hQMr/BkYMjBgYWSIw8p///KcjqmI5zfz3v/+9nIo6WosUdjRifL4co/bee++t1Y133nlncdttt9WmGeq7Et92VOzcbFNgKgqI74cq95M89z333DN33TlOZ9O+m266ae71TvLcbUwrvp2K6Z3JFOg4BVL+7x0wcuGFFxZf//rXl6b4ttxyy+IJT3hCgZGcU3if/OQni5e85CXFWWedlb2fy1N3bZdddike97jHFRdddNFcyqur6/nPf37x9Kc/vbj22mvLur7yla8U22+/fS8HA6lgTCLn//znP4snPvGJxXOe85ziF7/4RWXWa665pthkk02KHXfcsTJN1Y1f/vKXxaabblo89rGPLf785z9XJZv79X/961/F5ptvXh6czzu8/OUvL5/ptNNOm6rou+66q7j55punyjtNJtrLu/773/+ezc5zvO51rytlJptgwoviyzo5bcO9z3/+88V11123cJ3Es954443Fk570pOKlL31pZX3I2Ktf/eqp2vSNb3yj2GyzzYpXvepVleXTjve+972lPO+111616eL7OfXUU8u2o1vj9b6di28nZPfK5I888khx8cUXF8cdd1zxiU98ojj33HNL+lVmKIriv//9bymHn/vc54rDDz+8+OpXvzo2D+XBX7ynj3/842Wdv//97+uqKe/95S9/KS655JLi2GOPLT71qU8VF1xwQfHb3/62Nh/9xqWXXlp85jOfKY4++uiyrVV6hcHc9ddf3+h4+OGHN9Q7Df02FJJc+PGPf1ycd955JW2h1y233JKkWPtLm3iGuuM3v/nNWoaOnonvuyzPgL0nn3xysd122xX77LNPrZ66+uqrS7vkhS98YW26HD2wnR/zmMcU2Mi5+5Ncg69e8YpXFE9+8pOL73//+5Xl0T9jg9HeJiAKbcBuww6mrbfeemtl2ZO0t21pxbeLErsf/ehHxUc+8pFSR9bVMYlOjOU88MADxZlnnlnqIsZaP/vZz+Lt7PmidTb81VRnQ580rFpn/+Mf/6jV18gcdO9DSPm/V8DI5ZdfXiovFN+JJ564ToGh4N/+9rdPfGC41CkxDHTqu+OOO7LpUNbcP+WUU7L368rO3XvjG99Ylke5ufvzvAYAQ9uhK+UyQOY/HeY862lDWalgTCLsGNzQhQMF95Of/GTd8bvf/a4sjsEaabbeeuuyg6WTTY8//vGPlVUzECQ/RmgaPvShDxVPecpTGh3Qu2mgo9KzcT5t4LkAd+KBIa2y6UDivXj+pz/9KVvtD3/4wxJUoQwGIjEcccQRxR577DHxMY420Jj6/va3v8XqRufbbLNNeR+Adh5BfNkGGalqw/HHH18+M7ow6ksM7B122GFinYue/sEPflCpY77zne+U9T3rWc+qTIMRy3uqM5KrnofylZ8BdS7dVVddVZZPHchjLk3uGu1R2Qyk0zRbbLFFCZxAy7rj//7v/zbkTcta5X/x7Txk4IQTThjJOfSOx6677lpgQKaBZ3/e8563Lq3yoRcwitMAqC0dq7SKsR+qvP14j4ClSqsYEJu25wKDrac97Wkb8pD3nHPO2ZBFZTaJU5B5GvptaEC4AO2YIMm15Q1veEP2faCPc+njNcChrgfx/Splb5K6sT++9a1vlfbyAQccUGy11VYb3hP6sKpMbEPeIZODVWnQefB7PM4///xRPWefffa6ezEdNkJVufH63XffXdAf0JbXvva12TykAeAgzc4775xNE8uM5wDZ5Mv1B7vttlutro56PPaPsfxVn4tvFyF/2G9M6kG/vffeu7KKSXUiBWGTos8pOz1e9KIXZXUR+Zahs5kQT9tU9T+dLG2Dzmaiq6q9us7kUR9Cyv+9AkZwzXvXu941epmHHXbYSPmBJOtlThJ/+ctfHpUBKIHhFA+V9eIXv3jddRB3lB1KkTSXXXbZqJxZlOB3v/vd0XMwszlLWePy0tnRdmbqSKtOkGt6vnFldOV+KhhNhZ1ZSQFG4oU0ZrDz4IMPjt5bej/+p+NUYHDNbLQOGS0MznWN+LOf/Wyx0047NSqfunLotOpM43kBI/vvv3/j9kV6cI6XRi6wDIcBi9IDPipUDTqUtipmwKvwzne+s8DQj4fyveY1r1l3HeOSIOBkXki6+LLNcsTMATwObRj0M7CjvVFXiW5NY4xYymBGMupbzp/73OeO6krvffvb3y4EWgDsTks3DBO1VfovloU3CvfR+/F67hzQEsNHh/qEZz/72aNr3MPrRvdUd1VMulxdbbkmvpUsTRtrhhc6PP7xjy/1HDpPhjbXU+OMgXuUf2QSgA6gQvTE8zKGv/71r+v0OHmQf+pUHspIA+Cf7hMDxuAxFq8BnMfAO4ptQXbe/OY3r8uTgt+xvHHnDDQVpqGf8uZiZhGf+cxnjtrKOe9D8k/beH76xRjS58s9g4GR5SwRhP8YoGriK/cu8Jijb8UGkU6hD3/Tm95UXHHFFaNrsgnrgBFAiFwdTa7hVaL6x8W0S6DzkUceuSEfoAZ18tzjABdsCelrYvU56N14/aMf/WhJkybPQhr6p3HPsYr789LXUeY5x36M+rAKGOGZJ9WJlL/77ruPeIv86OhnPOMZo2vop9Tjb1k6exJgBHBNoS06+6STThrRsYq/075Xz9C1OOX/XgEjUigAInqRuDvj0sRAno43PTTYpCNI7/E/uoerzCbxhz/84dINSWmvvPLK0sjH0I+H2kwMeIJBPu4QMo4RNi4t7mWxjknOZaQz6FM+3B55pqc+9amja7rX5TgVjKaCTQeqd4wniM4B6FB2HMyWyTDEoD/wwANH6bgOr+iIS3FwPVR5dTHKPw0g4uR561vfmt6a6P+8gRFAJJ65yaGOhbguxHcAzTDK4VkGJOnxyle+sqQLy57Se/z/9a9/PaqqjubpPdzh8QzSdbyGeJfpMSq84Yn4su2yxZImjGY9P/r29ttvz+pU9KpAV0CnnN6VmzPLIlVmkxiwGG9B0iJrUdfq/IYbbmiku/CMo5zUOGfgqbbEQULVOxoHnKosBuJpGe95z3vKuiLIn6Zp43/xbUM2zyYD4BBtkFd53pEYUHTPPfcc3Y8eYwDFygdvaZBOeQxqdA/wTSHmYVAl7xCWD8aBHV5qMUSdzxIchV/96lcj8AaDPYaYB/tC4Q9/+MMoDx4oMXAPAz93sNRVz4R+075N09Iv1pueR6P9qKOOGt2GxvR1asf3vve90T1OBBjjlZB7Bq7R13Q9iO/bKJOxTcccc8zoXeFFAcCrd1fl1SC7k+VTKmsSYAR9DH82OeTtRay6msR6LgASBsDKg9eKgCDS6HpVrGWSoklVnPPcA+AmPeB5Vfltuy6+naf8oQMigA1NqoCRaXQiXvp6L9gRgNsKUU9xHkOsa5E6G/1bpeuwC+VlSKxlhG3S2UweQF9ksOo5aG8fQsr/vQRGUDoYRBIajKacIsIwkicJAEMuTbzGDGh08+NcBj5IcLyHUv7Sl740aoPaksbR6+Md73jH2PRp/nH/mZXUMzBgmGQ5kdB3UMGYj+soIq5BZ5Xf5TgVjCbCfv/994/e1xe+8IXSANfMGQMZBfbA0HtiwEdgpoFrzHhXBQEjKHYU+Kc//elywM9+NjooIweMsNade6zHrwoMXCmz7hAQRlkAPHVpuVfljSKPEejUNIhu44ARygPUoI0cyF4uMMjRTDKuvOMCXj5xSQ/n6sx4zniPDgLwU22oinFdniSIL7sgW/C2wASM0Kp9l2RMQyPtX1T1fAAuUa9y/rWvfa2kM0ZXeg+d/r73vW/se6iqDyARV2wOAXOsR9c1YgHG6MF4HYM4V66AkW9+85vlkkpk/4wzzihnY5mRlTGfA0Y0YJnXHlW59i3imvh2El5P09KnSo6iAat0DKQ1y8iAW0HgB/eiscx9ZFZlnn766cpSvOAFLyiv4yGSLpPDE1V5mEWLQR4lOT3OO1M+9uMg4Faua3idpYH9UHQ/AjdpOv1H72iGFPABA1ZhWvopfxoDFkl/MrgV4KR0GPtqO/usKLCMUtcjgKX7fYrF94uQqXmWCW+lALHeUdXyw1mBEWyRps8gQLwJMII+jXqY56Ct8Zrazj0AC9076KCDsm0SMIL9w35G6BfAfvS1DsrKASN4CHLvAx/4QLbspjRYZjrx7TxkEb2w3377jWQeWujIASPT6kTZ0JSNB1AM2HrSzUzCxaDrq9LZtEV9FG2Pe+S1RWfTRtkt8HHfQ8r/vQVGUCrM/NQBHnTeMCYGLh0FR50ywvBP94SQkUwno3tCqnExpXy8KzCu48F1jrjEho3lWLubO5QeQCJ3v+paVPyLAF6YJa6jWVfupYLRRBFIuTGAkpEID+hd4TVAYCCIcgasUMD4lpFZZSwKGGGmG16mXN5zDFwDGKEjgN90cI17KH9dI2awqoC7tto6rzgONlQPsYAR2sWynyYHAwfa1QQYoQ6WvQE0VgXaRnkMmKAXR13gnbLRbTw08/nQQw+Nrgs1P/TQQ8vyGagAJsZD9AVMmySIL7siR+wNwr4PVbOOPIf2SdIylHF6l/vSrcQsbYGeACPxuvZ5EjgJKBx1rtaJA9pU0VNgsN7XJDFeX7lyZWBAG3koxkGCBgEAI3h6oVd0qD3QTNeI9ay5+tpwTXw7Ca+naQEW0BcYslWyqhnJ6BmnZYXIeQpy0DfrncaZRPZRQD8zG54GylAeQKwYpA9yy/3wIlM+AcaUhb5nY1d4Nw3RMI4Gc5pO/6P3IXljmJZ+sYx4rr19eCZ4LBdYQgj4xJIbhejR8vOf/1yXexmL79sgg5O2Qby6KGAEEAF7sckhQLgJMIKNo7ZPGpM3RycBI3hcy3YBTIlpqYtnon+Kuplr3KO/idfjsqRYThvOxbfzEMroZYzuZsJIfWAOGJlWJ0J3bNjouRbbD+/wHlIAetU6W97ctA0bP4a26Gz6W9rHgQz0PaT832tgpE7hMNMooxNDmRk84tzmSionGgZimlys2VJi7msHfZXDDBR1c9RtMqj0xGor6/nj9UnOMcBzbutV16TgMTqr0mg/gUna0ca0qWA0UQR8QYABjmYDlQdX+2jUikd0XzFGOkajQBVdV4wBDaCCu7VmRpnZxBjWQdnMUETjXfXlYu2FQR0MrjD0qw7VmZZTlZ7rzPDngoyLtKwm/5sCI7l6dQ1jXc9DZ40sEzNDWxUw4pu0j3IYCBCTPp3dxrWdujnkol9VZ3pdfNlGmZmmTXIzhk4Ymsz6oNui51xaLp5ITd7D61//+tKjirSUmXqsCICAn9I69F96Fs8mjJQmB+VRJ0aOyokxMy7MsPNVLz0HOpVlMhwve9nLSs9DDLwvfvGLozRKm4urBi+x3lWei29Tfp7nf776ItpEz7i4sWP0UEPPxj3IWO7SJPBeVA99dwyAzboHvRXQxwK+AUqbBIxRgcHoknG6goka1Z0C5k3qq6JfVV65p2uZD/SEHgDSTPDkvoZDWVrahv6DRkxI8R723Xff0uiu23C8qi1tvS6+X6XsNambd4mtGw/xEjo5XmcgR5nyuph2KY3KnySeBBjBxmiir0mjDTurgBF4Fp1NWvUJAO3S2VriyPKxuKSj7tnavC+f+HYeciVPPjyMJdt1wEhdnZPqRJUVwVjoHsMqdTZjBvULADT0E5OEZels7HjxMrREHtjPBX6Hnpr0naTtbU6b8v8ggREMCs0e8vIBMKLxgzLMdS54hYBkjztwJ9cSBDxKqA8EmoEADMcggHqbKH21Q0xKfl1bdKwvbOAWt+i6Vl1+KhiTCDHrA1kDj/LPHXp3uXu6Jq+DXL14/aiMNH7LW95SZhEwwgxq+lUc/muT0giM5OrSNQb31MWMh+rUGnIU5aRBwAiu6Li3NznUuc0KjGDAx1klBh0AoXququfBK4SByriDDkODBjo76mOQ/La3va1cN8/MMHVN8xziy1XLxzzqR38KLIYe6EPtS8KSRL5MlKuHgdc4nct9PHbwqKNsysW9lv8sraFcPDq4V+fiLCN43OZ8sZ3ag6LKY4S0zG5hWFN/7qDtpBMwAiDKTFt6oC/Ib2CkKD2TRMu4Vwe6lEGN7uFBxCBcM4VcR6fWBYBtvDrkfUQePKHSwDuToUsa+A09KRCWaxGcSfPzn5lk9HMsB54fF+Ja+aYgTyyT56F9HJF+MU08Z7BMWr72gCwLCFYZxPBx6t0j+Yjp4jlAC0B1H0JX9LVm0+N7qDqXvpwVGDnkkEPKfadYwjvuwAanPU1sZPXtk3wdTN6yVcCI9HuUkZQ+eISSTsAIe7Wk+pr/AmOHAowgx6kOUL+V8xjJyf00OhE7F/uS96J3Rb0pYLtKnR33smqynDulTeTHRepsvEREw6qY1Rh9CdLbep5eASN8NpJOOB7MYkvJKU47aox17rFnBkzAfzpqpZ80Bghh+QxlqVPRkhvufexjHyvvYUA1KRujWszZJP280mjHZ4CeeZXZ1nJSwZCANInjXiN6T5PGrLPMBe0VQnl4C7GGHCBG68pZpkMQMIIhQaCzZnDAfgwEjHzKaAqM4BpOeg3qOefdEbMcYNIgYAS0Pmc85K4hu9RXBSjgAUC58cCgSoPqpiwODHqCZo343+S792m5+g8QovcBnQkahHGPDoR68eyZNIgv2yo3tAv6Rp3LeZxVJA2GsHb213sAGIFPtRwC4GAW4JclZyobPpCHHyA4bdCn0xmoVtFzEcAI+lsDdfoWDBo2phNATp1co00CRgDS+Y+3DPKmpUka0AwdGJEXAu+bJUhpQO60bEk8ofjggw9Ok2/4L55UHnQQZeYC70np0nicvsVoT/Mw0zouxL1SpvEWGUe/XP0yyiPoA6ihQY+eg6VMMcT75AXQAahK3w907Hrogr6GzkzcoWN0CFDmHTKQ13ViJhHIMyswwiQL++41OTQZtEpgRHuFQBPsKHQ24L1seyZDoIuAEfic/8g8vM3SeP4zBqCMIQEjqRxLBzQBRqbVidETBHqja1JQRO3ivZAmdyxKZ1O37ET0pjbJVpvGxcvU2ekeMYDhXNNkueiGbuhDkN7Ws/QKGIlIoV4cCh8h0BGFR14iAkYwyjWrh2GUumJTBgY/mzdVHRj7+moB5TKwJB/GLwfnamfd/idqL3E0+OuWMegeX+mI+ac91+ZGKPlpy+hKvlQwJCDziMWLk5YVQRHKgCdxa9VAnwGoAi56pBEwgnLnPzxOmAQY0R4O8GlcL8q5PEgwCiYJarNoMUlcBYzgLZOWQ/ti0L4fpJOXiIARnkebLtJxQ8M0YAyx7KHqwCsEY4nyKZf9SAh0yhwEtXOaGQLxZZvlSGBCfBcY3mozelSDIHSijF50JWkAMFQGgzzlizHu91U6l+sY8wwoaQPeI+S96KKLyv8sVeE/dXOf2e5YdjxXO+blMQIoIkBG9KF9bMSqgQbgh9ogzyMGJFx797vfXbYZw5z/BkaK0gNDtASAfOSRR0o50w8zhwJ2SYeMI4PRI4PJiXRWU/mJmUnmM5My6CkHHmZiI4a46TNpAMCwOdAF/EcHsJS2KtBWvFKoS2Aq+fgiQPpcsQzxOmnRP5MEgEHyceToV1WWlvkoL8+ugMeKZJz72CwEwCTRgv1i4le/uC+dTJ4qPa86uhB3QV9L18QYDzW9V/biivd0Ln0VQW9tpL2oz/WuChiJoAh0wRuEZaCaVIVeogv9G2kEjACA8P+DH/xgmcbAyNpGnk2AkWl1IsvL0aNRD6HfsGdjWJXOZvJDMoZ9NElYps6mXdIH9F9p/8KYlus8C3FdPzXJM64yrfS22tArYIQZOFzkOFBKvDgBI+zlEb9WgFuoGFXACIoOt3oZ0Mx8SPkp1uyvGDwXs96WvTciQkw6dR7au+Oqq67aUL7qiXFcm56rL73Gl3Zifp0zqMbwb3IwG69n7duneUWPGKeCIQGZR6z3M0lZGO2gyuTF/U6DSZWFscknHBVSj5FpgRG8UWTI0uGnwAiGrZQi9GsaBIwAXDAr3uQQMFdlMKOg6fQ4BHIKGGF9vvJDM3QCbeec51PAoNfzgoinQbP6onsuxmOIwXacaSAd74+gjXB/+tOfpsWP/S++jLzatnMG89K7mnkUMIJnAxugim7QU5tSChjheeIXvHLA7riNo6XD2aRY3hUMSKmXjUu1LAvPvTr6CRjBgONLBE0OecLkltIInKF9zCAC0ogWxBhxsT2px4iBkTURYZAtb0toh3xhRMeA3MvbAz2lATppuBf3q8FroUmIm+UBrmimL36FBRmP8s3aesBUveuoG6rqpFwB2OQDHMkFnkMgCoOxpqEJ/erKkrFM23KGPbpUfQPeJTHwqeWq5aKAy6JT+hWhWEYXzrugr6O+4VwTIXoHxDmvulmBEfoGAL0mh2z1SYARZrOb6GvSaOY7t5QGMFtfm8SGkKeU6IMujx57qceIgZGNkiqAuQkwEnM31YkxD+fwdQTCtQ/gqnQ2bdKSKviIvUKahFXqbPR1/MpZbC/2nuRBXuvxftfOpbfV7l4BI1Hha40iyhglxuBKL1LLW3LACGVIsZGetVaxXFzCMbbqDhRrmoeyBDAA0jBjGNPUnevrOeTHWKo6GGhQD+h2rjxtPig61MUAO9EgZJO1XJl9uZYKhgSkLo7rz+toOck9BkoKLJ3RlwZQUqDhsSyMaM16zsNjBCUsbyYMAkIKjHBNX3dhMFBl7OoZFAsYweBqGljnz/NWASOxHA18AUYYlERaaXlLDhihDIFI1BUHUtzDUKczrTv0DtQe8lCWNl1kIIPemCaIL7siZ5odY+CE/tDn0KGHjO0cMMLzyXDA8Ey9OuCFOp3Lp9RTGmmWhSWS3APoYxCQpov/BYzQ3kmPHDBC2WxcfcUVV5T14h2jZZWUz7NGz0F7jOSlJHqrQTfAD2QyDfLeIg39eC7Ig4s0qezm0nMNfiY9h2bQ4jX6/DSgGwVg5L5ak6bX/+jtIhBG94jjl2sA0pqEpvSrK0v7VEGDqq/LSO/Kc7GuPN2LXiOA3V0OXdPX6KdoG4vHiXHdj7pxVmAkfokrlps7l606CTAS2970PAeM0B489OQ5wyb5KY3o52Tn22NkvMROC4yo5HE6UeliHPsCAbmr0tl4VYgnd9hhh9jMyvM262yWnut58GzvepDe1nMMAhjRLCYvEiNVirgKGOG+8oAco/i4BtiCEdvkIK3qibvkY9zretOYPT5o+7hNUNmwiHR4pDQtW8yd+zoOYIju01E1LbOL6VLBkIDUxRjYgAPTHKIrs54xfzrThmHMAFPoN94NLJmSlwMdDjMWqccIX7ShjkmW0jCDSh4G9FpWkgNGoIn2TMBgoO5xQcAI5fMsTQ4946TACOCI6BvdvauAEdquPLwPfWoSsAXZbXKgSxRYhqH6c4M3pWsSiy+7IlMCRpgV1KwbMfyoZ6gCRgCPBKSwPIb06KAm+lZp4ufP5Q4NoMwSCNVfFyMvgILTHPEZ0zowrtl8UMALgwzNisIrPKth2hIAACAASURBVC9gUOoxIrBoyEtpADrjwITz6C0X5SgOsvWJ3Hif8+hKHT1O0GPou1wQSMu7kk7RZ4HRU1VBs83yHlM6fa1B/2OsvZWoK6c/BOzgndHEw2IS+sV2pOexXVV7Yul5BQqnZeT+R2CayYAuh67pa71TLSGH5+LEIPely2YFRigb/d7kADAmfRNghI2Kp9HX5GHmW8+XxvQ9LJ9Rn0Sb8NxV2wBn4d3UY0R7QXgpzZokNwFGptGJANtVk3NM9MFDHPK+W5XOjjKVfrVwjUprZ23X2fS/oq3GGGut796Z9LZaPghghI0dUW4RrEAJ1gEj7C2A50UEUtQxiCHqYtzHpWgjSqkvJOjeuBjlLEXM3iV16eX2Tzvr0sV7eoYcMEI6PbOUfMzbp/NUMCQgi4q1CRM0zAVcjwHCBA7wntgMV65tfDFF4B33NDuumTq5uhET5KJd5dLNV1TECwziFKqAERBwPQMgicAE5Utjlq7xLNMcDATGhegxwmAH4IVrMdQBI9AVQ0eDHvJN4hGEp42CZv2hJ8bXLEF82RVZEzCCzsNAhKZ8Gj22vwoYIQ06Dr0rIBZeFF82iVlnrLqifLBUR9eniQGd4fMq/Y2eBkBLARjy8RlhtR1gBM8SzTais3le7svw5lx7jMgLUMuDkG/uR1fuaZ5n0XnEt7PwPnkxerUPEM+NYVsFXpBegDBpAShzIe64z/IP6gC4IA/LnXKBZa/c55DrsHgdgCLn2UE52pMAzxECHkNabhL1bKyTzWFVV2r0432m/NBiXJiUfnXlsbeE2gU9ckGAOYAegYkgdDFtBvjLBWwsldv19eri+0XL1zzKFwgL7fFg1jtAt0hHc002sGzBSfcYYfkEum2ag3512mcFzGTPKvZ0Qj/nysGDMNWlgHPIluxuaMDkJGMCyoCP8TQRvfCE4ZzBP/f19SZi/ktPMDjOtaEN18S3Ofmcx7U6YGRanag9j+jnc0Fe1LwbJuYIehfL1NnUK1tE/UCuvbq2ap0NKIPdhq3O0tNciBMFVWOKXL62Xkv5fxDASJXiqQNGcnlAz5mFjIdmADHI43U6HZWh2WgEFGUrDxTdr4tlxFHPuC82sPyFOvQVhrpydY/0HFXACDv+c3/LLbccPY/y9ilOBaOpAKNEHnjggYkPjEXoyoBH+ePsIMoRxYQCJ2ZtPQooHgwC+LIRAwe5tgkYYUBO+XibEKqAEQz6uH8JM+4xVAEjpGHdJm2jHmZxAXMmDYAVe+65Z2m4VOWtmh2O6SMwEq/H8zpgJKbTOUAqboLx0KAEYzFej3SLGzxDn3GgkerLxeLLrsiaDA+Akao2y+iOe4xUpQVAiHqVc30tiyUp6b24VEaAA/ypDVir6sEYZtaUAR1pADn45C+eL/yPA+NYh8rTrGK6P4pcwtHfeK7gNYKBHA/4CEMb40mApoARzeQyiKauoQEj0auGdz0uoJN43xxV6bXcA9lUEMiLAZ8DOXB/VrmA0gQtKeQ6ejwN9A0CXNhHgwAQo3KQlTTgAaK+AeM0DQzwlL8KxIl5JqVfzJue0ydJ/7F/Shoi7bVkkiU3ai96Pg08r5Yb5Z43Td/2/13R13ig6b2wfxO6Rf8FFKCDuCavkWmBEenINMb+Rq5y+lRp1Rb9T2OAE/Qm4DvLsNDZgBqkQ1bQuTyDQIqYX3sAKb3uoWux09HZxMhQ1NecA/oDlqCfGdhTh4ARyRzeJpSpPpF8qqNtsfh2UfJVB4xMqxNFZ2j/4IMPbmh6BP7ozwmr0NnUKzu5CsSJjY/PVdWHxfR159PobMqTTsabPbfcVLJTRfu6NrXxXsr/Bkb+B1Y0VVS4QaEQpeSEKgMsoAABJSKAgZudXMoFogiBH1cns48yhBGWcelxKYRRq9ZN5vKTnqMKGGFwqDTxuXJldflaKhhNhVeeGqLRLHHcX4T6oSdgQ12ZWq+YLqWR4uKdEXLACJ8yi2s38XRgo9c44I+bFeIyF+9xDvAiYxllCuiXBtyrUfAAHPAThr88KVQ+HQfPmwaBihg5dWERwAj1QSMG4kLF1cExc8tMEbIWZ7B5DxoMiS7RC6XuGXL3xJddkS0ZgfMCRvTcgL4Y8HhgAEIhE3j0YDhvu+225VIopSXmfUlupHcxYGOaeA5vkx59y3WW5vA/6lIta8mBxNrsO+etR1swktWeXCwARsYcgxL0vwx0tVX9wbgBg9KvKhbf5ni66bU4K4VMMYCqOkhLwH2adyYaAx5IPgEoIwgM2KwA/ZUHt2tt1odRGD045AlBPnSD9AGyDnhG/QRAWHlPUK68TLiXti96AQq0IQ/9eRo0UcJ99q2pC9PQj/LwuGOjVQ7kLYbo/YqXoZbyAOo/5znPKWkILeIeJOJZ2kwfowD9GNhynYN32/Ugvl+V3DWpFz0onQgYJdBV70G6BZswAgrTACPYIUzeUCYACwCybFk2QaVOdJw84mL7NcteBZxEsJplmNjmlMezqRwta6EOPZfuRXAIYFzXiWkP10STXIwnIGnTpTQsiyQ9ssN99YkaM8R62nIuvl2U/NUBI9Q5jU6UzQetmRyMS1TwapL9hb0JQEBYhc6O4LDs3io6t0VnRw9y5Fd6nv4Qj1fJAzLch5Dyv4GRCYERMQxfP0CpRWAEtBqGicCH0oMsC2QQsjxOKcoljzJRAuPSo3hJSzvGpdV9MXgKjLD8CMOc63rGuB6TzpQZW9FB5XU1TgWjqbDjXolXzaSHlDadv/JinKcBhc47AnRg0KRDQIeAEYx/yuR748pDPnUIDPy4r81FMWQ1gCcda/MJ4oemMe8bo0QDBPLR+ShohpO6UarMqJMm7qWyxx57lNdoj3br1gBD9zDg9CwqO8bqJAFSqsKkHiOUw8CK9mqQoucEGGGmiXsR+FB6Omq1iYHBtEF82RW5khE4b2BEhhMDzAiMoJ/krYGhLDopPUa42gTApftprK/FMFjmXg4YwYVaAwp5hmC0Y3AjA9KTyFJavoARwE/kXIeMf/6TR30EfK9z+g6Vh1s4bdBgRtfbFotvp+V78m299dalfCFj4w4G2AroNsmp8tHnSudyDVAtzoThJYLuVHpidE7Mg1dJurcG7z/moV4NAnQ9/doVs5tp+5iZU3riKj2mjdhJw0xrXZiWfnGPpNSVGi+YuLSJdqRtZ/Y+Br7WE+mInk9phLHdhyC+b5s8xvZoU0om7OKm1eK/FEBQ3kmBEckG+grPv8MOO6zkccASlcnG2NRLW2gX17UcUffw/MvpO3nF8jl08uWAEa6r3fIM0Sbe3JPex5uJ//GgTtqGnSt9Taz+RMAIk088IzpFecinNgOacz/9kEOsa9Xn4ttFyaDkveqrNNPqxPiVMmiOnRztWvROuqGz+JL0HIvW2dgNqosJnrrQFp3NeCIuJYeO/I96HOA/7Q/rnq3N91L+7yUwgmKVGyACWeXpMOlSGrnmYQCrTBnDGOhap4lBhaJDMeq+drjW7EnVFwykICOqzyyXrtfFAlIYdNali/cksBjhzOrTyajNKBDS6lOZcaZURrueNZbZxfNUMKYRYgbC8JsG0XVlyHUbWtUFgRwopRjIx7sTMBLvMVDnHu7bDFAxRIT4Kh2Kjzag6Gi3wkknnVSCXQBeHOIpysNDQtcVa/kMGx3SKaUGrowhASE5YASQQTOHcjXE2KaTwPiHx6hfG2iprYoBUQRAIl+aIdZ9xZMCIwyWoBEdp8rUgIY2MximXbxzAu9K9/U1IW0ayfKRaYL4sgsyhb5DR0AT9laoavMkS2koA0OWMuER/kdghP8ykGX4xuUrzPph6GOYUgaf8E3bpYEC9+VVkgNGyMcyKfSjwG8Z1uhDlslQRtSTqkvASKqbJV8CRpSeeNttty3L4/l4dgzyeL/N5+LbaXheeaQjoem4g/XmMQDOysMnzYsekzzHPHh76R2medAv3M8FvORSsID8GOjwYi788pe/LPVzWg/6QyB1Lp82sUZvjwvT0o+BhNrFLH8aAJSwSaKRTHqAJS3dTPMAjsTP/ap8ZnOZ3e1LEN+3WTZpG5+rZX+j2E69kypg5Pjjjy/3asBeUD6AavIBbOia4ve///3lPQEhsgX0n3TYzfqcO2A21/h4AHqVerQcEl2ochVvttlmZfnSxVXAiLys1D+ov0CW8Oqg/fQP8L3KJhbIkXoB4k1CHgEjMQ9t4R7LRNnMHu8R7ISYpo3n4ttFyaG8yfiyVVWYVifS98rugvY64HHKzIVl6uwIxMiDO9cmrrVJZ2PPyq4WTYmhNddzS06rnqvt11P+7x0wAngRXVh5kQwqUZqpQpoUGJFCjRv8CURAwVO+UDaQwe3+9zUZBk6qW4AC7WIZhq7HGBRfs6AszVHZMU3uXB0Mhl/uPjSgfga1AEdy+YtMr3NQcg0ScNnVdfJTtmby6wZAuTa09VoqGNMIMoaD6MQArC5IAUKPujApMEInLIMVhQzv0Sb4MnpyUCeGwA9/+MO66ssBhJ4pN5iImVkqE5VlDijIASOUgTs5AxkMaEAH1ckGWvI64VrqPk59qcGNgZ4+K3VMCoywrIg6MXYU1AHTRoJmmZkVwOWQ9NFDBONOz5Lbh0DlVsXiy7bKjdqFzpIRq+fFE0qbjCod8aTAiMAHbciaAiPMcGPYcgByyGBGx6lezfKhrwFadJ0YwI02P/e5zx1drwJGeJ74TALtLrroolKeBMCorapnUmAkegZQlsqlT4n1q/y2xeLbKr5e1nV0FvoDbyKWiEhu6+pXHgZ9999//zqdVpfvz3/+c4ErNDIvz7e69NwjD/xL+6qM+HFlrOo+gDT9Bx4i6PomgXQMOMmjJURN8nUljfi+bfLYpD3S21XASK6MKmAkNymYA0YoE69bBrHIALau2sHgNQ4q4wba2osJvaj2VgEj1EF71H5tiAwIyjVNVqYTkJMCI0yMSk/TPvUNACu58Yfa04ZYfNsGOZtGJ6KLsB2xD7GBq0Ds9Pmss1OKbPwPEA6Psoog7oO4MWV3r6T83ztgRBvXoKAY0MhI1rIPBvsyLPEsQYhYI1ilnJQ2Gt9SxORJgRG+qsAsi74mgJL/yle+sq58EHOu08Z0bSVGu0ARyo6ujlVt5HrcMT41/JUvHUCqA6I+wCTc3FiTidGiPIrVZjaz4j70JH+b3QPV9iZxKhjTijiIuOiqde+5srTBHm2rCwJGKJP9QHSoM48eIwwYNXDnfTIIwPVZg3c6anl41NUZ7zFI0POMA0ZiPs41G069GpAIGIEXq4L2h4BGClo6hFdK7PTkSgkYhKeMZiZIh+cOm9LKZZ7OE8+ZmF/lK1ZaXAQpkwMaKoi+eh4G4sg8u9+LTshHDHgJcI+yxr3vmI9z8WUTHl5VGgaeAoTRtyzbkl6ET3nnAEdykSY9elded7l2k4br6E5oR/lKpxm7eA2dy1JCGaPMYEZjFCOXmUjKIo0M5egtIq8+6tGyRMCeKmCa2XG9c56HfPKuw9BXe4kFjEAXPEp0aHNAeYzQ3wiAp2xmHcnPAIFn4hp9S1WbYp2rPBffpvzs/6ZAnykgvl+l7E1bt3RZtG/HlSVvDOzBmBZbkvKi/hQwgm0S08Zz6V1sUl0XqE0dstVl10fwO+7PEL1aVA4xzyady7JkrgkET71eBIzwHNLXxJpsih4jlKU+j+WS6GfqUr8IHdJ9TGK7Vn0uvu2zbPrZTIEqCqT83ytgBERZyl1gBAar1pvrHjGgBAfKjAOlqHOux7QyQvHwAGWmHmIpf9LK6Afl1gwn16V8o+JjQMC6ce7TAagjAjEX4EBbmIWM+eI5nQUdDEYyXiVqL7PuMV08pwNgoEIallgwE6kBQkyXO8e7Rm1TXbRdz53L06VrqWBUCdC46wyYBUDBdwQG28wAM3hjqUp01x63TjwCI6J7jAFGmLWLm6gChMTZOIAA3aejbjq7R9tnAUYE/vD1HAVAA7WfASpARjzkSUMa9oRQYONE7uEOixcJAQRbZQmMAPjQvg26RyyQA2CDAzd3nXMvphXowQCc90U9xAJ6SAvIQqBdcV0o4FQaoKFc7aFJBFrStOl/8WWbZYn12dAEnQUAQluZuUE/RLpyHnWu9C2x9LHSs5cG5QCQ4LaJAa6lXRikpFMa0gEGy+BFT6FLU5oBilMXefGW4z6AA+lTd+m4Lpg8gCrxiN4x0SOQJVQMAFK9KmBEz5fGACMAM5Fm6OmoX2m/wBHW36fP16b/4tuUn/3fFOgzBcT3bZLFpm2RTpI9mssnG5LBP8tEZSunYIf0GBNtKkcgN/WgPwE34iH9zf3ttttulA+bmnvsncc5Nj3efaRLwYaol6O+1rmekRgghbYBRrOsBhtCbSWOwEjMp3P6ITxmAEt0DftKn/WlDIAc3aePSfuFWN8qz8W3fZZNP5spUEWBlP97BYzIRfs973nPOgWHwsHoRNmiUFGy0RhPjXIpOeLcp2+1dlLp4ppJZilVtpad5BQeM5UYuXH2Uug71xlg5fLpWvRMUDsYJKcdhdLPI6ZNERzJbTI4j3pWUUYqGFUC1OQ6QASb1gmAYBCdDr55ZwAY44KAEcADytHBgJEyeOcMnsQDfEFBXg+xbDwg2LeDdoxbPhPzzQKMAM4wmBWIQLmADrRZ7c3FABZ4YMQvG5AXt8cYWK5Efpa2pYEBKsAKBhyACmUKHFGcq1tgVixPM11Kr/1SSMOSHZXNLFVVwLVemw6KL6rSxuviy1XIRNM69eUgBv8xDwAwgCDgLUYhxrJ0owxqxaKt4tx+Gpp9UxqtLadOLVHEMK6aLSSdjPNoeGOsYuDGtnMO4EN7VV8uBmiu0/MqU8AIfRPyqkNgG8CIls+g/wFRlTfGgOXQDHrWedzEPKs4F99GXva5KdB3CojvVyFzs9Yp/VYHjGgJi9ISYxPinRnrBxwAbIjALhOMArVj/niOvqW/0DJulZnu/0G5eJbqvmKWM0eAJZatc0AS9K7yVMUCRgBvpK+JtbyHZ4legywvl4d5LBNvc+pEb+f6mZh2Vefi277Lp5/PFMhRIOX/XgEjKBUMX7k1L0rJoLT12VLWFab1MEOebmyVpuE/ChZPjHgPt/y0U4j3dc4zMqNNXXx2rK4zU555xHQMtJGB5zzKa0sZqWDkhGeWa2zypS/KEDM7EffjqCobIIG0GAYx4BnBdd4HAa+G3L4aMQ/eKdB7kgCowRIV2ixPiknyV6UFvOEZckcEUqry6zo0oIxFBpbjsGcQB3KXBgyo9P2kafgPmMU+J5ME8WVb5KSqHSkoUpVulut4uKF32fslt1wQN+wmwDB9RM6AzbWNdHiP5I5J+hnaRb140sR6WCrJdYE5zLAyKxrTpOf0LcvS92ndTf+Lbyfhdac1BbpOAfF9UzlpUzomFgFo6wBXdBO2jA5sUGyQSZ4DnYruzB2TllVVLxOUOZ09id4EyEE3p7Y87eY6oAj140Eel23m2oR+h1a5e224Jr7tuvy5/abANBRI+b93wEgblIzbsP6zZ12gRyoY0wiX85gC86aA+LILMuQ2dk/vLeqdiW/nLQ8uzxRoMwXE94uSK5drHbsIHhDftlm23DZTYFEUSPnfwEjy7fJFKB2X2f7OLBWMRQmgyzUFJqGA+NI6pP06xO9o7R2Jbyfhdac1BbpOAfG9dcGaLjAt2k8L8W3X5c/tNwWmoUDK/wZGDIy01r1vmR1qKhjTCJfzmALzpoD4cpmy4Lrab8i2/R2Jb+ctDy7PFGgzBcT3bZdPt886PvKA+LbNsuW2mQKLokDK/wZGDIwYGLnvvtFnURcleC7XFJiGAlLY0YjxuY3atvOA+HYannceU6CrFBDft10+3T73IZEHxLddlTu32xSYhQIp/xsYMTBiYMTAyCw6xXkXSAEp7GjE+NxGbdt5QHy7QNFw0aZA6yggvm+7fLp97kMiD4hvWydQbpApsAQKpPxvYMTAiIERAyNLUD2uYhoKSGFHI8bnNmrbzgPi22l43nlMga5SQHzfdvl0+9yHRB4Q33ZV7txuU2AWCqT8b2DEwIiBEQMjs+gU510gBaSwoxHjcxu1becB8e0CRcNFmwKto4D4vu3y6fa5D4k8IL5tnUC5QabAEiiQ8r+BEQMjBkYMjCxB9biKaSgghR2NGJ/bqG07D4hvp+F55zEFukoB8X3b5dPtcx8SeUB821W5c7tNgVkokPK/gREDIwZGDIzMolOcd4EUkMKORozPbdS2nQfEtwsUDRdtCrSOAuL7tsun2+c+JPKA+LZ1AuUGmQJLoEDK/wZGDIwYGDEwsgTV4yqmoYAUdjRifG6jtu08IL6dhuedxxToKgXE922XT7fPfUjkAfFtV+XO7TYFZqFAyv8GRgyMGBgxMDKLTnHeBVJACjsaMT63Udt2HhDfLlA0XLQp0DoKiO/bLp9un/uQyAPi29YJlBtkCiyBAin/GxgxMGJgxMDIElSPq5iGAlLY0YjxuY3atvOA+HYannceU6CrFBDft10+3T73IZEHxLddlTu32xSYhQIp/xsYMTBiYMTAyCw6xXkXSAEp7GjE+NxGbdt5QHy7QNFw0aZA6yggvm+7fLp97kMiD4hvWydQbpApsAQKpPxvYMTAiIERAyNLUD2uYhoKSGFHI8bnNmrbzgPi22l43nlMga5SQHzfdvl0+9yHRB4Q33ZV7txuU2AWCqT8b2DEwIiBEQMjs+gU510gBaSwoxHjcxu1becB8e0CRcNFmwKto4D4vu3y6fa5D4k8IL5tnUC5QabAEiiQ8r+BEQMjBkYMjCxB9biKaSgghR2NGJ/bqG07D4hvp+F55zEFukoB8X3b5dPtcx8SeUB821W5c7tNgVkokPK/gREDIwZGDIzMolOcd4EUkMKORozPbdS2nQfEtwsUDRdtCrSOAuL7tsun2+c+JPKA+LZ1AuUGmQJLoEDK/yNgRDcc31yYBqaBecA8YB4wD5gHzAPmAfOAecA8YB4wD5gH+s0DwmAMjFzf7xdtQfb7NQ+YB8wD5gHzgHnAPGAeMA+YB8wD5gHzwEYeGAEjOnFsCpgCpoApYAqYAqaAKWAKmAKmgClgCpgCpsDQKLDJ0B7Yz2sKmAKmgClgCpgCpoApYAqYAqaAKWAKmAKmgChgYESUcGwKmAKmgClgCpgCpoApYAqYAqaAKWAKmAKDo4CBkcG9cj+wKWAKmAKmgClgCpgCpoApYAqYAqaAKWAKiAIGRkQJx6aAKWAKmAKmgClgCpgCpoApYAqYAqaAKTA4ChgYGdwr9wObAqaAKWAKmAKmgClgCpgCpoApYAqYAqaAKGBgRJRwbAqYAqaAKWAKmAKmgClgCpgCpoApYAqYAoOjgIGRwb1yP7ApYAqYAqaAKWAKmAKmgClgCpgCpoApYAqIAgZGRAnHpoApYAqYAqaAKWAKmAKmgClgCpgCpoApMDgKGBgZ3Cv3A5sCpoApYAqYAqaAKWAKmAKmgClgCpgCpoAoYGBElHBsCpgCpoApYAqYAqaAKWAKmAKmgClgCpgCg6OAgZHBvXI/sClgCpgCpoApYAqYAqaAKWAKmAKmgClgCogCBkZECcemgClgCpgCpoApYAqYAqaAKWAKmAKmgCkwOAoYGBncK/cDmwKmgClgCpgCpoApYAqYAqaAKWAKmAKmgChgYESUcGwKmAKmgClgCpgCpoApYAqYAqaAKWAKmAKDo4CBkcG9cj+wKWAKmAKmgClgCpgCpoApYAqYAqaAKWAKiAIGRkQJx6aAKWAKmAKmgClgCpgCpoApYAqYAqaAKTA4ChgYGdwr9wObAqaAKWAKmAKmgClgCpgCpoApYAqYAqaAKGBgRJRwbAqYAqaAKWAKmAKmgClgCpgCpoApYAqYAoOjgIGRwb1yP7ApYAqYAqaAKWAKmAKmgClgCpgCpoApYAqIAptce/3NhQ/TwDxgHjAPmAfMA+YB84B5wDxgHjAPmAfMA+aBIfGAgREDQgbEzAPmAfOAecA8YB4wD5gHzAPmAfOAecA8MFge2ACM3HfffYUP08A8sBgeEOpq+i6Gvqar6QoPWM7MB9YFi+cBy9niaWw+No0tZ+YB64HF84DkzMCIgSADYUvkAQmeldzilZxpPFwaW86G++4t98t795az5dHafD1cWlvOhvvuLffLe/eSMwMjSxwUm8GXx+BtpbUEr63tc7vMo33gAcuZ+bgPfNz2Z7CcWc7azqN9aJ/lzHLWBz5u+zNIzgyMGBixx8gSeUCC13YF4fa5I+4yD1jOzL9d5t+utN1yZjnrCq92uZ2WM8tZl/m3K22XnBkYWeKguCvM4XYuTglL8EzjxdHYtDVtLWfmAeuBxfOA5WzxNDYfm8aWM/OA9cDieUByZmDEwIg9RpbIAxI8K7nFKznTeLg0tpwN991b7pf37i1ny6O1+Xq4tLacDffdW+6X9+4lZwZGljgoNoMvj8HbSmsJXlvb53aZR/vAA5Yz83Ef+Ljtz2A5s5y1nUf70D7LmeWsD3zc9meQnBkYMTBij5El8oAEr+0Kwu1zR9xlHrCcmX+7zL9dabvlzHLWFV7tcjstZ5azLvNvV9ouOTMwssRBcVeYw+1cnBKW4JnGi6OxaWvaWs7MA9YDi+cBy9niaWw+No0tZ+YB64HF84DkzMCIgRF7jCyRByR4VnKLV3Km8XBpbDkb7ru33C/v3VvOlkdr8/VwaW05G+67t9wv791LzgyMLHFQbAZfHoO3ldYSvLa2z+0yj/aBByxn5uM+8HHbn8FyZjlrO4/2oX2WM8tZH/i47c8gOTMwYmDEHiNL5AEJXtsVhNvXrCO+8847LT9LlJ+mfGk5a8a/Tek5Lp3lYLn0Hvc+lnXfcrbc9943ObvnnnvcfzboPy1ny5WzZelP19Ou9yo5MzDSQCnNg3mvv/76YtNNNy1e/epXb+gI3v72txdbbLFFce21126417TuSy+9tPjyl788yr/lllsWT37ykwt1pGedeCKNUAAAIABJREFUdVZx3nnnje6ff/75xZOe9KTine985+ha07qcbnphluCZhtPTsC20Q7ae8IQnlDJ9ww03jOTozW9+c/GsZz2ruPjii0fXaPO73/3u8vrXv/71ddfb8jx9aoflbHnytQo5uPvuu8v+lD6V83nzLv3pK1/5yuIVr3hFccUVV8y9/Hm3d1XlWc76KWe33XZbcfLJJxfbbbddsc8++9Ty/9VXX13K4gtf+MLadDkexU59zGMeU3zyk5+cOG+uvL5es5zVy1nX+wPGZs9//vOL5z73ucXZZ589tSxcc801xdOf/vRSpm699dapy+mrHI17LsmZgZElASMYV5tssknxf//3fxuYdfPNNy/vXXTRReW9b33rW+V/0lcddFx6ySiFxz3ucWVaABiuP/WpTy3/33HHHcXNN99c3qcD+v73v1/epyOibAw/leO4XvnOgz4SvHmU5TLq39dnPvOZsoOA7yc5ADCa0PbTn/50KUOUHeWRjgnZikAk5dHpcT0CmE3qcZr695yjj+VsjWZ9lIO77rqrlCXkifMcD0x7jUkEZJqyOZhAwOCctrw+57OcdV/OGEBhc5544onFAQccUGy11VYj3pcMfOc736nk/8svv7xMzyRBFa9jdyJD8WByTuUzGIz34vktt9xSWW5VfX27bjlbk7Pcu+1yf3D44YeP5EDy8NGPfnRqngdgoRzKTWm12267lf0Zfdq4g8mBNH/f/0vODIwsARih4znjjDNKZgWwoJOJhwZSp512WnHTTTcVF1xwwUhQ0gGdBCdFAz/2sY+VeXbZZZeSmSMwsuOOO5b3PvShD40Y/V3veld57b3vfe/oWt+Zvg3PJ8FrQ1v63oajjjpqJEeSmybx61//+kYywWw15aUyJHk2MFJvzCyS/yxna7TvoxwsyhAGRJKOwMDUpAX96be//e1GemGRfN22si1n3ZWzvffeezShJp6P8WabbVZ6i1x44YUjvt9///2LN73pTeu8qJoAIzvvvPNIrmIdTc7xKmkb3y+7PZazNTnL0b6L/QGelngXSwawI9/3vveN/r/2ta9dN+GWe26unXLKKQVjPB2agAP40DViwBZkV/WNi4fY30nODIwsARh561vf2pgZt9122+Kb3/xmmR53/FQYxMwpMCJ3ZoAUzgWMwNzkYbAWXY6FKiKMuPanx5VXXrmh7rQt/l+vrHP0keDl7vna5PSso5kGhHQwP/jBD8YeRx55ZCkrTYCRr3zlKyOZTpfAGRiZ73use8dV9yxna++gj3KwCEOY2XL1rwzk2P8ATzCWuXKdvvULX/iC+8VgM1nOuitnxxxzzIjf6bNe/OIXj/5XzRZjkyILEfSfBBhhMoElak2O5z3veWVdxFV6fijXLWdrcpZ7513rD5gYB3hUfwMgr+c64YQTRtcZx1XJotIzhlM5dXFutcLnP//5Mm9uiweVP6RYcmZgJHTyi2IAUHbNLsO4GFrxEDMjKBhn8hhpCoywTOf0008v3v/+95fuU5zj1ki5oImUycF1LbXR0hvVncYgi4uix5DLleANmQbLenYNCJsAHbRpkvQve9nLSvnaZpttNsiJgZF6I2YZ799ytvYOJuHrNsgBEwPqs6rifffdd2QMsgdCVTpdr5v9Yo8EDEP1gQwYI4/efvvtBbPWug9okk5MxPRDOrecdVfOmCiLe2PBt+JxLblOeXlWYOQTn/jEOtlKy4//mayjPQZG7iuGLGd96g+Qqz322GMkZ4zTvvGNb2yQCby08PiQPLIS4MYbb9yQDnkRMML2COeee27ZF7I/EGXooJwcMMIqAu594AMfyJYd5XEI55IzAyNLAEZgqEn2GJkUGJFgSIjqYjomwBGlYcMsHbqGEfjhD3/YgrIA3pDgDUHJrPoZFzUgZLZMssLabJ4TGXr2s59dHrrH5se6Rqx9CwBOdJ0ObNV06mP9lrPFD9gWJQe5NdeSqWnjT33qUxvkDHAjui5XGanIB94jEYwhLTN7fZSdSZ7JctZdOcu9Z8nXooARBmdMujU55MFiYGTYwEgf+gO8+AEhZAMiZyx5ue666yr7ELZViIA8effcc8/RPpGSX43/zjzzzIJJeMrGS1r3ibmG7AGGxuU1XOMeKwji9bh8LpbT93P1ZwZGFjD4zTGPgBEGS8xQxUPeJNp8VcCI1jUz26UDJuaIM1bnnHNOKTAIjWarlQ7PFK7rAJ2Uq1ba4ciL5N57710nVLnn8bU1g2gSWkjwJsnjtNPRWsDIq171quJ73/ve2IM1mMhNnYcJG8EJyUeW9W5ihyfZaxLHfX9UluPp3nekm+VsjYZdkwPAxoMOOqjyqJK1ujzR0APkYIJA/R1ySpl4VFJ33aFNyyXb9N30pyzVi/w3lHPLWXfljD3tGHTGQ3xNXxivX3LJJSV/z+oxovIniVM7dSiyFZ9zyHLW5f6AvgZQXh784ns8jvFMbHKw7Ez5iOmrPvjBDxZ4MsIjbJpMmrhpOBNv73nPe0YH+dh4lY9xxLKqzoc6YSc5MzCyZGCkihG5ngIjdWkjMCIFSn7ygAJq8MZ/hPCyyy4bGW4veclLynSAKMqLAJM2DvZ0z/Ga8TMrLSR4s5bj/OPfiQaEdXKUu1cHjLzhDW8YdSxRVgA+5bbIdco9+uijR9e4JwCUQZnSVrlH+v2Of791NLKcrdGvT3KAqzCyFeWQT4pyDcOwjie4B4AhOSQP4IgGe/xvejBpEQEayhxXdx/vW866K2cADk35Xa72kpVp9xg55JBDygEdg7pxB/JM+wyMDNtjpE5vtr0/YCJaMkZ/wUcykCVdaxrzpURA+QiwpF+K2nXXXSvLZXIQOgoYYezHPpLpoY9yGBh5FBrZxB3cWgdXJ4jT3pPHCMIBk8ZDBlYKjHBdy1wUS5BSYITNIDUD9rWvfW20+Wrc+BVXKVy3VAax9hzRdVyqpn1G5xvPQ5az8TSaFx/FASEDl3GHOp0qYASgI8pOBEZim+W1FY1H7mu3cH+ud/E8YDlbo3Gf5ECuxdHgZHM65BL5inJYdc7XOEi/1157FXiAfelLXyqBFsCWeEjWcUuO1zlHhumDcV2mn57l84pV7ezCdctZd+WMgRZu+Drga/E8AyRdJ+arivDjrMAINijy1uTAA4z2GBgxMFKlC7vQH7zxjW8sdt9999ESGD5N/c53vnPDoXEg+12l9wVUACbS5xx44IHr+jrtFYK8MP7DQ5qxnT7CgXcYNBQwwtfW+I83Dp/nPu6448r/Am1UXxXd+3pd/Zk9RpbsMYI3R8pU+iRgCozQCaVp1XFFYCRu5iMDTQKBIOBqhdDhbhUFiLK00ZyW73jT1TVDJ6X9PP5L8OZRlsuof1caEFYBHSn96tKDrKvj0rpMZCwtg/8GRurfS45m875mOVt7B3V8naN7XfpVysGpp55aDpSYJEi/QqBBHYO93DPFa6yzxnCM13Ln6mupK3df1+hjh7r81HLWHzmLnw5lWZn4O8azAiOSqUliAyMGRiIP6rxv/YEmztIJNT1vVZyO6bA/+dqMPpGNXCsve50gewJGAED4z9Ic0hgYubnc6NjAyJKBEZa4sCdIPLTsZVpgRC6RACASAAEjCALX2NOEzXw0aJPblYAQ1sEhIOxFojIcrxk986KFDcn507Tq3dQN8HJ56tLrs2Z4VIHIIysGRpb3LnPvq+6a5Wzt3dTxdY6GdelXJQfMfskjkmVoKTCCx6OAy3GfN8w9c+4aMs4xDhjJ5R3KNctZP+Ts4osvLnldPE+c+zT1rMAIAOYRRxzR6NDGyAZGDIyk+rSP/cE0wAggvzydmRTXuE5yTJ8ZN1JOPUYMjKzpb3hM/ZmBkSUDI2LYXDwtMML+IXzaTMoDAcHFjG9jpzNZDOwY0LGnCAKFMXnbbbeVuxjTJrlUqSzH6wVnVnpI8GYtx/nHv5e6AV6OfnXpARj5nPbNN99cfl4NWTEwMv4d5Oi8jGuWs7V3U8fXuXdRl34VckAfhpcIMsdgiTanwAjXBO7j0UWflns2XcOwZjBYd6iPxpuyLl3dlwVUX19jy1k/5Ez7zonnFcfJNnh4VmDEn+td45dJdILlbI1uXewP2AiVvbDqDgH/LG2pS6c+UPzDRJ08vOj3UlnGCwQAhfT2GFnjI9EvxpIzAyNLBkZg/p122mndIYEQMII3CR0TA68vfvGL6w51WHEpDd+iBxjhwA1LM2fslq/rxBh4eI3wWSeYQRvt4H6sPLHcyDA+rxeopvSR4DVN73TT010DvJe+9KWjrzrp6065mHWbyFfV0ht9eUL7GwgYYX8f1n3qkCyxv4+uEUvOt91223XXI6Lv9z39+460s5yt0bHrcsDGc+oP5QGZA0Z4/xiVpGWWmdmxyBPxHENVfemsMf1oLHtI55az7ssZy6mRAb5kIVnQTDL/tdwavp4VGKE89uZqcqi/tMfI2kz2kHRL1bN2sT8QL0u+ZomxL1PaMNGNN6c2/qc+9uhRveyvx34iqccIwCdt8VKaR/W4+jMDI0sGRprsMZJu8pgToghgsFFPLk16LRUoBCWm4es1qcD5/5rhMw9aSPDmUZbLqH83gBGRv5ueVwEjoncKjIDuNy07l+6qq66y3M1ZD1vO1mSjy3LAxo+SGYB9yWAVMIJHF4AleQBJBKQon2K8S1784hfXHqoXb5W6tHzWVOUOLbacdVvOmHgTn3/zm98cnQPW43Gse9ik8Pa0wAgbHjNIm+bQFzWGJlvxeS1nj8pZV/sDPDqOPfbY2kNLYvDwqEsbvbiY6GaiXQAI8oo9qj20mDRnYlByjMcW59pjhL6L/+rDvMeI9xhZmjEDIx9wwAElA8LAdDLxEFNjwLJb9/vf//4yLfuBpLsTi8EjMIJnCOne/va3l/lIw4Y7yqvvYOe+oqH9ScgTZwaiUvb5mvEzKy3cwc2PluPexbbbbjuSOZaQjTs0oJoUGEFm2QBrmoNlb1WDt3HP5/vVvGQ5W6NNF+WAGbC4XpoBXOT3KmCENHwBTn0q/RvGY8ybO5c3WLynvpa64nWW4VhmH+Uvy1l35Ux7ZcHn73jHO0oeF8/Li1EDUdmG0wIjUX7iOcvQdthhh3KpWrwez9WWeG1o50OXs771B3xql+WZkY/TPUZYMgSQIdmLaXXO0hn6Oia9iVlmg7dXPBh/ApbgEUa9yLiAEe3jg7cJZRoYMTCyjinFaIuIhQSq06mLGbxph30GWml7lDcCI0oj9I8ZLl0j5vNP5OMb2vE653Kz5j6fLkzv+/+a4TMPWgy9g5sHDZuWscUWW5R83+RLFZQpWZgUGEnbw6c8MfYuv/zykTwxmOKzn0N2u0/ptMj/lrM1vdU1ObjxxhvLPbLU1yG/AIgReNREA2lwA473OMfQ05I2Njdnw9Ycv2GcYpDm3PVVfwqM4IlC2foEYq7coVyznHVTzhggST5ws9eePOJ5gREAhppNhqenAUZYUrrbbruVm0AyyGOCTvskSI4Z1OU2TZYtnA4ihyJfes4hy1nf+gNkTZNw2Jx6xykwoi0VkMnDDjtslE7pFSM3gP+S3VwsmzZdSqOxofpHAyMGRioZTQw3r3jfffctZ7+YAWPARKwDN6hddtll9B9PEn2+l+9dp20Q06fACP81S4YblvJhJJIHcIZvYOu64uhmVSd8Su94zRCahhZD7uCmodcseSQPUvrjypoHMEKnp69M4bGlOs8999xRx8UgT9cdzyZPVfSznK3RtUtywNfT4kSCDEf1e01jjEWWBujZyYeBnfJLNCiR0XhfdUVghHJ1PVdezD+Ec8tZN+UMoB4+Rta++93vjvhevC1gJOXhSYERAA3KBIRhA0hsTP4DlqhseTrTFtrFdX00QPfwnhZ4o3xDiocqZ33sD/gSKDIAIBk9D1NgBP4GSJRMfuQjHxnJTMr7yAbpsD3jV58EdAgYoS9DFpksUR7ySbaYZOC+9qFM6+n7f8mZ9xiZ89r2OsYB9IAJYVbSnXXWWSUjA5woH27AEoQoNLqveykwQlnRCETomKFWejZfVRmKESDdV3zJJZdsSKf0jteMoGlpIcGbNr/zNXsHchmEr3HDbEK3eQAj+nY8spgal3hsSc7SpQFN2uc0zd49dLKcPUqrrskBhhuzaRhn9Gni+UMOOWTdhsXsWSBZoj9lGWo8tHyGTZYxFnffffdRWSpTsQZf6V4GKj8CIzvuuGNZ73bbbVdZnsodQmw566acwZvbbLNN+YW1yKfi+bTvUprjjz++lLNrr712xP94RpIPYEPpFGtZuICQHDCCV4q+OsVEHXnZi48976gHUITyt9122w3lq56+x0OVs771B4ceeuio30o9pHLACHytcSMyUAWOCOQAuIyyICBfwEi8p3IZJzIGxXskN3ke8/T9XHJmYGRJwIgYFObWei4MP/5zaGO57bffvvyfMrgYUulTYIT7KJHPfvaz62bcSI8HyjXXXLNOYM4///xR3exRol366ZCqOkW1wXHzAVpKKwleet3/p6dpjnZ4ZsH7IOO5+7lrswIjfJ1G8snGdbk65BrMwO/KK6/Mpsnl87XJ+MNy9ii9uigHbG4cl6HleJ++TrIWgYtcWvqzOnCUz92rLG1aRzm6pvIpB7nluicQHuUvy1l35SwnK+L5SWzAKmCEwZom6/Q50RwwQjuQO4AaNiIHKFE7mByU1wnX2M8r1+6+XxuynPWhP2AJC+Cg+Dq3vLsKGIG3Sa+8xx133AYZmBQYwZtSfdmpp55aeq9QPuPOIXtCSs4MjCwBGEEoABxgPGanohIXEAIqTqcg5j/yyCPXpSMPe4DofgqM0JkAtICyK406Jf2nblzTAGZ0DcOZsjH+Nttss/I6bU2BlNhmn082SIv0kuDFaz6fnp452jHLJP7OdUC5PFzTsrMcuh7zpF+l4R7GmzoaviMf08dzdIFmwAAs9X35mMbns/OD5ey+cra1r3IwCTCSyhODPiYq4qElAvvtt9/oumjHUjzSyksF+Y15Oc95d6b19vG/5axfciaenwQYwe2efHhmRR6P8oJ9yj0BI3wQIKaN5/pUcPxYgJYEUAd9aEw/hHPLWb1N0Ob+AK9Fjf+QEzw1Up7FDpT9iH2Z3uc/+/RIPqM3JfcEjHB/yy23HB3aliHatHgra2zIflnIJvKuvcjo3+RxmWtHn69JzgyMLAEYEVKIok9dlWDIuKYaxoYxNcPFEhh2E4bZyc99mFodDQAJgIcYnfsIGC6MACkAIbj9cp0jAiecR4MOYIaOh3S0CTfsPgvBKp5NgreKuodSZ/zOveQo9+zIBh0HGy8iX+qYtDFcLg/XUmAEEFEyjOyOMyqVHznbc889LWML0MGWs/uKPsvBLIYwn+pVfzivmK8HVOmLPl+3nPVLziQPdX0YHsb0mQyqmARQv5mCHbJX4+dFo1clfSWTcfHQppS0Iy5Xw07lHvszRJu1z7IVn81ytjhgZNH9AR6JyAJjK60M4N3yJSjACORI4zfiqskyxnwsNUPeAA8jf0RgRDIcY4ARPLuwc3WduqOHJICj7jNRQJmxjiGcS84MjCzAKI8MBDPD+DAjy1fiPZ3D5HQSrHEm3SmnnDJKh1uTGFnxQQcdNLrPJlVCBelgmPXOdWrsXXLwwQcX+kQba6UFrqgdxGx+xf4kDPRy5cS0Pq9X1jn6SPBy93xtcnrmaAbYgKyknUeaNqL0ki06r3Fu8gI2MNQoE/CSDo0DcDGtJ/dfa6+131Auja9Nzw+Ws/tK0K2vcjALMILHJJMN8zzG6Zq+yrLlrF9ypn6wzvbD9V7pFNNv8jW2yOcMutj3Rxupcg+bk0Ga8uVi+lH2PUgn5lIv6VhX388tZ/W2QNv7A2QhghDwK8BI5H/AE/Z9rONlwIqcN7+AEcaAyJsOLUND5rBrVd8ee+yRBWCYTMe7BfBl3HLWunZ29Z7kzMDIgoERGAQmjUhhjmnUeURQROlgaNx5OVKPE9KwV8EkTJzuvq96FCMcrEHTf8f1SnkS+kjwJsnjtJPTPydHOToiN5ItXOJzadJrdEIs0WE/H9274YYbNnyXXvdyMaAM9ebu+drk7zulmeXsURr2VQ7oL3FJxpDMAfwpP/j/7DKVo6HlrF9yxt5YyBQDzdz75hoeG+oziek3Zb9W5Umv0/9hy+aOSctKy+7jf8tZvf7qYn8gkAOg47rrrquUtyb8TB+IN1a6DAf54rom+9ijZ9weIixFb2oLN2lbl9JIzgyMLAEY6RJjuK31CnhW+kjwZi3H+Rf7nkzfbtPXctbt92f568b7s5x14z1Znrr9nixn3X5/lr9uvD/JmYERAyMzIZUW+MkEXoJnuk1GN9PL9JqEByxn5pdJ+MVpp+MXy9l0dDO/mW6T8IDlzPwyCb847XT8IjkzMGJgxMDIEnlAgmfFNZ3iMt1MtyY8YDkznzThE6eZjU8sZ7PRz/xn+jXhAcuZ+aQJnzjNbHwiOTMwssRBsZl2NqbtA/0keH14Fj+D+bmtPGA5M2+2lTf71C7LmeWsT/zc1mexnFnO2sqbfWqX5MzAiIERe4wskQckeH1SJn4Wd9pt4wHLmXmybTzZx/ZYzixnfeTrtj2T5cxy1jae7GN7JGcGRpY4KO4jI/mZJlPYEjzTbTK6mV6m1yQ8YDkzv0zCL047Hb9Yzqajm/nNdJuEByxn5pdJ+MVpp+MXyZmBEQMj9hhZIg9I8Ky4plNcppvp1oQHLGfmkyZ84jSz8YnlbDb6mf9MvyY8YDkznzThE6eZjU8kZwZGljgoNtPOxrR9oJ8Erw/P4mcwP7eVByxn5s228maf2mU5s5z1iZ/b+iyWM8tZW3mzT+2SnBkYMTBij5El8oAEr0/KxM/iTrttPGA5M0+2jSf72B7LmeWsj3zdtmeynFnO2saTfWyP5MzAyBIHxX1kJD/TZApbgme6TUY308v0moQHLGfml0n4xWmn4xfL2XR0M7+ZbpPwgOXM/DIJvzjtdPwiOTMwYmDEHiNL5AEJnhXXdIrLdDPdmvCA5cx80oRPnGY2PrGczUY/85/p14QHLGfmkyZ84jSz8YnkbAMwohuOby5MA9PAPGAeMA+YB8wD5gHzgHnAPGAeMA+YB8wD/eYBAyPX9/sFW4D9fs0D5gHzgHnAPGAeMA+YB8wD5gHzgHnAPFDNAxuAEV1wbAqYAvOngJTR/Et2iaaAKSAKWM5ECcemwOIoYDlbHG1dsikgCljORAnHpsDiKJDK2SbphcVV7ZJNgeFSwHI23HfvJ18eBSxny6O1axouBSxnw333fvLlUcBytjxau6bhUiCVMwMjw+UFP/kSKZAK3hKrdlWmwGAoYDkbzKv2g66QApazFRLfVQ+GApazwbxqP+gKKZDKmYGRFb4MVz0cCqSCN5wn95OaAsujgOVsebR2TcOlgOVsuO/eT748CljOlkdr1zRcCqRyZmBkuLzgJ18iBVLBW2LVrsoUGAwFLGeDedV+0BVSwHK2QuK76sFQwHI2mFftB10hBVI5MzCywpfhqodDgVTwhvPkflJTYHkUsJwtj9auabgUsJwN9937yZdHAcvZ8mjtmoZLgVTODIwMlxf85EukQCp4S6zaVZkCg6GA5Wwwr9oPukIKWM5WSHxXPRgKWM4G86r9oCukQCpnBkZW+DJc9XAokArecJ7cT2oKLI8ClrPl0do1DZcClrPhvns/+fIoYDlbHq1d03ApkMqZgZHh8oKffIkUSAVviVW7KlNgMBSwnA3mVftBV0gBy9kKie+qB0MBy9lgXrUfdIUUSOXMwMgKX4arHg4FUsEbzpP7SU2B5VHAcrY8Wrum4VLAcjbcd+8nXx4FLGfLo7VrGi4FUjkzMDJcXvCTL5ECqeAtsWpXZQoMhgKWs8G8aj/oCilgOVsh8V31YChgORvMq/aDrpACqZwZGFnhy3DVw6FAKnjDeXI/qSmwPApYzpZHa9c0XApYzob77v3ky6OA5Wx5tHZNw6VAKmcGRobLC37yJVIgFbwlVu2qTIHBUMByNphX7QddIQUsZyskvqseDAUsZ4N51X7QFVIglTMDIyt8Ga56OBRIBW84T+4nNQWWRwHL2fJo7ZqGSwHL2XDfvZ98eRSwnC2P1q5puBRI5czASEd54frrry8+97nPFXfeeWdHn2BYzU4Fb1hPX/20//znP4szzjij2G+//Yqtt9662GabbYoDDzywOO+884r//Oc/6zL+5je/KXkevm9yPPTQQ+vy84cyb7rppuJTn/pUWd/b3va24qMf/ehYOfrXv/5VIHOf/OQny3x77bVXcf755xe/+93vNtQxy4ULLrigfLY77rijtpg///nPxemnn16cdtpptemGdtNyVv3G77777uLoo48udthhh+INb3hDse+++xbnnHPOBjlLS/jVr35VnHXWWcWuu+5avPnNby6OPfbY4pZbbin++9//pkmLiy++uJFsIr+XXHLJhvxcuOKKK4pDDz20eMtb3lLWh3xee+212bRNLv7whz8s2/zOd76zlN2DDz64bOff/va3sdktZ3kSWc7W02XafoVS6KeQQ+QLudxjjz2KL37xi8U//vGP9ZUk/y677LKy73rrW99a5qNPOvnkkwt4Ng3zkMu0TGSyST98zTXXpFnL/7QTHUB/z3N/7GMfK6688sri73//ezb9EC/2Rc6m1aNN7CFkD3tRfLTzzjsXp556anHvvfduYJl52JCz9CdN++B5tHPDw//vwiy2LDJ/+OGHl30ztvMxxxwzU99c1cZlX0/lzMDIst/AHOrDMN1kk03K47jjjptDiS5i0RRIBW/R9XWh/BtuuKF4xjOeMeJl8bTizTffvLjnnntGj0InqXtN4ptvvnmUlxM60J122qmyjL333ntdev3597//XXYEuTof//jHF/fdd5+SzhR/9atfHbUNGa8KP//5z4tnPvOZZdrHPvaxVckGed1ytvG1w/dHHnnkiLdSPkbOqnjechtMAAAgAElEQVQYGU3T6/8HPvCBDZWJL5WmLn7Na16zLv8f/vCHYvvtt6+sjwHgX/7yl3V56v4A3JxwwgmV5W2xxRbloLSqDMtZFWWKwnK2Rptp+xVKuPXWWwt0eE5OnvjEJxY5gPzBBx8sXvnKV2bzUA59En1lDLPIZSwnniO/uXan13bZZZeYrTz/7W9/W9n3P+95z5tIzjcU3qMLfZCzafVoE3voJz/5SbHVVltV8mE6cTSLDTlLfzJpHzxLO+vYf1pbln539913r6QzoC6AS1dDKmcGRjr0JulEmUWLHY+BkW68wFTwutHqxbWSzlIG4VOe8pQS4b/uuusKjs985jOlcQefP+1pTxvNgAF0gFLXHS94wQtG8nH//fePHoBODeUt2fnQhz5UzhrjOcIASddPPPHEUR5OyBfBFGYjzj333OLjH//4yLDDgKWDniUAAKkNxDlghM7plFNOGdGGdAZG1lPdcraeHvxjVke8hccH/HvppZcWRxxxxEgGN9100yL1oLj99ttH9wFPPv3pTxcYqxG8+MhHPrKuwoMOOqhWPpFdyT3lxBAHWgcccEBx4YUXFt/61rfKGXS1H/lrGpg1VD4GkmeffXbx7W9/u5QtBo/cQ7+kXl+Ws/EUtpw9SqNp+xVyR/l60YteVHzhC18oZ77f9a53jWSEvvGPf/zj6IUw+AA4EF8fdthhBR4ZN954YymbEQChfIVZ5FJlpPFznvOcsh3ILX1r1YFHaAyPPPLICNin76RtX//61wuAVumGl770pfYcKboNQM6iR5vYQ3/9619L/Y0swDfYcnhR4T1CPycZiWOkWWzIafsTeH/SPniWdkZZi+ez2LKxz8ejjX6Z/hkvHdEZr6+uhrQ/MzDSkTcZARF1HjBkFPqOPMogm5kK3iCJEB4at1n4l4FJNPyUhFkxDV5w120apKgBO2Kgw5QCx1U/DTI2MdRiIK3ynXnmmfFWOaAiPffpiKcNGBCp50wKjDBzH+Ve9XLNYY0ClrM1WnD2y1/+csS/+++///qbRVEAHoq/U1BQIGMONDnqqKNG+XAPbhoAIVQf4IwChpau4/afhjh7eNddd6W3N/xHf0he8ATDKIyB5UEMOqmT5XEKljNRoj62nD1Kn2n7FXILkAe0Y0lpDAB4koc4681SE11noiwNACeaQcfDqmmoksu6/OqfJ5F/ymNpnJ4h9VRjuarunXTSSXXVD+JeV+VsFj3axB7i5QOewyvo+R/96Ecb+AG9rvuU2TTkbMhp+xPqnKUPrmtzrp116ae1ZemPJZMsH08DwKzuI79dDKmcGRjpyFvEOIX56EQRNKH1n/3sZzvyBMNuZip4w6ZGUbzkJS8p+ZlZ6KrADBI8n3PFzeVhxluDoS9/+cvrkoBmUxb7C+QCayel3G+77bZREiHlVcBHNGDTmedRIWNOdtxxx7Ju9lhRO1NghA6J9vF8rD9XZ8V/hzUKWM7WaMEZYAd8wyCmyjhk7w3SMFOtwIBF8pDbxwrXYAEnOcBF5aSxZs4AJShDQTN86fIa3ScWGJjKdkyjc9KMe25mqUlDuXIDtpyJgvWx5exR+khfT9qv0MdIvnITA5SuPjLOxLK+n3yvetWrKl+Q3PCRsaahSi6r8iO7av8k/R6u/JLjKuADLzTKxktt6KGrcjaLHm1iD8EX4qPUVhLPwGvyoMLTtkmosiGn7U+oc9o+uK69Ve2syzOtLYtdgDzW9c177rlnmWYSMLaurcu+l8qZgZFlv4Ep62N5QZwpMzAyJSFXlC0VvBU1ozXVSkmjUKsCQAEKuenAC5dd0gMW4Gap8Itf/KK8zj3OqwKzAoCO2vyNDcPIw4HbYFXQzFnTzjeWg/s05WPE4mIsQzvt7JkdZLNVPZeBkUjFtXPL2RotOMPtFf6qAvZIg3yRhoGYgjy66gYnci2G/1OPDJUTYwZT8tJgz5MY5DGVeq3ENLSFdrKMbVzQM8VBZZqHPU0oj4MlfATLWUql/H/LWVH2JeKfSfoVKLrbbruVfMfyk6pA/0N/xH4cCpI5JsqqwvHHH1+WXSe7MW+dXMZ08Zw26dnj9XHn0ePl97//fTZ5BGXjHmPZxD2/2FU5m1aPNrWHABPFf3EiK2UHNvUnHUuzmoQqG3La/oQ6p+2D69pb1c6qPLPYsup361YnYB/rfcQJj6r2tO16KmcGRtr2hhq2R8BIHbM2LMrJlkCBVPCWUGWrq4iKPbf7/sMPPzxStHhlNAlyTd5nn33WJdfsBctlFABBaANgBt4iudl0XISl7Ktm9ShPMxxVm7eqzjSOs4Zyi64CRtK8BkZSijz633K2ni7IAqADM8JVQTPTkX/lwVEHSrI7v+SjyawxX6BQenbdjwHZpJ1VX7BARyjvN77xjZg1e65ZLvYHqgp4iahMvgqSC5azHFW6vfdB/okmvzptv0JN8gBW3wYv0g8BiFPuAw88kG3Qz372sxHPppuLK4MGMun+P7qfxnVymabVfzaFRXbklUJb2Oj4fe97X3HIIYeU+zz86U9/UvJRjJcI+caBNvIGaCLro8J7eNKX/qyJHp3EHmJPN+nun/70p5Vvnj14SMeS7SahyoacpT+Ztg+ua29VO6vyzGLLShaxl6tCXE7DMtWuhVTODIx07Q3+r70GRrr14lLB61br599aBlLiYYwk3H+ZKWKGiE0S6cjo0HCFlAdHXSswzNRRprNMmkFj40c2fZXhqPTEzHqnXiFaJjNuuYpm1+tm5dO2A7ToGaOniYGRlFKT/becTUavq666aiQ3bMqqoD13GOxUhQgsNNlnQJurTuNuy2BL8lo3O6+2srEs6TEgq4IGd6RLPbSUp4lBr7RDii1nRTFtvwKf0KfAd/R5bBqp/+JxYj6rnfOq0Gbg9Fl4kMDH7LHAficvf/nLy3IpL+0Hq/hzGrnU3ioAPBo0xrZzzoAq3c9Ly2S22WabquaU17VMr2q5TW3mHt3si5yN06OT2kMskxG/wYtVQV7HpB0X6mzIefUnuTZU9cG5tFyra2dVnllsWbxtoN+HP/zhquJHupB0t9xyS2W6tt5I5czASFvf1Jh2aVBpj5ExhGrJ7VTwWtKslTaDDedkyKmTizHGU86bJNdoGYvs7p8Gdr2nXAw4uewzOAPQ4BNkWgpDmq997Wuj7PJq0azY6EZywjI38mLMNQ2akQesicHASKTG5OeWs+Y0Y1Cm2SCAkOgCqyUvbHpaFzSgSwdAaZ44w3f11Vent2v/x41Z64yzWIgMceRSs/LxPueve93rRsb1vvvum94u/6scntNhjQKWs6L8mso0/QreieTj0CbG9EvwIF9Li30iEwPa/2aN+kW5YbDKSGMA96azttPKpfpG1Q24ArjIF0EAMaUXuH/vvfeOmq5+ety+YeoH2ah1yKEvcjZOj05jD2kMhN2VW8oZAQT4kKWTdUG8mbMh1X7KmaU/Seuv64PTtPpf106lSWPJ6zS2bNzkNi7rUx14hsmOgD70110LqZwZGOnaG/xfe6UUDIx04wWmgteNVi+ulQAegAIoUh0Yh/Ki0DXc++OALdcivE+UPucSr6UupAEEocOMgWU72smf+1o2c/LJJ5fl1q3nphy+mkPZGLFNAhsmk57nZe1nDDIIq2awlVYdtQdsosijseVsPT2q/sE/GrwQY6DFoHtsUFoXBCri8VUXBE7C8zkjNpcXudeXBZAX+rwm3mOURR2adeZZAHj05Q/2bQAYpUwZdFXLDixnuTfjpTRQZdp+JS5BgwcB59MJALwmuceRLoOjb9A9YvpMDsks1+jPct4m6ducRi4pgz2C1AY8Z9KAV5dkK+7voK8r1u0tRlmSz3RZbFpP3//3pT+r06PT2kOXX375iAexm/AGJgAkAtDRN4kH4dW6vmOcDTmv/iTy67g+OKbV+bh2Kl0az2LLsuxVugVbmE+DQw8ObGk8sLmvNLyXroVUzgyMdO0N/q+9Bka69eJSwetW6+ffWu1iTYfFhotxVowdt6PhhRtjXdCO+nSEqYFJPtY9y4g766yzskXFmTMh3lpDTudaF9RWZvrGhZtuumnUltzyAwMj4yhYf99yVk8fwAFtJIdMMKBioJYG7YEQPxWapuG/5KruM30YpDKamgL5zEzFmXPkIrcPUK5NugbYI88XtVNADv+PPvroclNazuNyNuUnrjPoY7qhnVvOpu9Xfv3rX4/kBjkTYJfyEIAJvBn349CXlLi+1157bQA/uC8ej4BEWjb/p5FLlcO+DvST7ItSFViaRzs5JLu0mf+ASnWBry+SLn5Kuy59X+/1Rc6q9Ois9hAeVuIxYvUznKP79YlaZKIujLMhyTuP/oRymvbBufY2aWcu36y2LHv9RDqntEYPiPZNl/Dl2rmqa6mcGRhZ1ZuYsV4DIzMScMnZU8FbcvWtqo4ZWynZM888s7JtfMpX6fQ1ljQxs8oa/NBJ5gJfsVA5OeBEebShlb6YwWBP+ZQmF8vVkM+e1gXQfs1gVH1y1MBIHQXH37OcVdOIwYx4HL7eeeedRwOWNJdACcCDqhB3uv/xj39clazc5Fhy1GQWmzXXGtyRjxlFZqemCbj58tlvAT0Yb8xGCyAVPdL9hVRXlUGv+0ONLWdF+XUk8fUk/Qp9lvKx7KQqaB8P0sprEo8r/iO7VYEZXZVfB1zIvZ60TeSyqr6q65SpdujLIfIAq/vcMOXJvuVLbEMOfZGznB6dlz2EhwIgoAbmAIl4ANLfXXrppSUPRnAx5acmNqTyzNqfTNIHq07Fk7RTeRTPw5ZlAgWPL9nbxEw6Ujb2uWRdHtequwtxKmcGRrrw1jJtVMfRdAYuU4QvLZECqeAtserWVaVOEkXKJlpV4aGHHhopW321JU0bd9RnA7pcYNabusbNGmjPAT7xRmCwJ2WfLjWI9eirHuP2P4h7JeDmnzvUudPp6P6dd94ZqyvPRUPSO6xRwHK2Rot4xmBJvAVP46pfFwD5SJfugRPzxJ3oq4BL0gt8YI+fcQHPDckcMnD77bePy9L4PoPXqG/ijDkbWOaC5SxHFS+lgSrT9ivkFUDOMsyqQJ8nWWCwEYHIG264oSpbeV1AIPtfVYVJ5LKqjLrrgJlqP3JEAOjgWl1fjFwqX93GmnV19+VeX/qznB6dpz2k9532Q9rDh01Yq0ITGzKXd9L+ZNI+OK1z2nZSzrxtWXmAqY3y/OmqPZrKmYERvdmOxQZGuvXCUsHrVuvn21q55Y1TonGTOmaRc0E76uN6WxWktDG20j09Yh7Nxn3hC18oL2PYCR1njWYuxDZWbcqlfNEQkOHXJM4tU8gZGqpnyLHlbOPbj5vQwc+avd2Ycu2KZpMZwFR5a+hrTPEz2GslPHrGDvXicQzDuhBBEcBGZhSnDQAdbNx4+OGHrwNDYnnaxwG5rwqWszxlLGdFMW2/AkW1VOTAAw/ME7goCi1FEYgQ9xcYBxgK9Dj44IOz5U8il7kC8PgA3EFPVIW4PFXu9blraf4rr7xypDPGbZiZ5u3b/77IWU6PzmoPAfqh46s+8Q4vaM+63N5z4pUmNuSs/ck0fbDap7hJO5U2jWexZdk/DDpXeTlT12677VbKLMv/uhhSOTMw0sW3GFwN7THSjReYCl43Wr2YVuLZ0WSwFNdT5wZJ0cgat/kjG6NSZ9V+JXEjr7g5q5bhYAQ+8sgjGwii/Rq4L3dnJWLflGjYsXcKy4jqDi1hYFmQ0uXWoOcMDdU75Nhytv7tw4OaPQYUwQurSQDwk4dJbiNgNlfU/bp9SLSD/riNieOMFl+jinsOjWtvKmekv//++0c6JmfQIYu4V6MT6vpQy1me+pazR+kybb9CfwXvAXrklrEwkNEnsxkQKcjTRMs9dT3GyKb616p+salcUm6u7911113LOljCUAWcam8vATtqozwsWTaaBmRZoM64fUjSvH383xc5y+nRWe2h7bffvuRBwI9cf8EGrJKxqqVuTW3IWfoT2jZNHxz5uWk7lScns9PaskwUSp888MADqmIUY8/LFmgy6TLK2KKTVM4MjLTo5UzSFHuMTEKt1adNBW/1LVpdCzCkZFAyWMt99zzuM1C1iZw23sJYzHWM8Qnl9oyCT2e5cEuWwclymhjY6VydAgM2AR2AIHzaV/dSQ5XPJapM7WcQy6069x4jVZRpdt1ytp5ObGwsHsU4xUCsOlIAji9CKS+zuAqAK/ErTqy7zoU4w123ZIC8+lwjBhYyV9VGrkdZr5MzeYAhh3fdddeoibjqa9kc9eUGpkqcM+h1b8ix5ezRtz9tv8KSLnkjAhSwIasC/Bk3J49APV9pkUziUZKCEgxcBCzA2znZnEQuDz300LI+QMQod/TPagd7+PzsZz9T88vNJZWPNOlXa+Qxyj36TekdBsp8sljl5jwlR5UM5KQvcjatHq2zhwR8wC/s1RO9gaPX0WGHHVbJLZPYkNP2J7P0wWr4JO0U8Jh++WlaW/bBBx8cySQgLf8VAGGlx3KfOVa6tsepnBkYafsbq2ifgZEKwrT0cip4LW3m0poFAi+UmY6N/TTYg4BZIs3kcp3ZJpRvGuL+ABhh4wKGqNz9KJdOjsGYjEiuMYDCSyMN0QgkHYNC2sU5B7NvqYGqpQjcH7fRXKyvzhCI6aY1NGIZfTy3nK1/q/rspXi1LqZPiYEBC7yrPMiHZrG5hvzWufTHz4rmBmixrihPqq8qZrNjhTo5i0sdKAsDTh5Zav+4GS7LmSi9PracPUqPWfoVJgTE98gSEwAAdroGj6Z9G+CBJhW4Tz/GPkC77LJLoQER1zmq9ueYRC416KG8CNDw9Nq/QfUxK84Sodh+ZvVzAc9N5ePZ07bnvLxy5fT9Wl/kbFo9WmcPYXPpvngJGRKAwTXkIvXkFc9MakNO25/M0gfT1knayeauogVxapdOY8vSBpYtxXKxFaItgM1eN8Egmrc1TuXMwEhb39SYdgkYOemkk8ak9O02UCAVvDa0adVtAPCg44oKN56zCWrOJZB2x9mCHHBS9WzMUEXDTfUByuSWyqgcNr6KBin5KIcZvLiho9Lz7Xetb6WtTYNmzk844YTaLNMaGrWF9uCm5Wz9S5QLr/i8Lk6BEUpiIMZGrBHEpAwAxe9973vrK0v+yUAdt+744YcfrtQBufZGYGScnLH+XH1lLAujrg7U0aNYzkSJ9bHlbD09pu1XWEIm76vIn4CQ8F4usMyNr7ukMqn8bDSpPT1y+ZvKJXl5LspFXqLHiMrFa1LlqX5i2j9ug2fKjsAL+Sirbmme6h1K3Bc5m1aPjrOH8BKRN0XkP2yzgw46aAMwEPlmGhtymv5k1j540nZqLxKWeefCpLasymBJTc52xpO6znZW/jbHqZwZGGnz23LbekOBVPB682BzeBAQcb76wqfV2MCUz4LljLA5VDUqAjCFzpqd/xn8NQ0ANbSzzvBUWcxUpLuk657jxVDAcrYYusLLAAnI5zjvj8W0oLrUcXLGrBluxBi17CXUtvZXP1l771jO8u9m2n6FPpAZafqWpkA/gDxLWK6++uqyL7v77rsrP7+db22zqwAxdQH5Y6b6iiuuKOWraftVJnnpi6OLvu4NPbacNeMAeJQNUvnsehPbrFmp+VRd6E/GySxPNoktK0pgl+PtjTcaS90Wbaer3kXHqZwZGFk0xV2+KVD484ZmAlNgGRRIO7hl1Ok6TIGhUcByNrQ37uddBQUsZ6uguuscGgVSOTMwMjQO8POuhAKp4K2kEa7UFOg5BSxnPX/BfrxWUMBy1orX4Eb0nAKWs56/YD9eKyiQypmBkVa8Fjei7xRIBa/vz+vnMwVWQQHL2Sqo7jqHRgHL2dDeuJ93FRSwnK2C6q5zaBRI5czAyNA4wM+7EgqkgreSRrhSU6DnFLCc9fwF+/FaQQHLWStegxvRcwpYznr+gv14raBAKmcGRlrxWtyIvlMgFby+P6+fzxRYBQUsZ6uguuscGgUsZ0N7437eVVDAcrYKqrvOoVEglTMDI0PjAD/vSiiQCt5KGuFKTYGeU8By1vMX7MdrBQUsZ614DW5EzylgOev5C/bjtYICqZwZGGnFa3Ej+k6BVPD6/rx+PlNgFRSwnK2C6q5zaBSwnA3tjft5V0EBy9kqqO46h0aBVM4MjAyNA/y8K6FAKngraYQrNQV6TgHLWc9fsB+vFRSwnLXiNbgRPaeA5aznL9iP1woKpHJmYKQVr8WN6DsFUsHr+/P6+UyBVVDAcrYKqrvOoVHAcja0N+7nXQUFLGeroLrrHBoFUjkzMDI0DvDzroQCqeCtpBGu1BToOQUsZz1/wX68VlDActaK1+BG9JwClrOev2A/XisokMqZgZFWvBY3ou8USAWv78/r5zMFVkEBy9kqqO46h0YBy9nQ3rifdxUUsJytguquc2gUSOXMwMjQOMDPuxIKpIK3kka4UlOg5xSwnPX8BfvxWkEBy1krXoMb0XMKWM56/oL9eK2gQCpnBkZa8VrciL5TIBW8vj+vn88UWAUFLGeroLrrHBoFLGdDe+N+3lVQwHK2Cqq7zqFRIJWzETCiG45vLkwD08A8YB4wD5gHzAPmAfOAecA8YB4wD5gHzAP95gEBQgZGru/3i7Yg+/2aB8wD5gHzgHnAPGAeMA+YB8wD5gHzgHlgIw9sAEZ0wbEpYArMnwJSQvMv2SWaAqaAKGA5EyUcmwKLo4DlbHG0dcmmgChgORMlHJsCi6NAKmcjj5HFVemSTQFTIBU8U8QUMAXmTwHL2fxp6hJNgZQClrOUIv5vCsyfApaz+dPUJZoCKQVSOTMwklLI/02BBVAgFbwFVOEiTYHBU8ByNngWMAGWQAHL2RKI7CoGTwHL2eBZwARYAgVSOTMwsgSiuwpTIBU8U8QUMAXmTwHL2fxp6hJNgZQClrOUIv5vCsyfApaz+dPUJZoCKQVSOTMwklLI/02BBVAgFbwFVOEiTYHBU8ByNngWMAGWQAHL2RKI7CoGTwHL2eBZwARYAgVSOTMwsgSiuwpTIBU8U8QUMAXmTwHL2fxp6hJNgZQClrOUIv5vCsyfApaz+dPUJZoCKQVSOTMwklLI/02BBVAgFbwFVOEiTYHBU8ByNngWMAGWQAHL2RKI7CoGTwHL2eBZwARYAgVSOTMwsgSiuwpTIBU8U8QUMAXmTwHL2fxp6hJNgZQClrOUIv5vCsyfApaz+dPUJZoCKQVSOTMwklLI/02BBVAgFbwFVOEiTYHBU8ByNngWMAGWQAHL2RKI7CoGTwHL2eBZwARYAgVSOTMwsgSiuwpTIBU8U8QUMAXmTwHL2fxp6hJNgZQClrOUIv5vCsyfApaz+dPUJZoCKQVSOTMwklLI/02BBVAgFbwFVOEiTYHBU8ByNngWMAGWQAHL2RKI7CoGTwHL2eBZwARYAgVSOTMwsgSiuwpTIBU8U8QUMAXmTwHL2fxp6hJNgZQClrOUIv5vCsyfApaz+dPUJZoCKQVSOTMwklLI/02BBVAgFbwFVOEiTYHBU8ByNngWMAGWQAHL2RKI7CoGTwHL2eBZwARYAgVSOTMwsgSiuwpTIBU8U8QUMAXmTwHL2fxp6hJNgZQClrOUIv5vCsyfApaz+dPUJZoCKQVSOTMwklKoxf/vvvvu4uijjy522GGH4g1veEOx7777Fuecc07xn//8p8WtdtOgQCp4psqjFPjnP/9ZnHHGGcV+++1XbL311sU222xTHHjggcV55523ga9/85vfFJ/73OcaHw899NAGMiMrN910U/GpT32qrO9tb3tb8dGPfrS48847N6SNF/71r38V119/ffHJT36yzLfXXnsV559/fvG73/0uJpv5/IILLiif74477qgt689//nNx+umnF6eddlptuqHdtJzl3ziycMoppxS777578ZrXvKaMTzzxxOJPf/pTPsP/rk7L95PIddoA6vzqV79a7L///mU/t+OOO5Zy9+Mf/zhN2vj/f//731Je0R91Mnv//feX8kcfiz5CL1188cWN6xlKQsvZ+jc9bb9CKcgmdtyuu+5a8vsee+xRfPGLXyz+8Y9/rKtkHv0fNuQRRxxRvOtd7yr1wC677FIcddRRxU9+8pN1dU3yZ1rdMgvNJmlfl9P2Qc5+9KMflfx82WWXNX4Vf/vb30rbBn398MMPV+b74x//WJx66qkFMvO6172u2GeffYqzzz67QFaqwrnnntvIhqQvyIV5ytDPf/7zsv2T2nFN6ZNrP9eQPWxsbG3GkjvvvHPZjnvvvbcqS+31pnZrbSErvJnKmYGRFb6MplXDxEceeWSxySabZI/NN9+8uO+++5oW53QroEAqeCtoQuuqvOGGG4pnPOMZWZ6G1+Hre+65Z9RulG+VDOSu33zzzaO8nCBHO+20U2UZe++997r0+vPvf/+7eMtb3pLN9/jHP35ussdgUM9x7LHHqvoNMZ3pM5/5zDLtYx/72A33h3zBcrbx7TOwh0/FWzHm+oUXXrgxU1EU0/L9pHIdK6cfQ+5jG+P5xz/+8Zi80fnf//73AgBU5dx2223ZfBinSpPGW2211VgQKVtoTy9aztZe7LT9CiXceuutBTo85Tf+P/GJTywiQD5L/wfYSP+Wq0fXDj300LWHang2rW6ZhWYNm9aLZF2Xs+985zsj/mYA3jQA2IkvkZFcuOqqq0oZUboY06+l9p/KiOnqzrHHYpi3DP31r38d2XG0Y5LQhD5V5QGC0p9VPfukIE1Tu7WqPW24nsqZgZE2vJUxbTjmmGNGTPzmN7+5APG89NJLS+Rfneqmm276/+2dS6skxdPGv4sLP4MgghsREXHhVsGNC4UBUZiVV7yMuFA33kARNyKKiAi6EHQGHfTvMC+C4kKcEZRxvCzUhet++fXx6RMnJrO6qrqnuk7nE3BOVVdlZWY9FU9FZmRk1gIvomWeCGTizbOW09WKzr1095prrll6q7/66qsFfy+++OKqI3fttdcuiI5AMHR0cKPRxyAAABhzSURBVLr+brzxxhVXosefEWNG5GQMHn300eVIMJEj119//eo4o+hRuC46U/Cswz86aHLq0IDdZMSN8nAAqW5sS46Rf//9dznqHzu5dozEp+XIrKNoLBbnz59f6RUOBxo9p0+fXvJN+ou+Zcf6WL0fw2vVmegV6TZ6DQc+/fTT5QjgbbfdtrqPt99+W5d0bul84fS57rrrVtdyryXHCFFr4h+j6e+///7izTffXI6q6zi213KAgO3ZAQ5j7QpXf/vttysbeNNNNy31jVFc9C/aRkbFkU3sHyPD0mPsGe1H8oMfREbpHCP0fWWTd8sYW9y3XvuU7rjy7Ndff108/vjjK71Cv/o6RuK7mOtKjpHvv/9+lTdtRKJGzpw5s7Rv0bFOlG8U2pLSdZwL6GHt79y5c/HSZXSFrt0Gh2K7knz7Sh98annhjAEvyuMdQ/uXSB7eO9g33d9LL71Uy+LI8T7t1iMXzPRH5pkdIzN9UKoWLxgpK6HFWej86Xzu1OW0/r07BDLxdleTeZT8xBNPLPWWl7QafrFmly9fXnWShjTW1ADE2RGFl794Qscwyw033LA8j5MjCml1Xe6QEZJPes5v0mnC4RE7qeSXHSOMwquxzHmVyzHLIQLm2SEWOAbkFGCEKDvOiaTAoV7S37F6vwmvmRpKXdDpX3755fBG/ttTZ6qPztMAxuFKfvypMch+doz89ddfq3TPPPPMFeXGBv7FixevON/iAfPs4KmPtStcLYc8Tj+mnkX57LPPVjo5ZAS3ZP+wL+LBa6+9FotZ7UvHcUz2kU3eLZtg1qdu+5TmOPLslVdeWekbeidndx/HCNNUpKvaZscIzkjZNTiEfkdhChrTarj+1ltvjacWFy5cWB7vY0PihdvmENOgdX/axvJq+33wqV3L8Yceemh1/0xxysJUceoDPhnXnJbz69qt+Zq5/s48s2Nkrk/qv3rh7EBRebnUFPWee+5ZpmGkwTJPBDLx5lnL6Wp18803L3X2hRdeqBZ68uTJZRo8+32Ejh8vdPjy1ltvHbkEo8zxJ5988shx/fjyyy+X50kTO05333338njN8REbsF1rF6ic0pY1FCiXkTvVMztGWM+ENNwf888JYdbvUp6tHjPPDp98HFWrhRWrgZYdgmP1fhNei7tESJaENUbQef7WRWgxL11pmXcefzNSH4XRMdLiPCrJP//8s3qv9B1JK+WzT8fMs4Onqff1ULuCjZF+lgYGyF1c6tOhJH3N/p09e3ZVFg6NkkTn4KVLl0pJjhzb5N0yFrMjFWjkx3HkGeuvods4o4nYUGec9k2X4MxWR5v3rOxBdozw7hd3vvnmm2KW6LDSxOnYaucxFXmIbJNDkTsM+qme6+rTF5+ufDSgltuXuobps5qmzZpkXdKn3dp1/ZzOZZ7ZMTKnp1OoC4sKQZxax4xLiCQhDYbUMk8EMvHmWcvpaqWO1wMPPFAtVCG+pUip0kUKMcSgEjIoiUayq9FHlAoRWoykIzHssrYOA+k0IrLOkKg+cUu4PtxldPvvv/+uOkZoHNCJ1X3ZMRJRPNw3zw6xIDwW3YIPNZEekU6dpk30fiyv//zzz2VdqQcNx5LEetHA7RLSEiasRfjitdkxomiSd999t5olTk/eDbVObPXCPT1hni0WY+0KKnHixImlvhMFVRN0Fp2DG32kZv+YJgev+Pv999+LWbH4uNJgh9bJ2HfLJpitq9M+nj+OPEM3mAJJZAfS1zEi28EC/EjNMSKb1WXXuF5TalhsWCK9JUpriGyLQ3Ba9obImuggXVefvvjU8sF2ieNx8C+nZ8Fx0t1yyy351Op333br6oKZ72Se2TEy8wfGaBde1NooGtXXyEJt8ciZ32IT1cvEa+KmO24yNuLy6vtcFkd4icroIwpNhjNRFG3BdBkJThDqgDODTlYpGiuGLXZ1iOQ5H8q/aBQ1KqLRtJpHX/Xv2zhQ+la25tnhk6ajj+246667Dg+mPdbKoRHElBrJJno/ltdMCaWu/Mn5p/poq9E+6js0Ois6RmKjML5nNNWItU4++uij5VpHhP3LuaJ6eOu1fNCBsXaFazWFTbaNhR3Rb9775EvI/1Cp2T/y0bSyWjtSnaFoI7vKH/tu2QSzrvrs67l9sGdyjHRFPilyAqcBEXpIzTFCNDA2AJ3uEtbtIR1fYpNomg/re8C5Tz75ZOlAx1FJ9DLvew0Q6Bptt8EhLQKuge7YBlQ5pe0QfErXcyxG2vz888+1ZItTp04tceNZlCTWeWi7tZTfHI5lntkxMoenskEdWJkZ8vPHopCWeSKQiTfPWk5XKzo2mieKZ58V9/HKE/bI59bkVSesTxEcXbVjqoB4EEMnuUbGEKPE4pAaSVB6tkR95KgQTZNZNzKhdRVk7LrqqXM4WnSPMdLEjhEhNG5rnvXHjc9sqvF5//33ry7cRO+3zWtVitFHNXRxngyVmmOEr36I/6zzUPv6FNEnhBlbDhAwz8bbFRAU77B56JZ+R5vEJ6OZ4tJHuuwf1zP9UnnzeXo+WU/niMXONfWB83kdrT5ll9LU3i1jbXGpjBaO7QPP1jlG6FxLN9XR5tmKE/EYx9FZpS8NaJEGp4eu5/P0kscee2x5LW01ORKVl7ZMqSytJbUph1jfhzJo92mgLToZVMe8HYpPvl6/sV+6RxxANVGkNmmzbNpuzfnN5XfmmR0jc3kyI+qBUdWcMTz9NU/niKx9yZYRyMTbcvbHMjs6IiyOpZd13hJSWYomKd2sVvim85TlkUceWZbBGjx0qiiHUXQcGowmaCoMx/kahUSj3+tGJviKDtfyRZy+gmHmGpw1UewYiWgM3zfP+mGGo4BQWXSQBuRvv/22unBTvd8mr6kUThFxmPryRY2hUnOMMGJInjhgFarMO4TymMKnkX3SMK3VcoCAebZY6eRQu0JnDn3i7/nnn19usUssPszX0qJNRC/p5K2TLvuna7/44otVuSo/bulwbkO63i3i8VDMtlGv45jHPvCsyzFCdIgiMfiyTBQ5NrJjJK6Hw6LBJSHySrrNQJhEPNE51mfE4cEnZ2kL6jjOi9KA3FgOsRaK8o5TOdc5Rsbgo3stbTUYSVtVU51iuuhgpb6K3lGaTdutymdu28wzO0bm9oR61odQer042OIkscwXgUy8+dZ0mprh8FBYoQwGjUNFUegY01PWOfwYpVb6995774ob0FQX0uAEyQtREk6v77pzXt58efjjNIMrMl8sFgpzpBHbR15++eVlfblfGpFR7BiJaAzfN8/WY4atQFfFmegM5OpN9H6bvKYucFGNMerL6PYYqTlG+OKHcGDLOj5R6JTyDlIaPlFq8VQadGCsXWE0WvrElg5ZHgAgalJpatNfpIfr7B/p6NCpvUi+DKhhf+KgAMdip035D9mue7eMxWxIHfYp7T7Ysy7HiKITiI7KIn3NjhHS6StK6DL7TH9EcDryZTHpONs4PUyffSfv/Clfrv/8889XvHv22WeXeerfWA6xZo+cPzhhoqxzjIzFJ5YR91n7BUz4o61JBDWCnWP9Fd4HGmwnTXQObaPdGusyp/3MMztG5vR0etSF0Tgttori0pEshX31yMpJJkQgE2/ComdZFIuu6gXNl5fiqBhz/Z977rnV+bh4VulmaDiSFy/13MAkPdMEVFZtgcU4/5L1BRDNh8ZQdInqmj8NV7qGEGbVhbUcstgxkhEZ9ts868aLUHnpH41DHOxZNtH7bfKaUTY1KKlz6VO6ue613zXHCNNPhUdtIUzeTYocYVTfYscIOjDWrrAAqnQOvaJNVxKNYMcR71K6dfaPT1+rPKLE8iAaHU9NK+Cd0Gfx1VI9+rxbxmJWKq+FY/tgz2qOEUXa4qArTYnpcoywDpXWVpRuRycf7Sh9bSyuscWgGO27PN066pJ0FE5IxnKIqAy16XAKZulyjGyCTy4n/iYqTZixFc7sY29Pnz69PA+ekm21W5Xf3LaZZ3aMzO0JddSHOaEyYCjxvffeW3yhdGThUztCIBNvR9WYRbGstK8Xc9ecZhbDUrragoxEk6jzxAu/JFpgkrxKjhNdI27h6EAYUVD5SlPayvATltkljOzJG58/J6zrZES9+KoQGbY1z8p40fCMYcToOp+/LclYvd8mrzU6Bf9ooJ05c6ZU1d7Hao6RuKAro4U10dz0oV8zqOV33I+bZ4vFWLuCzZJdeeqpp6qqwDoASleLmuxj/9TRwwmjBYZzoUxPUMeS+xoiQ94tYzEbUp99SrsPPFP7iLaN5Ouvv17pds1JoQ57KWKEfNB97ITabXAFxx9tJ9qLcgCwsPAQYb078qJ8yVgOyWkJ90rOn5pjZBv4qO6lLZEjYCWMcb4SeUMfk6mq3L8csttst5bqModjmWd2jMzhqfSow7lz51ZKjNISamk5Pghk4h2fmm+/pvqiCnrctaAhC7iRhr+acdQaAaT56aefipVVuHz0gJcS3nHHHcuyZEjpOKr8PMoWr9fIBZ2nLmGkQvkxx7P0J0OFs0fn+ZRiFmEYjXdO0+Jv8+zKp87nPuPUGRqqMUIrXzFW76WT6PhYXlOvGG5PFBZT3TaVmmOEd4Y4+cMPP1SL0Zx1NRarCRs5YZ4tFmPtCioiBznTMGuCzZNuanpnTtvH/mldARZ57RJFe8UObFd6zg19t2yC2bq67OP5feBZyTFC5J10W+2cvNV5bBfnmO5cE+xNnPZBOk2bYcHfIUJfS2Vris5YDmEvyAu+5/vjd7TLOs9XFbeNT9f950FHrXvENB5km+3Wrnrs8lzmmR0ju3waPcuOC+LQYcLLaDleCGTiHa/ab7e2H3744dJYrOvU42GXgeLrSyVhxXHSdI3kxjBAOkg1IaSTvPhGO0IYpKJRWHehJLGO+vRiKR3HooHRffXZlubCqhO6DsNaXfb1uHl29MmyeFpct6c2lSxeNVbvt8Frwp7FCRqHXQ6cWOd1+zXHCBFkckbSyayJRgxZoNXiqTTowFi7wrXqtD388MNVddI0ry6Hfh/7p2lgjK53iRZG7eqAxuvHvFs2wSyW3cr+PtizdY4Rve/7bHnuOCv4shJ/WiMj68OlS5dWdoR9RAuZ4qToGujS54DhnRYoHcshOUb63JvSMBgQHSM63mebcci/mZ4DbmfPns2nVr/VXtB6fdtst64KmdlO5pkdIzN7QLk6cX4znTRG0S3HD4FMvON3B9urcRylxTtfkw8++GBl3AjnyxLXBSH8sUvkma+tVxIXpYqLsyr0F2Namnut9X44n8Od4W5c1ZswZqYbdP3piwSEgSpdaQ66HSPlp22eHcVFHXoaVXRK+soYvd+U1+oIUtd1U8nyfZTeDzFNzTFCGkboKJPQ4pIwKi7nybqFMEvX7+Mx8+zgqY61KwrXp/NV+iQvHTIWjUQv4+dGoy71tX+KwOoaPMBW6V7gQ5Qat8a+W1TOUFsc69TK/j7wrOQYoV2k9k1ti+7zR8dcaXjucAPecI6vG5WEL4hxPkc/qdNfmy5GW0v6Gb8YOJZD2A7VvbSN0+V0ngjJTfARHiXe6str4FAadGABVnADX00732a7VXWb2zbzzI6RuT2hVB8WpkRR+aMzhLLW/kodqJSdf+4IgUy8HVVjFsVi2GR8cPaxyGIWIkRk/GodFs0hxSlResnHPBXCC4/4HGkU5nOSB+eYThOFEQnxj88Hy9GBE4Sveeic1iXRtXz+VHn2GaXXdV5jREiM25pnh7gxBUv6SeO0Zjd0/PDKxXIkTtf21ftNeA1/xXfmjNMYU71K2+iEfPrpp5f3yehc7T3Q5Ri5cOHCCqeTJ08eWQyTxqq+WAWfa1MaInYt7JtnB095rF0h9F/RiEzFZEFWCVMCNK0FDkZHvdKw7Wv/5IQhL67J64xg01ivTnxn3R1JjVubvFvGYqY6tbTdB56VHCN9nqGc0aVp1HJ8oLP0i/TexwYxZUy6nNeNkj5znsjgONiFE0NfgeF85N0mHOq619oaI13X6FwXPrrPbBPl+OD+WN8oRlCzjpdwO3XqlIrpte3bbu2V2Q4SZZ7ZMbKDhzCkyBhaLKWtbZkHZ5knApl486zldLX68ccfV6Ow6DPzK/H+45mP4Yd0lhQKGWtH41GGASOwTmiInjhxYvXiZ9oMnwGNC3fR8aEjlAUnTeQcHSV14jjOopYY5Cg4X3TN7bffHk917vc1MI4YKcNonh3i8vrrr690ULrYtY2NJHIZo/djec0CfF11y+fQf4k6mKSJjVmdZ9vlGOE8n+lVGXAbHmrtIB1nUTrLAQLm2QEOm9gVBgRkR7BlDADgmNcx9K5m24bav2j7pN8cIxpFdpTyCLOPUuPWJu+WTTCLdWthfx94djUcI0RZRd1Eh2lnRe6UFrhH9zT9TO912nNyfuvYG2+8cYV6jeXQFRmFA1fLMRKxiTaRdqramLpX3juaRs6x++6774ro51Dl4q7yHBrpWcxsBwczz+wY2cFDGFKk5rZJibu2dowMQXbatJl405Y+z9JwePASruk0i6CWwgG5m+j5LjlOandMZEc0niobp0wcPcjXs/6Aolx0DfkQdoyxzfLHH3+s1nagrn0FZw35v/rqq52X2DFShsc8O8TlwQcfrHJLOhy32TFCTkP1nmvG8FqfCI716dqPjhF9LpupBxo5PEThYC86RkqfySYVYc2xgajyybdrTnouq4Xf5tnRpzzWrrDQce6UoXc46aOOHy1tuP2jQ8RUNU0lkG5ri20rrbFT49Y23i1jMctY7PPvfeCZHCO0bYaIHHalxefJB+7ceeedV9g43uHvvPNOtSgiplhgVPmLA2wZKIuOhJjJWA7FPPI+tohyqctQUf1L+NR4SxnYQkWbxXunPcs6Q3mQr0+9+rZb++S1izSZZ3aM7OIpuMzmEMjEaw6Ajhtm9IuOByOyLGB68eLFagenI5tBp+i80fAkTDOHFndlhKOGetY+MRevJdw/r/gdz3t/+wiYZ9vHlByH6L1qMCWvS59CVD2GbnGQElbMAnVdztKh+e5TevOs/DTH2hW4whpA2JYhjv5yLbqPMmWAtb1Yu4FOYG3wQblsk1vKM27HYhbz2Nd982z9k2VNjvPnzy8+/vjjxeXLl9df8F8KpmjyJTLagUwfW8eDmPFQDsVrp9pfx1vOf/fdd0vc+rRnp6r3LsrJPLNjZBdPwWU2h0AmXnMA+IaNwAQImGcTgOwimkfAPGteBQzABAiYZxOA7CKaRyDzzI6R5lXCAEyBQCbeFGW6DCPQGgLmWWtP3Pe7CwTMs12g7jJbQ8A8a+2J+353gUDmmR0ju3gKLrM5BDLxmgPAN2wEJkDAPJsAZBfRPALmWfMqYAAmQMA8mwBkF9E8Aplndow0rxIGYAoEMvGmKNNlGIHWEDDPWnvivt9dIGCe7QJ1l9kaAuZZa0/c97sLBDLP7BjZxVNwmc0hkInXHAC+YSMwAQLm2QQgu4jmETDPmlcBAzABAubZBCC7iOYRyDyzY6R5lTAAUyCQiTdFmS7DCLSGgHnW2hP3/e4CAfNsF6i7zNYQMM9ae+K+310gkHlmx8gunoLLbA6BTLzmAPANG4EJEDDPJgDZRTSPgHnWvAoYgAkQMM8mANlFNI9A5pkdI82rhAGYAoFMvCnKdBlGoDUEzLPWnrjvdxcImGe7QN1ltoaAedbaE/f97gKBzDM7RnbxFFxmcwhk4jUHgG/YCEyAgHk2AcguonkEzLPmVcAATICAeTYByC6ieQQyz+wYaV4lDMAUCGTiTVGmyzACrSFgnrX2xH2/u0DAPNsF6i6zNQTMs9aeuO93Fwhkntkxsoun4DKbQyATrzkAfMNGYAIEzLMJQHYRzSNgnjWvAgZgAgTMswlAdhHNI5B5ZsdI8yphAKZAIBNvijJdhhFoDQHzrLUn7vvdBQLm2S5Qd5mtIWCetfbEfb+7QCDzzI6RXTwFl9kcApl4zQHgGzYCEyBgnk0AsotoHgHzrHkVMAATIGCeTQCyi2gegcyzlWNEJ7z9v4UxMAbWAeuAdcA6YB2wDlgHrAPWAeuAdcA6YB3Ybx2Qh8iOkf/t94M2kf18rQPWAeuAdcA6YB2wDlgHrAPWAeuAdcA6cKUOXOEY0QFvjYAR2D4CegltP2fnaASMgBAwz4SEt0bg6iFgnl09bJ2zERAC5pmQ8NYIXD0EMs9WESNXr0jnbASMQCaeETECRmD7CJhn28fUORqBjIB5lhHxbyOwfQTMs+1j6hyNQEYg88yOkYyQfxuBq4BAJt5VKMJZGoHmETDPmlcBAzABAubZBCC7iOYRMM+aVwEDMAECmWd2jEwAuoswApl4RsQIGIHtI2CebR9T52gEMgLmWUbEv43A9hEwz7aPqXM0AhmBzLP/B0WkjyfddubOAAAAAElFTkSuQmCC;" parent="1" vertex="1">
          <mxGeometry x="1340" y="520" width="480" height="100.91" as="geometry" />
        </mxCell>
        <mxCell id="Yh9lpEzUiPftYrS5x7hQ-1818" value="" style="edgeStyle=orthogonalEdgeStyle;rounded=0;orthogonalLoop=1;jettySize=auto;html=1;" parent="1" source="Yh9lpEzUiPftYrS5x7hQ-1796" target="Yh9lpEzUiPftYrS5x7hQ-1800" edge="1">
          <mxGeometry relative="1" as="geometry" />
        </mxCell>
        <mxCell id="Yh9lpEzUiPftYrS5x7hQ-1796" value="月缴费3460" style="rounded=1;whiteSpace=wrap;html=1;shadow=0;labelBackgroundColor=none;strokeColor=none;strokeWidth=3;fillColor=#61c6ce;fontFamily=Helvetica;fontSize=14;fontColor=#FFFFFF;align=center;spacing=5;fontStyle=0;arcSize=7;perimeterSpacing=2;" parent="1" vertex="1">
          <mxGeometry x="1240" y="188.94" width="110" height="40" as="geometry" />
        </mxCell>
        <mxCell id="Yh9lpEzUiPftYrS5x7hQ-1817" value="" style="edgeStyle=orthogonalEdgeStyle;rounded=0;orthogonalLoop=1;jettySize=auto;html=1;" parent="1" source="Yh9lpEzUiPftYrS5x7hQ-1798" target="Yh9lpEzUiPftYrS5x7hQ-1800" edge="1">
          <mxGeometry relative="1" as="geometry" />
        </mxCell>
        <mxCell id="Yh9lpEzUiPftYrS5x7hQ-1798" value="月缴费2514" style="rounded=1;whiteSpace=wrap;html=1;shadow=0;labelBackgroundColor=none;strokeColor=none;strokeWidth=3;fillColor=#61c6ce;fontFamily=Helvetica;fontSize=14;fontColor=#FFFFFF;align=center;spacing=5;fontStyle=0;arcSize=7;perimeterSpacing=2;" parent="1" vertex="1">
          <mxGeometry x="1240" y="133.94" width="110" height="40" as="geometry" />
        </mxCell>
        <mxCell id="Yh9lpEzUiPftYrS5x7hQ-1807" value="" style="edgeStyle=orthogonalEdgeStyle;rounded=0;orthogonalLoop=1;jettySize=auto;html=1;" parent="1" source="Yh9lpEzUiPftYrS5x7hQ-1800" target="Yh9lpEzUiPftYrS5x7hQ-1806" edge="1">
          <mxGeometry relative="1" as="geometry" />
        </mxCell>
        <mxCell id="Yh9lpEzUiPftYrS5x7hQ-1800" value="合计5974" style="rounded=1;whiteSpace=wrap;html=1;shadow=0;labelBackgroundColor=none;strokeColor=none;strokeWidth=3;fillColor=#61c6ce;fontFamily=Helvetica;fontSize=14;fontColor=#FFFFFF;align=center;spacing=5;fontStyle=0;arcSize=7;perimeterSpacing=2;" parent="1" vertex="1">
          <mxGeometry x="1482" y="160" width="110" height="40" as="geometry" />
        </mxCell>
        <mxCell id="Yh9lpEzUiPftYrS5x7hQ-1846" value="" style="edgeStyle=orthogonalEdgeStyle;rounded=0;orthogonalLoop=1;jettySize=auto;html=1;" parent="1" source="Yh9lpEzUiPftYrS5x7hQ-1810" target="Yh9lpEzUiPftYrS5x7hQ-1845" edge="1">
          <mxGeometry relative="1" as="geometry" />
        </mxCell>
        <mxCell id="Yh9lpEzUiPftYrS5x7hQ-1810" value="组合贷款合计180w" style="rounded=1;whiteSpace=wrap;html=1;shadow=0;labelBackgroundColor=none;strokeColor=none;strokeWidth=3;fillColor=#61c6ce;fontFamily=Helvetica;fontSize=14;fontColor=#FFFFFF;align=center;spacing=5;fontStyle=0;arcSize=7;perimeterSpacing=2;" parent="1" vertex="1">
          <mxGeometry x="1250" y="394" width="150" height="40" as="geometry" />
        </mxCell>
        <mxCell id="Yh9lpEzUiPftYrS5x7hQ-1824" value="装修款108621万" style="rounded=1;whiteSpace=wrap;html=1;shadow=0;labelBackgroundColor=none;strokeColor=none;strokeWidth=3;fillColor=#61c6ce;fontFamily=Helvetica;fontSize=14;fontColor=#FFFFFF;align=center;spacing=5;fontStyle=0;arcSize=7;perimeterSpacing=2;" parent="1" vertex="1">
          <mxGeometry x="870" y="79.94" width="120" height="40" as="geometry" />
        </mxCell>
        <mxCell id="Yh9lpEzUiPftYrS5x7hQ-1829" value="海尚明珠107w" style="rounded=1;whiteSpace=wrap;html=1;shadow=0;labelBackgroundColor=none;strokeColor=none;strokeWidth=3;fillColor=#61c6ce;fontFamily=Helvetica;fontSize=14;fontColor=#FFFFFF;align=center;spacing=5;fontStyle=0;arcSize=7;perimeterSpacing=2;" parent="1" vertex="1">
          <mxGeometry x="880" y="630" width="110" height="40" as="geometry" />
        </mxCell>
        <mxCell id="Yh9lpEzUiPftYrS5x7hQ-1830" value="学府60w" style="rounded=1;whiteSpace=wrap;html=1;shadow=0;labelBackgroundColor=none;strokeColor=none;strokeWidth=3;fillColor=#61c6ce;fontFamily=Helvetica;fontSize=14;fontColor=#FFFFFF;align=center;spacing=5;fontStyle=0;arcSize=7;perimeterSpacing=2;" parent="1" vertex="1">
          <mxGeometry x="880" y="740" width="110" height="40" as="geometry" />
        </mxCell>
        <mxCell id="Yh9lpEzUiPftYrS5x7hQ-1806" value="每月需要拿4488" style="rounded=1;whiteSpace=wrap;html=1;shadow=0;labelBackgroundColor=none;strokeColor=none;strokeWidth=3;fillColor=#61c6ce;fontFamily=Helvetica;fontSize=14;fontColor=#FFFFFF;align=center;spacing=5;fontStyle=0;arcSize=7;perimeterSpacing=2;" parent="1" vertex="1">
          <mxGeometry x="1870" y="300" width="110" height="40" as="geometry" />
        </mxCell>
        <mxCell id="Yh9lpEzUiPftYrS5x7hQ-1841" value="&lt;span&gt;20年每月还款1701.58&lt;/span&gt;" style="ellipse;whiteSpace=wrap;html=1;rounded=1;shadow=0;fontSize=14;fontColor=#FFFFFF;fontStyle=0;strokeColor=none;strokeWidth=3;fillColor=#61c6ce;spacing=5;arcSize=7;" parent="1" vertex="1">
          <mxGeometry x="1052.5" y="290" width="145" height="60" as="geometry" />
        </mxCell>
        <mxCell id="Yh9lpEzUiPftYrS5x7hQ-1848" value="" style="edgeStyle=orthogonalEdgeStyle;rounded=0;orthogonalLoop=1;jettySize=auto;html=1;entryX=0.5;entryY=1;entryDx=0;entryDy=0;" parent="1" source="Yh9lpEzUiPftYrS5x7hQ-1845" target="Yh9lpEzUiPftYrS5x7hQ-1806" edge="1">
          <mxGeometry relative="1" as="geometry">
            <mxPoint x="1710.0000000000005" y="414" as="targetPoint" />
          </mxGeometry>
        </mxCell>
        <mxCell id="Yh9lpEzUiPftYrS5x7hQ-1845" value="组合贷款还款总额10462" style="rounded=1;whiteSpace=wrap;html=1;shadow=0;labelBackgroundColor=none;strokeColor=none;strokeWidth=3;fillColor=#61c6ce;fontFamily=Helvetica;fontSize=14;fontColor=#FFFFFF;align=center;spacing=5;fontStyle=0;arcSize=7;perimeterSpacing=2;" parent="1" vertex="1">
          <mxGeometry x="1482" y="394" width="150" height="40" as="geometry" />
        </mxCell>
        <UserObject label="房款计算器&lt;br&gt;" link="http://www.cmbchina.com/CmbWebPubInfo/Cal_Loan_Per.aspx" id="nFLwCyb9CoUiScKu5Z4s-1778">
          <mxCell style="text;whiteSpace=wrap;html=1;fillColor=#f8cecc;strokeColor=#b85450;" vertex="1" parent="1">
            <mxGeometry x="630" y="930" width="70" height="30" as="geometry" />
          </mxCell>
        </UserObject>
      </root>
    </mxGraphModel>
  </diagram>
</mxfile>
